<svg width="169" height="36" viewBox="0 0 169 36" fill="none" xmlns="http://www.w3.org/2000/svg"><path d="M160.602 35.27V20.218c0-3.216-1.318-4.53-3.662-4.53s-4.393 2.046-4.393 5.164v14.42h-8.252V9.744h7.96v3.896h.097s1.757-4.627 7.616-4.627c5.858 0 9.032 3.167 9.032 9.793v16.466h-8.398v-.002zm-53.774 0h9.764l-9.326-15.98 9.033-9.547h-10.204l-7.42 9.207V0H90.52v35.27h8.155v-7.015l2.879-3.166 5.274 10.18zm26.886-12.765c0 4.628-2.345 6.966-5.274 6.966s-5.273-2.338-5.273-6.966c0-4.627 2.344-6.965 5.273-6.965 2.928 0 5.274 2.339 5.274 6.965zm-19.141 0c0 8.137 5.371 13.495 13.866 13.495s13.866-5.358 13.866-13.495c0-8.134-5.371-13.493-13.866-13.493s-13.866 5.36-13.866 13.493zM67.183 35.27h8.447V0h-8.446v35.27zm-18.967 0h8.495V24.017c0-4.97 1.855-6.82 5.858-6.82 1.417 0 2.734.195 2.734.195V9.16s-.732-.147-1.855-.147c-5.859 0-6.932 5.067-6.932 5.067h-.098V9.743h-8.202V35.27zm30.636 0H87.3V9.744h-8.447V35.27zm0-28.644H87.3V0h-8.447v6.626zm-60.104 15.88c0 4.627-2.344 6.965-5.078 6.965-2.734 0-5.077-2.338-5.077-6.966 0-4.627 2.343-6.965 5.077-6.965s5.078 2.339 5.078 6.965zm4.296 10.134c2.295 2.144 5.713 3.36 9.52 3.36 9.228 0 12.646-5.358 13.378-8.67h-8.3s-.928 2.631-4.736 2.631c-3.466 0-5.078-2.145-5.418-5.214h18.6s.05-.437.05-1.266c0-9.208-5.273-14.468-13.573-14.468-3.808 0-7.226 1.218-9.52 3.36-2.345-2.143-5.566-3.36-9.374-3.36C5.37 9.013 0 14.37 0 22.505 0 30.642 5.37 36 13.67 36c3.81 0 7.03-1.216 9.374-3.36zm4.443-13.056c.341-2.582 1.952-4.823 5.077-4.823 3.076 0 4.686 2.241 5.029 4.823H27.487z" fill="#EB0000"/></svg>