<svg width="28" height="28" viewBox="0 0 28 28" fill="none" xmlns="http://www.w3.org/2000/svg"><path d="M28 14c0 7.732-6.268 14-14 14S0 21.732 0 14 6.268 0 14 0s14 6.268 14 14z" fill="#333"/><path fill-rule="evenodd" clip-rule="evenodd" d="M20.593 7.095c-.144.052-3.878 1.477-8.297 3.167-4.95 1.892-8.073 3.106-8.131 3.16-.124.117-.191.348-.155.538.06.325.083.335 2.4 1.116 1.771.597 2.13.706 2.2.668.046-.025.559-.335 1.14-.69.58-.356 2.772-1.693 4.87-2.973 3.916-2.387 3.943-2.402 3.943-2.172 0 .049-1.294 1.264-3.647 3.426a789.727 789.727 0 00-3.744 3.45c-.093.098-.098.138-.23 2.014-.094 1.346-.122 1.947-.094 2.026.046.131.224.228.347.189.048-.015.612-.54 1.254-1.166.641-.626 1.181-1.138 1.2-1.138.018 0 .969.708 2.112 1.573 1.143.865 2.142 1.606 2.22 1.647.303.16.748.034.959-.273.068-.099.426-1.66 1.574-6.86.817-3.7 1.486-6.783 1.486-6.849 0-.24-.095-.446-.3-.65-.316-.316-.633-.374-1.107-.202z" fill="url(#paint0_linear_1042_28)"/><defs><linearGradient id="paint0_linear_1042_28" x1="13" y1="7" x2="13" y2="22" gradientUnits="userSpaceOnUse"><stop stop-color="#FBDD51"/><stop offset="1" stop-color="#E8BC00"/></linearGradient></defs></svg>