<svg width="28" height="28" viewBox="0 0 28 28" fill="none" xmlns="http://www.w3.org/2000/svg"><path d="M28 14c0 7.732-6.268 14-14 14S0 21.732 0 14 6.268 0 14 0s14 6.268 14 14z" fill="#333"/><path fill-rule="evenodd" clip-rule="evenodd" d="M8.77 6.042c-.388.084-.463.143-1.477 1.154-.884.882-.953.958-1.057 1.178-.17.362-.213.558-.232 1.07-.019.516.024.857.18 1.451.943 3.579 5.167 8.285 9.211 10.261 1.2.586 2.105.841 2.997.844.547.002.823-.053 1.202-.24.244-.12.308-.177 1.188-1.053.986-.982 1.045-1.057 1.17-1.473.064-.219.064-.63 0-.849-.113-.377-.159-.432-1.406-1.683-.658-.66-1.281-1.26-1.385-1.333-.622-.442-1.422-.38-1.943.149-.157.16-.218.254-.327.506a2.96 2.96 0 01-.218.424c-.3.405-.88.663-1.372.611-.735-.078-1.83-.74-2.758-1.665-1.124-1.121-1.787-2.412-1.625-3.163.075-.35.322-.716.613-.91a2.36 2.36 0 01.333-.174c.326-.139.406-.184.558-.316.522-.455.636-1.306.256-1.91-.112-.177-2.276-2.36-2.54-2.562a1.81 1.81 0 00-.735-.33 1.426 1.426 0 00-.633.013z" fill="url(#paint0_linear_1038_87)"/><defs><linearGradient id="paint0_linear_1038_87" x1="14" y1="6" x2="14" y2="22" gradientUnits="userSpaceOnUse"><stop stop-color="#FBDD51"/><stop offset="1" stop-color="#E8BC00"/></linearGradient></defs></svg>