<svg width="74" height="57" viewBox="0 0 74 57" fill="none" xmlns="http://www.w3.org/2000/svg"><path fill-rule="evenodd" clip-rule="evenodd" d="M1.713.235C.985.553.251 1.46.109 2.215c-.302 1.611-.873.953 12.248 14.107l12.124 12.154-12.124 12.153C-.802 53.82-.194 53.119.117 54.777c.164.876 1.227 1.941 2.103 2.106 1.661.312.85 1.023 15.296-13.417 7.318-7.314 13.42-13.515 13.56-13.78.327-.617.327-1.805 0-2.421C30.676 26.515 4.453.38 3.888.17a3.039 3.039 0 00-2.176.064zm21.34 0c-.729.318-1.463 1.224-1.605 1.98-.301 1.611-.873.953 12.249 14.107L45.82 28.476 33.697 40.629c-13.16 13.191-12.552 12.49-12.241 14.148.164.876 1.228 1.941 2.103 2.106 1.662.312.85 1.023 15.297-13.417 7.317-7.314 13.42-13.515 13.56-13.78.326-.617.326-1.805-.001-2.421C52.017 26.515 25.794.38 25.228.17a3.038 3.038 0 00-2.175.064zm21.34 0c-.73.318-1.463 1.224-1.605 1.98-.302 1.611-.873.953 12.248 14.107L67.16 28.476 55.037 40.629c-13.16 13.191-12.552 12.49-12.241 14.148.164.876 1.227 1.941 2.103 2.106 1.661.312.85 1.023 15.296-13.417 7.318-7.314 13.42-13.515 13.56-13.78.327-.617.327-1.805 0-2.421C73.355 26.515 47.132.38 46.567.17a3.038 3.038 0 00-2.176.064z" fill="#FDD837"/></svg>