<svg width="743" height="754" viewBox="0 0 743 754" fill="none" xmlns="http://www.w3.org/2000/svg"><g opacity=".05"><mask id="a" style="mask-type:alpha" maskUnits="userSpaceOnUse" x="110" y="110" width="534" height="534"><circle cx="377" cy="377" r="266.85" transform="rotate(-42.42 377 377)" fill="#fff"/></mask><g mask="url(#a)"><path d="M12.4 380.562L432.095-2.947M36.528 406.966L456.223 23.458M60.656 433.37L480.351 49.862M84.784 459.775L504.48 76.267M108.912 486.18l419.695-383.509M133.041 512.585l419.694-383.509M157.169 538.989l419.694-383.508M181.297 565.394l419.694-383.509M205.425 591.798L625.119 208.29M229.553 618.203l419.694-383.509M253.681 644.608l419.694-383.509M277.809 671.012l419.694-383.508M301.937 697.417l419.694-383.509M326.065 723.821l419.694-383.508M350.193 750.226l419.694-383.509" stroke="#fff" stroke-width="8"/></g></g><path fill="#444445" d="M365 170h221v190H365zM166 382h221v190H166z"/><path fill="#696969" d="M218 235h309v265H218z"/></svg>