<svg width="638" height="638" viewBox="0 0 638 638" fill="none" xmlns="http://www.w3.org/2000/svg"><g style="mix-blend-mode:overlay" opacity=".1" fill="#fff"><path d="M319 0c175.907 0 319 143.093 319 319S494.907 638 319 638 0 494.888 0 319 143.093 0 319 0zm0 629.958c171.505 0 310.958-139.491 310.958-310.958S490.467 8.023 319 8.023 8.042 147.533 8.042 319c0 171.467 139.491 310.958 310.958 310.958z"/><path d="M319 154.012a164.989 164.989 0 11-137.183 256.651A164.989 164.989 0 01154.012 319 165.176 165.176 0 01319 154.012zm0 321.935a156.951 156.951 0 00144.945-96.939 156.941 156.941 0 00-34.07-171.012 156.95 156.95 0 00-171.03-33.988A156.947 156.947 0 00161.977 319 157.138 157.138 0 00319 475.947z"/><path d="M319 261.565A57.434 57.434 0 11261.564 319 57.497 57.497 0 01319 261.565zm0 106.829a49.386 49.386 0 0027.441-8.325 49.387 49.387 0 007.485-75.995A49.395 49.395 0 00269.606 319a49.541 49.541 0 0014.512 34.882A49.541 49.541 0 00319 368.394z"/><path d="M319.001 223.529A95.47 95.47 0 11223.529 319a95.566 95.566 0 0195.472-95.471zm0 182.939a87.429 87.429 0 10-87.43-87.43 87.523 87.523 0 0087.43 87.392v.038z"/><path d="M319.001 189.761a129.237 129.237 0 01126.755 154.453 129.237 129.237 0 01-176.213 94.187A129.236 129.236 0 01189.762 319a129.39 129.39 0 01129.239-129.239zm0 250.436a121.2 121.2 0 00111.971-74.817 121.2 121.2 0 00-88.327-165.248 121.203 121.203 0 00-124.416 51.535A121.192 121.192 0 00197.803 319a121.33 121.33 0 00121.198 121.197z"/><path d="M319 114.146A204.853 204.853 0 11114.146 319a205.08 205.08 0 0160.068-144.786A205.08 205.08 0 01319 114.146zm0 401.666A196.813 196.813 0 10122.188 319 197.043 197.043 0 00319 515.812z"/><path d="M319 75.367A243.633 243.633 0 1175.367 319 243.919 243.919 0 01319 75.367zm0 479.224a235.593 235.593 0 00217.658-145.435 235.587 235.587 0 00-51.07-256.745A235.59 235.59 0 0083.408 319 235.857 235.857 0 00319 554.534v.057z"/><path d="M318.999 34.74C475.736 34.74 603.24 162.264 603.24 319c0 156.737-127.504 284.261-284.241 284.261-156.737 0-284.26-127.524-284.26-284.261 0-156.736 127.523-284.26 284.26-284.26zm0 560.479c152.316 0 276.314-123.865 276.314-276.314S471.448 42.591 318.999 42.591 42.685 166.456 42.685 318.905s124.017 276.314 276.314 276.314z"/></g></svg>