<svg width="158" height="248" viewBox="0 0 158 248" fill="none" xmlns="http://www.w3.org/2000/svg"><g filter="url(#filter0_f_1187_374)"><path d="M37.18 208.433C26.915 199.264 8.148 180.13 8.148 180.13l-5.953 6.738c-1.84 3.286 9.448 17.365 25.731 31.909 16.284 14.545 31.5 24.203 34.626 22.004l6.007-6.643s-21.119-16.503-31.38-25.705z" fill="url(#paint0_linear_1187_374)"/><path d="M67.89 233.635c-2.483 2.768-17.794-6.852-34.183-21.494-16.39-14.642-27.676-28.737-25.182-31.539 2.494-2.801 17.795 6.853 34.2 21.495 16.407 14.643 27.659 28.762 25.166 31.538z" fill="url(#paint1_linear_1187_374)"/><path d="M66.326 234.937c-5.235-.24-18.849-9.294-33.112-22.043-12.154-10.857-28.868-28.531-25.092-32.765a2.708 2.708 0 012.256-.739c5.234.241 18.848 9.294 33.111 22.044a173.847 173.847 0 0119.694 20.288c7.75 9.812 5.97 11.778 5.408 12.451a2.734 2.734 0 01-2.265.764zM10.3 181.072a1.263 1.263 0 00-.93.21c-1.674 1.87 7.011 14.32 24.965 30.391 15.61 13.94 27.953 21.427 32.066 21.616a1.21 1.21 0 00.93-.21c.49-.542-.022-3.372-5.44-10.262a173.082 173.082 0 00-19.524-20.129c-15.61-13.94-27.945-21.426-32.067-21.616z" fill="url(#paint2_linear_1187_374)"/><path d="M60.755 229.54c-4.215-.194-15.107-7.436-26.578-17.723-8.448-7.509-23.444-22.686-20.141-26.36a2.298 2.298 0 011.914-.662c4.214.194 15.114 7.479 26.578 17.723 8.414 7.508 23.452 22.687 20.14 26.377a2.314 2.314 0 01-1.913.645zm-44.882-43.071a.89.89 0 00-.579.1c-1.033 1.157 5.093 10.667 20.013 23.994 12.357 11.043 22.373 17.15 25.525 17.295.371.017.543-.051.58-.099 1.032-1.15-5.093-10.668-20.014-23.995-12.357-11.043-22.373-17.15-25.525-17.295z" fill="url(#paint3_linear_1187_374)"/><path d="M33.761 199.738L32.4 201.26l-1.21-1.075c-1.281-1.146-2.134-1.877-2.567-2.2-.433-.323-.69-.419-.831-.299-.14.12.028.313.324.664.466.507.96.989 1.48 1.441a17.43 17.43 0 002.518 1.995c1.104.58 2.24 1.099 3.4 1.556 1.467.606 2.55 1.103 3.31 1.5.99.565 1.94 1.197 2.844 1.892 1.176.875 2.57 2.032 4.182 3.471a49.19 49.19 0 015.745 5.843c1.245 1.574 1.798 2.779 1.684 3.617l2.734 2.443-.632.696-2.823-2.523c-.574.237-1.641-.073-3.201-.931a45.55 45.55 0 01-7.216-5.633l-1.429-1.262 1.371-1.53 1.777 1.59c1.957 1.776 3.186 2.846 3.687 3.212.498.385.82.526.91.404.09-.122.016-.328-.29-.679-.43-.49-.894-.951-1.389-1.378-1.622-1.457-2.811-2.475-3.567-3.055a12.559 12.559 0 00-2.733-1.558c-1.806-.769-3.113-1.363-3.922-1.782a25.261 25.261 0 01-3.15-2.033 52.234 52.234 0 01-4.201-3.412 35.753 35.753 0 01-4.765-4.947c-1.002-1.361-1.417-2.433-1.238-3.2l-2.32-2.07.631-.705 2.313 2.07c.71-.211 1.778.082 3.206.991a37.75 37.75 0 015.359 4.148c.352.244.772.659 1.371 1.217z" fill="url(#paint4_linear_1187_374)"/><path d="M34.27 199.164l-1.361 1.488-1.21-1.075c-1.281-1.144-2.135-1.874-2.56-2.191-.432-.323-.69-.42-.83-.308-.14.112.028.313.325.664.46.51.95.991 1.47 1.441a17.843 17.843 0 002.526 2.029 34.723 34.723 0 003.4 1.556c1.458.614 2.55 1.111 3.31 1.5.985.555 1.93 1.179 2.828 1.866a70.685 70.685 0 014.19 3.48 49.912 49.912 0 015.746 5.834c1.239 1.585 1.797 2.791 1.675 3.617l2.734 2.443-.632.704-2.824-2.523c-.551.236-1.618-.075-3.192-.931a46.094 46.094 0 01-7.217-5.624l-1.42-1.27 1.362-1.497 1.785 1.591c1.953 1.741 3.179 2.809 3.679 3.203.506.394.82.526.919.404.099-.121.015-.319-.29-.67a14.75 14.75 0 00-1.415-1.38c-1.622-1.468-2.803-2.486-3.542-3.053a11.928 11.928 0 00-2.733-1.559c-1.805-.782-3.113-1.373-3.921-1.79a27.57 27.57 0 01-3.15-2.032 54.091 54.091 0 01-4.185-3.42 34.765 34.765 0 01-4.764-4.947c-1.002-1.361-1.42-2.391-1.28-3.228l-2.279-2.043.623-.696 2.32 2.07c.709-.209 1.775.121 3.199.99a37.515 37.515 0 015.358 4.157l1.356 1.2z" fill="url(#paint5_linear_1187_374)"/><path d="M49.477 200.735c18.892 16.419 29.275 35.404 23.191 42.404-6.083 6.999-26.33-.637-45.222-17.057-18.891-16.419-29.274-35.404-23.19-42.403 6.083-7 26.33.636 45.22 17.056z" fill="#444445" fill-opacity=".3"/></g><g filter="url(#filter1_f_1187_374)"><path d="M49.141 129.049c-2.4-16.807 2.561-39.737 14.952-62.004 12.39-22.268 29.099-38.704 44.616-45.596l13.671-7.814 14.134 7.945c17.496 11.737 16.237 48.515-3.258 83.75-19.494 35.236-50.322 55.98-69.505 47.115l-15.056-8.25.446-15.146z" fill="url(#paint6_linear_1187_374)"/><path d="M50.472 143.388c18.66 10.327 49.711-10.183 69.421-45.794 19.711-35.612 20.592-72.754 2.036-83.098-18.556-10.344-49.7 10.252-69.4 45.834-19.702 35.581-20.601 72.783-2.057 83.058z" fill="url(#paint7_linear_1187_374)"/><path d="M53.704 146.5c20.03 6.256 49.098-14.217 67.672-47.819 9.614-17.322 15.06-35.701 15.317-51.661.274-16.333-4.914-28.264-14.572-33.613a22.904 22.904 0 00-4.213-1.808C97.878 5.342 68.81 25.815 50.236 59.417c-20.083 36.12-20.416 74.401-.805 85.256a22.95 22.95 0 004.273 1.827zm63.27-131.91c1.276.4 2.508.928 3.678 1.576 8.611 4.759 13.16 15.686 12.967 30.813-.372 15.382-5.623 33.296-14.997 50.218-17.808 32.2-45.375 52.124-63.984 46.311a19.981 19.981 0 01-3.708-1.585c-18.113-10.025-17.218-46.424 1.98-81.08 17.857-32.2 45.365-52.093 64.064-46.252z" fill="url(#paint8_linear_1187_374)"/><path d="M59.95 133.28c15.976 4.99 39.29-11.566 54.213-38.527 16.116-29.099 16.489-59.833.81-68.506a18.089 18.089 0 00-3.388-1.453c-15.946-4.98-39.275 11.571-54.159 38.511-16.156 29.12-16.529 59.854-.88 68.518a18.078 18.078 0 003.404 1.457zm50.73-105.485c.975.307 1.915.711 2.809 1.206 14.136 7.83 13.182 36.642-2.011 64.257-13.96 25.192-36.188 41.53-50.534 37.049a14.958 14.958 0 01-2.809-1.206c-14.135-7.83-13.18-36.642 2.013-64.256C74.11 39.588 96.32 23.31 110.68 27.795z" fill="url(#paint9_linear_1187_374)"/><path d="M80.895 58.617l10.22 5.655 1.456-2.615a29.352 29.352 0 013.295-5.292 1.709 1.709 0 013.016 1.435 10 10 0 01-1.369 3.594 11.55 11.55 0 01-3.837 4.663 48.15 48.15 0 01-8.717 2.728 52.91 52.91 0 00-8.386 2.618 19.447 19.447 0 00-5.418 4.153 38.52 38.52 0 00-5.861 8.25c-3.106 5.597-4.668 10.494-4.688 14.691a12.941 12.941 0 004.598 10.302l-3.283 5.936 4.704 2.602 3.393-6.131a12.549 12.549 0 009.851-.896c3.596-1.701 7.338-6.059 11.227-13.076l1.716-3.076-10.215-5.67-2.142 3.863a63.047 63.047 0 01-4.696 7.727c-.78.922-1.574 1.15-2.385.7a1.85 1.85 0 01-.94-1.936 8.837 8.837 0 011.244-3.453 47.653 47.653 0 014.684-7.32 12.02 12.02 0 016.145-3.17 87.617 87.617 0 0010.057-3.131 22.163 22.163 0 006.287-4.358 32.704 32.704 0 006.047-8.06c2.622-4.714 3.797-8.895 3.554-12.533a12.702 12.702 0 00-5.092-9.242l2.774-5.044-4.684-2.613-2.789 5.04a11.521 11.521 0 00-9.796.979 24.354 24.354 0 00-8.412 9.637c-.369.656-.885 1.677-1.558 3.043z" fill="url(#paint10_linear_1187_374)"/><path d="M77.069 56.503l10.264 5.67 1.442-2.62a29.033 29.033 0 013.385-5.264 1.708 1.708 0 012.226-.454 1.723 1.723 0 01.79 1.888 10.344 10.344 0 01-1.37 3.595 11.707 11.707 0 01-3.837 4.663 49.314 49.314 0 01-8.716 2.728 52.9 52.9 0 00-8.387 2.618 19.26 19.26 0 00-5.473 4.119 38.24 38.24 0 00-5.865 8.265c-3.116 5.594-4.684 10.49-4.703 14.686a13.006 13.006 0 004.612 10.307l-3.297 5.931 4.703 2.602 3.408-6.126a12.43 12.43 0 009.837-.901c3.616-1.694 7.355-6.043 11.246-13.086l1.701-3.08-10.219-5.655-2.127 3.867a65.563 65.563 0 01-4.696 7.727c-.776.907-1.574 1.15-2.386.7a1.85 1.85 0 01-.939-1.936 8.571 8.571 0 011.243-3.453 47.93 47.93 0 014.689-7.336 11.895 11.895 0 016.041-3.153 91.802 91.802 0 0010.043-3.135 21.565 21.565 0 006.286-4.357 32.93 32.93 0 006.068-8.071c2.554-4.675 3.737-8.848 3.549-12.519a12.702 12.702 0 00-5.039-9.257l2.79-5.04-4.704-2.602-2.79 5.04a11.611 11.611 0 00-9.79.964 24.651 24.651 0 00-8.5 9.658c-.3.645-.812 1.651-1.485 3.017z" fill="url(#paint11_linear_1187_374)"/><path d="M49.458 50.505c-23.194 37.673-22.504 80.213 1.54 95.017 24.044 14.803 62.339-3.736 85.533-41.409 23.194-37.672 22.504-80.213-1.54-95.016-24.045-14.803-62.339 3.736-85.533 41.408z" fill="#444445" fill-opacity=".3"/></g><defs><linearGradient id="paint0_linear_1187_374" x1="2.903" y1="184.793" x2="76.498" y2="241.728" gradientUnits="userSpaceOnUse"><stop stop-color="#AA560A"/><stop offset=".02" stop-color="#AA560A"/><stop offset=".03" stop-color="#C2660D"/><stop offset=".04" stop-color="#CC6E0D"/><stop offset=".05" stop-color="#BA610B"/><stop offset=".06" stop-color="#BA610B"/><stop offset=".07" stop-color="#CF700E"/><stop offset=".08" stop-color="#AC570A"/><stop offset=".1" stop-color="#BE640C"/><stop offset=".11" stop-color="#C0640C"/><stop offset=".12" stop-color="#AE560A"/><stop offset=".14" stop-color="#BE620C"/><stop offset=".15" stop-color="#C5670D"/><stop offset=".16" stop-color="#AC550A"/><stop offset=".19" stop-color="#AC550A"/><stop offset=".21" stop-color="#C1640C"/><stop offset=".22" stop-color="#AC550A"/><stop offset=".25" stop-color="#AC550A"/><stop offset=".27" stop-color="#C6620D"/><stop offset=".28" stop-color="#B4530B"/><stop offset=".29" stop-color="#B2510B"/><stop offset=".32" stop-color="#C25E0D"/><stop offset=".33" stop-color="#C6620D"/><stop offset=".34" stop-color="#B4530B"/><stop offset=".35" stop-color="#B2510B"/><stop offset=".37" stop-color="#B2510B"/><stop offset=".38" stop-color="#C25E0D"/><stop offset=".39" stop-color="#C6620D"/><stop offset=".4" stop-color="#B4530B"/><stop offset=".41" stop-color="#B2510B"/><stop offset=".44" stop-color="#C25E0D"/><stop offset=".45" stop-color="#ED8211"/><stop offset=".46" stop-color="#B4530B"/><stop offset=".47" stop-color="#B2510B"/><stop offset=".5" stop-color="#C25E0D"/><stop offset=".51" stop-color="#FF9113"/><stop offset=".52" stop-color="#C6620D"/><stop offset=".53" stop-color="#BB580C"/><stop offset=".54" stop-color="#B4530B"/><stop offset=".55" stop-color="#B2510B"/><stop offset=".57" stop-color="#F98C12"/><stop offset=".58" stop-color="#A84E06"/><stop offset=".59" stop-color="#8C3801"/><stop offset=".6" stop-color="#853200"/><stop offset=".61" stop-color="#833100"/><stop offset=".62" stop-color="#C2610A"/><stop offset=".63" stop-color="#C6690F"/><stop offset=".64" stop-color="#612308"/><stop offset=".65" stop-color="#581D07"/><stop offset=".67" stop-color="#5A1F07"/><stop offset=".68" stop-color="#93470B"/><stop offset=".69" stop-color="#CD6E0F"/><stop offset=".7" stop-color="#7B360A"/><stop offset=".71" stop-color="#5F2208"/><stop offset=".72" stop-color="#581D07"/><stop offset=".74" stop-color="#783409"/><stop offset=".75" stop-color="#E07C11"/><stop offset=".76" stop-color="#CB6D0F"/><stop offset=".77" stop-color="#893F0B"/><stop offset=".78" stop-color="#622508"/><stop offset=".79" stop-color="#591E07"/><stop offset=".8" stop-color="#652708"/><stop offset=".81" stop-color="#B65F0E"/><stop offset=".82" stop-color="#8F3B04"/><stop offset=".83" stop-color="#742700"/><stop offset=".84" stop-color="#7D3C00"/><stop offset=".86" stop-color="#FF9113"/><stop offset=".87" stop-color="#924208"/><stop offset=".88" stop-color="#8F4008"/><stop offset=".89" stop-color="#984609"/><stop offset=".9" stop-color="#F28812"/><stop offset=".91" stop-color="#914208"/><stop offset=".92" stop-color="#8F4008"/><stop offset=".93" stop-color="#8F4008"/><stop offset=".94" stop-color="#AB540A"/><stop offset=".95" stop-color="#914208"/><stop offset="1" stop-color="#8F4008"/></linearGradient><linearGradient id="paint1_linear_1187_374" x1="17.363" y1="165.86" x2="86.563" y2="291.832" gradientUnits="userSpaceOnUse"><stop stop-color="#E89C02"/><stop offset=".06" stop-color="#EAA104"/><stop offset=".12" stop-color="#EFB00A"/><stop offset=".2" stop-color="#F7C814"/><stop offset=".26" stop-color="#FFE21E"/><stop offset=".27" stop-color="#FDDC1B"/><stop offset=".31" stop-color="#F4C010"/><stop offset=".35" stop-color="#EDAC08"/><stop offset=".4" stop-color="#E9A004"/><stop offset=".44" stop-color="#E89C02"/><stop offset=".6" stop-color="#F39502"/><stop offset=".66" stop-color="#BB6B03"/><stop offset=".74" stop-color="#7E3C04"/><stop offset=".76" stop-color="#823F04"/><stop offset=".78" stop-color="#8D4A04"/><stop offset=".8" stop-color="#A05B03"/><stop offset=".82" stop-color="#C17903"/><stop offset=".92" stop-color="#E89C02"/><stop offset="1" stop-color="#C77901"/></linearGradient><linearGradient id="paint2_linear_1187_374" x1="2.501" y1="180.507" x2="79.276" y2="237.257" gradientUnits="userSpaceOnUse"><stop stop-color="#FB9325"/><stop offset=".08" stop-color="#FFB42B"/><stop offset=".18" stop-color="#F18F27"/><stop offset=".2" stop-color="#D67624"/><stop offset=".22" stop-color="#C36422"/><stop offset=".24" stop-color="#B85921"/><stop offset=".26" stop-color="#B45621"/><stop offset=".36" stop-color="#EA932A"/><stop offset=".4" stop-color="#FFAC2D"/><stop offset=".56" stop-color="#FFB42B"/><stop offset=".6" stop-color="#FFB82C"/><stop offset=".64" stop-color="#FFC430"/><stop offset=".69" stop-color="#FFD836"/><stop offset=".73" stop-color="#FFF43F"/><stop offset=".74" stop-color="#FFFD42"/><stop offset=".81" stop-color="#FFE039"/><stop offset=".88" stop-color="#FFC831"/><stop offset=".95" stop-color="#FFB92D"/><stop offset="1" stop-color="#FFB42B"/></linearGradient><linearGradient id="paint3_linear_1187_374" x1="2.543" y1="180.571" x2="79.194" y2="237.307" gradientUnits="userSpaceOnUse"><stop stop-color="#AA560A"/><stop offset=".05" stop-color="#AF5A0B"/><stop offset=".11" stop-color="#BE640C"/><stop offset=".18" stop-color="#D6750F"/><stop offset=".25" stop-color="#F88C12"/><stop offset=".26" stop-color="#FF9113"/><stop offset=".28" stop-color="#EA8211"/><stop offset=".32" stop-color="#CE6F0E"/><stop offset=".36" stop-color="#BA610C"/><stop offset=".4" stop-color="#AE590A"/><stop offset=".44" stop-color="#AA560A"/><stop offset=".6" stop-color="#B2510B"/><stop offset=".64" stop-color="#933F0A"/><stop offset=".74" stop-color="#561C07"/><stop offset=".76" stop-color="#5A1F07"/><stop offset=".78" stop-color="#652608"/><stop offset=".81" stop-color="#783308"/><stop offset=".82" stop-color="#8B4009"/><stop offset=".92" stop-color="#AA560A"/><stop offset="1" stop-color="#8F4008"/></linearGradient><linearGradient id="paint4_linear_1187_374" x1="2.59" y1="180.197" x2="79.834" y2="236.668" gradientUnits="userSpaceOnUse"><stop stop-color="#AA560A"/><stop offset=".05" stop-color="#AF5A0B"/><stop offset=".11" stop-color="#BE640C"/><stop offset=".18" stop-color="#D6750F"/><stop offset=".25" stop-color="#F88C12"/><stop offset=".26" stop-color="#FF9113"/><stop offset=".28" stop-color="#EA8211"/><stop offset=".32" stop-color="#CE6F0E"/><stop offset=".36" stop-color="#BA610C"/><stop offset=".4" stop-color="#AE590A"/><stop offset=".44" stop-color="#AA560A"/><stop offset=".6" stop-color="#B2510B"/><stop offset=".64" stop-color="#933F0A"/><stop offset=".74" stop-color="#561C07"/><stop offset=".76" stop-color="#5A1F07"/><stop offset=".78" stop-color="#652608"/><stop offset=".81" stop-color="#783308"/><stop offset=".82" stop-color="#8B4009"/><stop offset=".92" stop-color="#AA560A"/><stop offset="1" stop-color="#8F4008"/></linearGradient><linearGradient id="paint5_linear_1187_374" x1="30.524" y1="215.802" x2="65.2" y2="193.325" gradientUnits="userSpaceOnUse"><stop stop-color="#FFC601"/><stop offset=".06" stop-color="#FFCB03"/><stop offset=".14" stop-color="#FFDA09"/><stop offset=".22" stop-color="#FFF212"/><stop offset=".26" stop-color="#FFFF17"/><stop offset=".3" stop-color="#FFEA0F"/><stop offset=".34" stop-color="#FFD607"/><stop offset=".39" stop-color="#FFCA03"/><stop offset=".44" stop-color="#FFC601"/><stop offset=".6" stop-color="#FFBA01"/><stop offset=".67" stop-color="#C87602"/><stop offset=".74" stop-color="#963802"/><stop offset=".75" stop-color="#9A3B02"/><stop offset=".77" stop-color="#A54402"/><stop offset=".79" stop-color="#B85402"/><stop offset=".8" stop-color="#D36A01"/><stop offset=".82" stop-color="#FF8E01"/><stop offset=".92" stop-color="#FFC601"/><stop offset="1" stop-color="#FF8E00"/></linearGradient><linearGradient id="paint6_linear_1187_374" x1="70.716" y1="3.089" x2="92.345" y2="162.953" gradientUnits="userSpaceOnUse"><stop stop-color="#AA560A"/><stop offset=".02" stop-color="#AA560A"/><stop offset=".03" stop-color="#C2660D"/><stop offset=".04" stop-color="#CC6E0D"/><stop offset=".05" stop-color="#BA610B"/><stop offset=".06" stop-color="#BA610B"/><stop offset=".07" stop-color="#CF700E"/><stop offset=".08" stop-color="#AC570A"/><stop offset=".1" stop-color="#BE640C"/><stop offset=".11" stop-color="#C0640C"/><stop offset=".12" stop-color="#AE560A"/><stop offset=".14" stop-color="#BE620C"/><stop offset=".15" stop-color="#C5670D"/><stop offset=".16" stop-color="#AC550A"/><stop offset=".19" stop-color="#AC550A"/><stop offset=".21" stop-color="#C1640C"/><stop offset=".22" stop-color="#AC550A"/><stop offset=".25" stop-color="#AC550A"/><stop offset=".27" stop-color="#C6620D"/><stop offset=".28" stop-color="#B4530B"/><stop offset=".29" stop-color="#B2510B"/><stop offset=".32" stop-color="#C25E0D"/><stop offset=".33" stop-color="#C6620D"/><stop offset=".34" stop-color="#B4530B"/><stop offset=".35" stop-color="#B2510B"/><stop offset=".37" stop-color="#B2510B"/><stop offset=".38" stop-color="#C25E0D"/><stop offset=".39" stop-color="#C6620D"/><stop offset=".4" stop-color="#B4530B"/><stop offset=".41" stop-color="#B2510B"/><stop offset=".44" stop-color="#C25E0D"/><stop offset=".45" stop-color="#ED8211"/><stop offset=".46" stop-color="#B4530B"/><stop offset=".47" stop-color="#B2510B"/><stop offset=".5" stop-color="#C25E0D"/><stop offset=".51" stop-color="#FF9113"/><stop offset=".52" stop-color="#C6620D"/><stop offset=".53" stop-color="#BB580C"/><stop offset=".54" stop-color="#B4530B"/><stop offset=".55" stop-color="#B2510B"/><stop offset=".57" stop-color="#F98C12"/><stop offset=".58" stop-color="#A84E06"/><stop offset=".59" stop-color="#8C3801"/><stop offset=".6" stop-color="#853200"/><stop offset=".61" stop-color="#833100"/><stop offset=".62" stop-color="#C2610A"/><stop offset=".63" stop-color="#C6690F"/><stop offset=".64" stop-color="#612308"/><stop offset=".65" stop-color="#581D07"/><stop offset=".67" stop-color="#5A1F07"/><stop offset=".68" stop-color="#93470B"/><stop offset=".69" stop-color="#CD6E0F"/><stop offset=".7" stop-color="#7B360A"/><stop offset=".71" stop-color="#5F2208"/><stop offset=".72" stop-color="#581D07"/><stop offset=".74" stop-color="#783409"/><stop offset=".75" stop-color="#E07C11"/><stop offset=".76" stop-color="#CB6D0F"/><stop offset=".77" stop-color="#893F0B"/><stop offset=".78" stop-color="#622508"/><stop offset=".79" stop-color="#591E07"/><stop offset=".8" stop-color="#652708"/><stop offset=".81" stop-color="#B65F0E"/><stop offset=".82" stop-color="#8F3B04"/><stop offset=".83" stop-color="#742700"/><stop offset=".84" stop-color="#7D3C00"/><stop offset=".86" stop-color="#FF9113"/><stop offset=".87" stop-color="#924208"/><stop offset=".88" stop-color="#8F4008"/><stop offset=".89" stop-color="#984609"/><stop offset=".9" stop-color="#F28812"/><stop offset=".91" stop-color="#914208"/><stop offset=".92" stop-color="#8F4008"/><stop offset=".93" stop-color="#8F4008"/><stop offset=".94" stop-color="#AB540A"/><stop offset=".95" stop-color="#914208"/><stop offset="1" stop-color="#8F4008"/></linearGradient><linearGradient id="paint7_linear_1187_374" x1="118.226" y1="1.191" x2="82.466" y2="225.212" gradientUnits="userSpaceOnUse"><stop stop-color="#E89C02"/><stop offset=".06" stop-color="#EAA104"/><stop offset=".12" stop-color="#EFB00A"/><stop offset=".2" stop-color="#F7C814"/><stop offset=".26" stop-color="#FFE21E"/><stop offset=".27" stop-color="#FDDC1B"/><stop offset=".31" stop-color="#F4C010"/><stop offset=".35" stop-color="#EDAC08"/><stop offset=".4" stop-color="#E9A004"/><stop offset=".44" stop-color="#E89C02"/><stop offset=".6" stop-color="#F39502"/><stop offset=".66" stop-color="#BB6B03"/><stop offset=".74" stop-color="#7E3C04"/><stop offset=".76" stop-color="#823F04"/><stop offset=".78" stop-color="#8D4A04"/><stop offset=".8" stop-color="#A05B03"/><stop offset=".82" stop-color="#C17903"/><stop offset=".92" stop-color="#E89C02"/><stop offset="1" stop-color="#C77901"/></linearGradient><linearGradient id="paint8_linear_1187_374" x1="71.37" y1="3.758" x2="93.693" y2="156.344" gradientUnits="userSpaceOnUse"><stop stop-color="#FB9325"/><stop offset=".08" stop-color="#FFB42B"/><stop offset=".18" stop-color="#F18F27"/><stop offset=".2" stop-color="#D67624"/><stop offset=".22" stop-color="#C36422"/><stop offset=".24" stop-color="#B85921"/><stop offset=".26" stop-color="#B45621"/><stop offset=".36" stop-color="#EA932A"/><stop offset=".4" stop-color="#FFAC2D"/><stop offset=".56" stop-color="#FFB42B"/><stop offset=".6" stop-color="#FFB82C"/><stop offset=".64" stop-color="#FFC430"/><stop offset=".69" stop-color="#FFD836"/><stop offset=".73" stop-color="#FFF43F"/><stop offset=".74" stop-color="#FFFD42"/><stop offset=".81" stop-color="#FFE039"/><stop offset=".88" stop-color="#FFC831"/><stop offset=".95" stop-color="#FFB92D"/><stop offset="1" stop-color="#FFB42B"/></linearGradient><linearGradient id="paint9_linear_1187_374" x1="71.077" y1="3.585" x2="93.243" y2="156.215" gradientUnits="userSpaceOnUse"><stop stop-color="#AA560A"/><stop offset=".05" stop-color="#AF5A0B"/><stop offset=".11" stop-color="#BE640C"/><stop offset=".18" stop-color="#D6750F"/><stop offset=".25" stop-color="#F88C12"/><stop offset=".26" stop-color="#FF9113"/><stop offset=".28" stop-color="#EA8211"/><stop offset=".32" stop-color="#CE6F0E"/><stop offset=".36" stop-color="#BA610C"/><stop offset=".4" stop-color="#AE590A"/><stop offset=".44" stop-color="#AA560A"/><stop offset=".6" stop-color="#B2510B"/><stop offset=".64" stop-color="#933F0A"/><stop offset=".74" stop-color="#561C07"/><stop offset=".76" stop-color="#5A1F07"/><stop offset=".78" stop-color="#652608"/><stop offset=".81" stop-color="#783308"/><stop offset=".82" stop-color="#8B4009"/><stop offset=".92" stop-color="#AA560A"/><stop offset="1" stop-color="#8F4008"/></linearGradient><linearGradient id="paint10_linear_1187_374" x1="65.303" y1="3.757" x2="82.286" y2="156.655" gradientUnits="userSpaceOnUse"><stop stop-color="#AA560A"/><stop offset=".05" stop-color="#AF5A0B"/><stop offset=".11" stop-color="#BE640C"/><stop offset=".18" stop-color="#D6750F"/><stop offset=".25" stop-color="#F88C12"/><stop offset=".26" stop-color="#FF9113"/><stop offset=".28" stop-color="#EA8211"/><stop offset=".32" stop-color="#CE6F0E"/><stop offset=".36" stop-color="#BA610C"/><stop offset=".4" stop-color="#AE590A"/><stop offset=".44" stop-color="#AA560A"/><stop offset=".6" stop-color="#B2510B"/><stop offset=".64" stop-color="#933F0A"/><stop offset=".74" stop-color="#561C07"/><stop offset=".76" stop-color="#5A1F07"/><stop offset=".78" stop-color="#652608"/><stop offset=".81" stop-color="#783308"/><stop offset=".82" stop-color="#8B4009"/><stop offset=".92" stop-color="#AA560A"/><stop offset="1" stop-color="#8F4008"/></linearGradient><linearGradient id="paint11_linear_1187_374" x1="118.868" y1="81.954" x2="-.688" y2="52.676" gradientUnits="userSpaceOnUse"><stop stop-color="#FFC601"/><stop offset=".06" stop-color="#FFCB03"/><stop offset=".14" stop-color="#FFDA09"/><stop offset=".22" stop-color="#FFF212"/><stop offset=".26" stop-color="#FFFF17"/><stop offset=".3" stop-color="#FFEA0F"/><stop offset=".34" stop-color="#FFD607"/><stop offset=".39" stop-color="#FFCA03"/><stop offset=".44" stop-color="#FFC601"/><stop offset=".6" stop-color="#FFBA01"/><stop offset=".67" stop-color="#C87602"/><stop offset=".74" stop-color="#963802"/><stop offset=".75" stop-color="#9A3B02"/><stop offset=".77" stop-color="#A54402"/><stop offset=".79" stop-color="#B85402"/><stop offset=".8" stop-color="#D36A01"/><stop offset=".82" stop-color="#FF8E01"/><stop offset=".92" stop-color="#FFC601"/><stop offset="1" stop-color="#FF8E00"/></linearGradient><filter id="filter0_f_1187_374" x="0" y="177.365" width="76.408" height="70.371" filterUnits="userSpaceOnUse" color-interpolation-filters="sRGB"><feFlood flood-opacity="0" result="BackgroundImageFix"/><feBlend in="SourceGraphic" in2="BackgroundImageFix" result="shape"/><feGaussianBlur stdDeviation="1" result="effect1_foregroundBlur_1187_374"/></filter><filter id="filter1_f_1187_374" x="28.504" y="0" width="128.98" height="158.489" filterUnits="userSpaceOnUse" color-interpolation-filters="sRGB"><feFlood flood-opacity="0" result="BackgroundImageFix"/><feBlend in="SourceGraphic" in2="BackgroundImageFix" result="shape"/><feGaussianBlur stdDeviation="2" result="effect1_foregroundBlur_1187_374"/></filter></defs></svg>