<svg width="216" height="283" viewBox="0 0 216 283" fill="none" xmlns="http://www.w3.org/2000/svg"><path fill-rule="evenodd" clip-rule="evenodd" d="M162.418.826c20.344 3.226 38.021 16.267 46.991 34.665 3.018 6.19 4.587 11.12 5.682 17.857 1.212 7.454 1.212 130.864 0 138.318-2.421 14.891-9.556 27.668-21.097 37.78-10.841 9.499-23.762 14.621-38.782 15.374l-6.098.306-42.405 18.79c-23.324 10.335-42.718 18.919-43.099 19.075-.546.225-.693-3.744-.693-18.774v-19.058l-4.566-.38c-28.276-2.353-51.384-22.548-57.335-50.107-.952-4.407-1.014-8.865-1.014-72.165 0-75.385-.209-71.066 3.95-81.844 3.218-8.337 7.403-14.79 13.953-21.51C27.688 9.114 39.745 2.88 53.325.837 60.71-.272 155.425-.282 162.419.826zM54.525 17.476C35.644 21.03 20.789 35.85 17.228 54.687c-.764 4.04-.874 12.599-.874 67.821 0 55.235.11 63.78.875 67.822 3.316 17.533 16.626 31.848 33.972 36.537 3.468.937 6.413 1.191 16.29 1.404l12.056.261v14.317c0 9.176.199 14.318.554 14.318.305 0 14.96-6.393 32.567-14.207l32.012-14.208 7.76-.409c9.013-.476 14.412-1.715 20.308-4.659 11.052-5.521 18.893-13.961 23.35-25.137 3.224-8.085 3.182-7.09 3.182-76.039 0-55.222-.11-63.782-.874-67.822-3.485-18.436-17.895-33.142-36.265-37.01-4.32-.91-8.802-.996-53.847-1.032-42.524-.034-49.758.079-53.77.834zm61.607 88.44v38.988h-16.63V66.929h16.63v38.987zm-4.515 50.057c3.824 1.615 7.272 6.327 7.278 9.945.012 7.109-6.576 12.438-13.544 10.955-5.217-1.11-9.287-6.957-8.342-11.985 1.045-5.556 4.832-9.022 10.165-9.301 1.726-.091 3.725.082 4.443.386z" fill="#393838"/></svg>