<svg width="137" height="167" viewBox="0 0 137 167" fill="none" xmlns="http://www.w3.org/2000/svg"><g filter="url(#filter0_f_1124_152)"><path d="M24.637 133.048c-2.401-16.807 2.561-39.737 14.952-62.005 12.39-22.267 29.099-38.704 44.616-45.596l13.67-7.813 14.134 7.944c17.497 11.738 16.238 48.515-3.257 83.751-19.494 35.235-50.322 55.98-69.504 47.115l-15.057-8.25.446-15.146z" fill="url(#paint0_linear_1124_152)"/><path d="M25.968 147.387c18.66 10.327 49.71-10.184 69.421-45.795 19.711-35.611 20.591-72.754 2.035-83.098-18.556-10.344-49.699 10.253-69.4 45.834-19.701 35.582-20.6 72.784-2.056 83.059z" fill="url(#paint1_linear_1124_152)"/><path d="M29.2 150.498c20.03 6.257 49.098-14.216 67.672-47.818 9.614-17.323 15.06-35.702 15.317-51.662.274-16.333-4.914-28.264-14.572-33.612a22.912 22.912 0 00-4.213-1.809c-20.03-6.256-49.098 14.217-67.672 47.819-20.083 36.119-20.416 74.401-.805 85.255a22.95 22.95 0 004.273 1.827zM92.47 18.589c1.276.4 2.508.928 3.678 1.576 8.611 4.758 13.16 15.686 12.967 30.812-.372 15.383-5.623 33.297-14.997 50.218-17.808 32.2-45.375 52.124-63.984 46.311a19.847 19.847 0 01-3.708-1.585c-18.113-10.025-17.219-46.424 1.98-81.079 17.857-32.2 45.365-52.094 64.064-46.253z" fill="url(#paint2_linear_1124_152)"/><path d="M35.446 137.279c15.976 4.99 39.29-11.567 54.213-38.527 16.116-29.1 16.489-59.833.81-68.507a18.087 18.087 0 00-3.388-1.452c-15.946-4.981-39.275 11.571-54.159 38.51-16.156 29.12-16.529 59.854-.88 68.519 1.082.6 2.222 1.088 3.404 1.457zm50.73-105.485c.974.307 1.915.71 2.809 1.206 14.136 7.83 13.182 36.642-2.011 64.256-13.96 25.193-36.189 41.531-50.534 37.05a15.093 15.093 0 01-2.809-1.206c-14.136-7.831-13.181-36.642 2.012-64.257 13.964-25.257 36.173-41.535 50.533-37.05z" fill="url(#paint3_linear_1124_152)"/><path d="M56.391 62.616l10.22 5.654 1.456-2.615a29.352 29.352 0 013.295-5.291 1.707 1.707 0 013.016 1.434 9.998 9.998 0 01-1.369 3.595 11.55 11.55 0 01-3.837 4.663 48.142 48.142 0 01-8.717 2.728 52.9 52.9 0 00-8.386 2.618 19.45 19.45 0 00-5.418 4.152 38.52 38.52 0 00-5.861 8.25c-3.106 5.597-4.668 10.495-4.688 14.692a12.946 12.946 0 004.598 10.302l-3.283 5.936 4.704 2.602 3.393-6.132a12.531 12.531 0 009.851-.896c3.596-1.7 7.338-6.059 11.227-13.075l1.716-3.076-10.215-5.67-2.142 3.862a63.031 63.031 0 01-4.696 7.728c-.78.921-1.574 1.15-2.386.699a1.847 1.847 0 01-.938-1.935 8.841 8.841 0 011.243-3.453 47.654 47.654 0 014.683-7.321 12.02 12.02 0 016.146-3.17 87.63 87.63 0 0010.057-3.13 22.162 22.162 0 006.287-4.358 32.722 32.722 0 006.047-8.06c2.622-4.714 3.797-8.895 3.554-12.534a12.71 12.71 0 00-5.092-9.241l2.774-5.045-4.684-2.612-2.79 5.04a11.518 11.518 0 00-9.795.978 24.353 24.353 0 00-8.412 9.637c-.37.657-.885 1.678-1.558 3.044z" fill="url(#paint4_linear_1124_152)"/><path d="M52.565 60.502l10.264 5.669 1.442-2.62a29.042 29.042 0 013.385-5.264 1.708 1.708 0 012.226-.454 1.724 1.724 0 01.79 1.889 10.343 10.343 0 01-1.37 3.594 11.706 11.706 0 01-3.837 4.663 49.303 49.303 0 01-8.716 2.728 52.91 52.91 0 00-8.387 2.618 19.26 19.26 0 00-5.473 4.119 38.238 38.238 0 00-5.865 8.265c-3.116 5.594-4.684 10.49-4.703 14.687a13.01 13.01 0 004.612 10.306l-3.297 5.932 4.703 2.602 3.408-6.127a12.43 12.43 0 009.837-.9c3.616-1.695 7.355-6.043 11.246-13.087l1.701-3.08-10.219-5.655-2.127 3.867a65.517 65.517 0 01-4.696 7.727c-.776.907-1.574 1.151-2.386.7a1.847 1.847 0 01-.939-1.935 8.573 8.573 0 011.243-3.454 47.918 47.918 0 014.689-7.335 11.894 11.894 0 016.041-3.154 91.802 91.802 0 0010.043-3.135 21.563 21.563 0 006.286-4.357 32.91 32.91 0 006.068-8.07c2.554-4.675 3.737-8.848 3.549-12.52a12.694 12.694 0 00-5.039-9.257l2.79-5.04-4.704-2.601-2.79 5.04a11.614 11.614 0 00-9.79.963 24.651 24.651 0 00-8.501 9.659c-.3.645-.811 1.65-1.484 3.017z" fill="url(#paint5_linear_1124_152)"/><path d="M24.954 54.505C1.76 92.178 2.45 134.719 26.494 149.522c24.044 14.803 62.339-3.736 85.533-41.409 23.194-37.672 22.504-80.213-1.54-95.016-24.044-14.803-62.339 3.736-85.533 41.408z" fill="#444445" fill-opacity=".3"/></g><defs><linearGradient id="paint0_linear_1124_152" x1="46.212" y1="7.089" x2="67.841" y2="166.951" gradientUnits="userSpaceOnUse"><stop stop-color="#AA560A"/><stop offset=".02" stop-color="#AA560A"/><stop offset=".03" stop-color="#C2660D"/><stop offset=".04" stop-color="#CC6E0D"/><stop offset=".05" stop-color="#BA610B"/><stop offset=".06" stop-color="#BA610B"/><stop offset=".07" stop-color="#CF700E"/><stop offset=".08" stop-color="#AC570A"/><stop offset=".1" stop-color="#BE640C"/><stop offset=".11" stop-color="#C0640C"/><stop offset=".12" stop-color="#AE560A"/><stop offset=".14" stop-color="#BE620C"/><stop offset=".15" stop-color="#C5670D"/><stop offset=".16" stop-color="#AC550A"/><stop offset=".19" stop-color="#AC550A"/><stop offset=".21" stop-color="#C1640C"/><stop offset=".22" stop-color="#AC550A"/><stop offset=".25" stop-color="#AC550A"/><stop offset=".27" stop-color="#C6620D"/><stop offset=".28" stop-color="#B4530B"/><stop offset=".29" stop-color="#B2510B"/><stop offset=".32" stop-color="#C25E0D"/><stop offset=".33" stop-color="#C6620D"/><stop offset=".34" stop-color="#B4530B"/><stop offset=".35" stop-color="#B2510B"/><stop offset=".37" stop-color="#B2510B"/><stop offset=".38" stop-color="#C25E0D"/><stop offset=".39" stop-color="#C6620D"/><stop offset=".4" stop-color="#B4530B"/><stop offset=".41" stop-color="#B2510B"/><stop offset=".44" stop-color="#C25E0D"/><stop offset=".45" stop-color="#ED8211"/><stop offset=".46" stop-color="#B4530B"/><stop offset=".47" stop-color="#B2510B"/><stop offset=".5" stop-color="#C25E0D"/><stop offset=".51" stop-color="#FF9113"/><stop offset=".52" stop-color="#C6620D"/><stop offset=".53" stop-color="#BB580C"/><stop offset=".54" stop-color="#B4530B"/><stop offset=".55" stop-color="#B2510B"/><stop offset=".57" stop-color="#F98C12"/><stop offset=".58" stop-color="#A84E06"/><stop offset=".59" stop-color="#8C3801"/><stop offset=".6" stop-color="#853200"/><stop offset=".61" stop-color="#833100"/><stop offset=".62" stop-color="#C2610A"/><stop offset=".63" stop-color="#C6690F"/><stop offset=".64" stop-color="#612308"/><stop offset=".65" stop-color="#581D07"/><stop offset=".67" stop-color="#5A1F07"/><stop offset=".68" stop-color="#93470B"/><stop offset=".69" stop-color="#CD6E0F"/><stop offset=".7" stop-color="#7B360A"/><stop offset=".71" stop-color="#5F2208"/><stop offset=".72" stop-color="#581D07"/><stop offset=".74" stop-color="#783409"/><stop offset=".75" stop-color="#E07C11"/><stop offset=".76" stop-color="#CB6D0F"/><stop offset=".77" stop-color="#893F0B"/><stop offset=".78" stop-color="#622508"/><stop offset=".79" stop-color="#591E07"/><stop offset=".8" stop-color="#652708"/><stop offset=".81" stop-color="#B65F0E"/><stop offset=".82" stop-color="#8F3B04"/><stop offset=".83" stop-color="#742700"/><stop offset=".84" stop-color="#7D3C00"/><stop offset=".86" stop-color="#FF9113"/><stop offset=".87" stop-color="#924208"/><stop offset=".88" stop-color="#8F4008"/><stop offset=".89" stop-color="#984609"/><stop offset=".9" stop-color="#F28812"/><stop offset=".91" stop-color="#914208"/><stop offset=".92" stop-color="#8F4008"/><stop offset=".93" stop-color="#8F4008"/><stop offset=".94" stop-color="#AB540A"/><stop offset=".95" stop-color="#914208"/><stop offset="1" stop-color="#8F4008"/></linearGradient><linearGradient id="paint1_linear_1124_152" x1="93.722" y1="5.191" x2="57.963" y2="229.21" gradientUnits="userSpaceOnUse"><stop stop-color="#E89C02"/><stop offset=".06" stop-color="#EAA104"/><stop offset=".12" stop-color="#EFB00A"/><stop offset=".2" stop-color="#F7C814"/><stop offset=".26" stop-color="#FFE21E"/><stop offset=".27" stop-color="#FDDC1B"/><stop offset=".31" stop-color="#F4C010"/><stop offset=".35" stop-color="#EDAC08"/><stop offset=".4" stop-color="#E9A004"/><stop offset=".44" stop-color="#E89C02"/><stop offset=".6" stop-color="#F39502"/><stop offset=".66" stop-color="#BB6B03"/><stop offset=".74" stop-color="#7E3C04"/><stop offset=".76" stop-color="#823F04"/><stop offset=".78" stop-color="#8D4A04"/><stop offset=".8" stop-color="#A05B03"/><stop offset=".82" stop-color="#C17903"/><stop offset=".92" stop-color="#E89C02"/><stop offset="1" stop-color="#C77901"/></linearGradient><linearGradient id="paint2_linear_1124_152" x1="46.866" y1="7.758" x2="69.189" y2="160.343" gradientUnits="userSpaceOnUse"><stop stop-color="#FB9325"/><stop offset=".08" stop-color="#FFB42B"/><stop offset=".18" stop-color="#F18F27"/><stop offset=".2" stop-color="#D67624"/><stop offset=".22" stop-color="#C36422"/><stop offset=".24" stop-color="#B85921"/><stop offset=".26" stop-color="#B45621"/><stop offset=".36" stop-color="#EA932A"/><stop offset=".4" stop-color="#FFAC2D"/><stop offset=".56" stop-color="#FFB42B"/><stop offset=".6" stop-color="#FFB82C"/><stop offset=".64" stop-color="#FFC430"/><stop offset=".69" stop-color="#FFD836"/><stop offset=".73" stop-color="#FFF43F"/><stop offset=".74" stop-color="#FFFD42"/><stop offset=".81" stop-color="#FFE039"/><stop offset=".88" stop-color="#FFC831"/><stop offset=".95" stop-color="#FFB92D"/><stop offset="1" stop-color="#FFB42B"/></linearGradient><linearGradient id="paint3_linear_1124_152" x1="46.573" y1="7.585" x2="68.738" y2="160.213" gradientUnits="userSpaceOnUse"><stop stop-color="#AA560A"/><stop offset=".05" stop-color="#AF5A0B"/><stop offset=".11" stop-color="#BE640C"/><stop offset=".18" stop-color="#D6750F"/><stop offset=".25" stop-color="#F88C12"/><stop offset=".26" stop-color="#FF9113"/><stop offset=".28" stop-color="#EA8211"/><stop offset=".32" stop-color="#CE6F0E"/><stop offset=".36" stop-color="#BA610C"/><stop offset=".4" stop-color="#AE590A"/><stop offset=".44" stop-color="#AA560A"/><stop offset=".6" stop-color="#B2510B"/><stop offset=".64" stop-color="#933F0A"/><stop offset=".74" stop-color="#561C07"/><stop offset=".76" stop-color="#5A1F07"/><stop offset=".78" stop-color="#652608"/><stop offset=".81" stop-color="#783308"/><stop offset=".82" stop-color="#8B4009"/><stop offset=".92" stop-color="#AA560A"/><stop offset="1" stop-color="#8F4008"/></linearGradient><linearGradient id="paint4_linear_1124_152" x1="40.799" y1="7.757" x2="57.782" y2="160.654" gradientUnits="userSpaceOnUse"><stop stop-color="#AA560A"/><stop offset=".05" stop-color="#AF5A0B"/><stop offset=".11" stop-color="#BE640C"/><stop offset=".18" stop-color="#D6750F"/><stop offset=".25" stop-color="#F88C12"/><stop offset=".26" stop-color="#FF9113"/><stop offset=".28" stop-color="#EA8211"/><stop offset=".32" stop-color="#CE6F0E"/><stop offset=".36" stop-color="#BA610C"/><stop offset=".4" stop-color="#AE590A"/><stop offset=".44" stop-color="#AA560A"/><stop offset=".6" stop-color="#B2510B"/><stop offset=".64" stop-color="#933F0A"/><stop offset=".74" stop-color="#561C07"/><stop offset=".76" stop-color="#5A1F07"/><stop offset=".78" stop-color="#652608"/><stop offset=".81" stop-color="#783308"/><stop offset=".82" stop-color="#8B4009"/><stop offset=".92" stop-color="#AA560A"/><stop offset="1" stop-color="#8F4008"/></linearGradient><linearGradient id="paint5_linear_1124_152" x1="94.364" y1="85.953" x2="-25.192" y2="56.675" gradientUnits="userSpaceOnUse"><stop stop-color="#FFC601"/><stop offset=".06" stop-color="#FFCB03"/><stop offset=".14" stop-color="#FFDA09"/><stop offset=".22" stop-color="#FFF212"/><stop offset=".26" stop-color="#FFFF17"/><stop offset=".3" stop-color="#FFEA0F"/><stop offset=".34" stop-color="#FFD607"/><stop offset=".39" stop-color="#FFCA03"/><stop offset=".44" stop-color="#FFC601"/><stop offset=".6" stop-color="#FFBA01"/><stop offset=".67" stop-color="#C87602"/><stop offset=".74" stop-color="#963802"/><stop offset=".75" stop-color="#9A3B02"/><stop offset=".77" stop-color="#A54402"/><stop offset=".79" stop-color="#B85402"/><stop offset=".8" stop-color="#D36A01"/><stop offset=".82" stop-color="#FF8E01"/><stop offset=".92" stop-color="#FFC601"/><stop offset="1" stop-color="#FF8E00"/></linearGradient><filter id="filter0_f_1124_152" x="0" y="0" width="136.98" height="166.488" filterUnits="userSpaceOnUse" color-interpolation-filters="sRGB"><feFlood flood-opacity="0" result="BackgroundImageFix"/><feBlend in="SourceGraphic" in2="BackgroundImageFix" result="shape"/><feGaussianBlur stdDeviation="4" result="effect1_foregroundBlur_1124_152"/></filter></defs></svg>