<svg width="271" height="273" viewBox="0 0 271 273" fill="none" xmlns="http://www.w3.org/2000/svg"><g filter="url(#filter0_f_1124_149)"><path d="M243.939 215.482c5.225-22.587-.296-50.483-16.949-74.945-16.653-24.462-40.643-39.841-63.577-43.294l-26.806-.729-15.166 10.439c-28.052 21.196-29.727 68.663-3.21 107.496 26.516 38.833 71.233 54.75 101.291 36.486l15.245-10.244 9.172-25.209z" fill="url(#paint0_linear_1124_149)"/><path d="M232.797 241.012c-29.257 19.872-74.774 3.978-101.642-35.475-26.868-39.453-24.952-87.565 4.316-107.43 29.267-19.867 74.751-3.992 101.641 35.474 26.891 39.466 24.941 87.559-4.315 107.431z" fill="url(#paint1_linear_1124_149)"/><path d="M164.573 239.584a108.884 108.884 0 01-34.678-32.824c-13.119-19.261-19.816-41.187-18.779-61.884 1.036-20.698 9.686-37.718 24.398-47.709 18.964-12.88 44.936-12.046 69.461 2.237a108.871 108.871 0 0134.667 32.818c27.163 39.891 24.652 89.05-5.607 109.599-18.964 12.881-44.936 12.046-69.462-2.237zm39.113-137.966c-23.65-13.773-48.602-14.651-66.72-2.33-14.039 9.523-22.312 25.769-23.29 45.73-.978 19.96 5.524 41.505 18.333 60.304a106.114 106.114 0 0033.836 32.053c23.649 13.772 48.59 14.645 66.72 2.33 29.143-19.805 31.326-67.332 4.957-106.035a106.122 106.122 0 00-33.836-32.052z" fill="url(#paint2_linear_1124_149)"/><path d="M169.285 225.652a88.104 88.104 0 01-28.065-26.586c-10.532-15.443-15.927-33.052-15.231-49.545.697-16.493 7.543-30.161 19.223-38.108 14.958-10.159 35.524-9.448 55.027 1.91a88.09 88.09 0 0128.094 26.589c10.53 15.47 15.964 33.013 15.242 49.551-.722 16.537-7.549 30.172-19.23 38.118-14.98 10.146-35.557 9.429-55.06-1.929zm29.676-110.109c-18.627-10.847-38.173-11.602-52.285-2.003-11.008 7.479-17.432 20.296-18.069 36.127-.637 15.83 4.551 32.978 14.793 48a85.513 85.513 0 0027.23 25.804c18.627 10.847 38.184 11.608 52.285 2.003 11.008-7.48 17.438-20.307 18.069-36.127.631-15.819-4.562-32.985-14.808-47.949a85.572 85.572 0 00-27.215-25.855z" fill="url(#paint3_linear_1124_149)"/><path d="M194.02 141.214l-16.063 10.909-1.978-2.901a25.6 25.6 0 00-4.687-5.694 2.776 2.776 0 00-3.352.198 2.905 2.905 0 00-1.341 2.761 8.872 8.872 0 001.723 4.206c1.877 2.743 3.691 4.319 5.443 4.726 1.72.438 6.08.576 13.054.531a80.132 80.132 0 0112.591.485 20.43 20.43 0 017.888 3.511 32.757 32.757 0 018.18 8.722c4.276 6.255 6.226 12.085 5.851 17.489-.376 5.404-3.017 10.408-7.925 15.011l4.481 6.582-7.381 5.026-4.634-6.805a22.446 22.446 0 01-14.931 2.259c-5.376-.966-10.7-5.337-15.972-13.111l-2.405-3.417 16.1-10.946 2.933 4.243c3.198 4.708 5.34 7.556 6.463 8.432a2.735 2.735 0 003.512.089 3.321 3.321 0 001.65-2.834 7.788 7.788 0 00-1.611-4.066 40.263 40.263 0 00-6.491-7.9c-1.651-1.347-4.626-2.017-8.925-2.011a136.925 136.925 0 01-14.991-.622 23.39 23.39 0 01-9.105-3.538 28.468 28.468 0 01-8.496-8.357c-3.559-5.225-4.995-10.247-4.308-15.064.687-4.818 3.522-9.422 8.505-13.814l-3.874-5.561 7.381-5.026 3.803 5.58c5.441-2.687 10.376-3.385 14.832-2.139 4.456 1.246 8.46 4.467 11.974 9.626.516.745 1.209 1.875 2.106 3.42z" fill="url(#paint4_linear_1124_149)"/><path d="M200.036 137.129l-16.074 10.902-1.967-2.894a25.104 25.104 0 00-4.687-5.694 2.746 2.746 0 00-3.352.197 2.88 2.88 0 00-1.368 2.731 8.879 8.879 0 001.77 4.203c1.881 2.736 3.706 4.293 5.475 4.671 1.77.378 6.121.555 13.054.531 4.191-.17 8.39-.005 12.556.494a20.272 20.272 0 017.888 3.511 32.49 32.49 0 018.086 8.756c4.239 6.234 6.189 12.063 5.85 17.489-.338 5.426-2.978 10.426-7.918 15l4.481 6.582-7.387 5.037-4.634-6.805a22.447 22.447 0 01-14.92 2.266c-5.376-.967-10.698-5.341-15.966-13.122l-2.326-3.4 16.081-10.914 2.914 4.276c3.197 4.708 5.352 7.519 6.463 8.433a2.718 2.718 0 003.582.07 3.284 3.284 0 001.643-2.822 7.787 7.787 0 00-1.618-4.13 39.69 39.69 0 00-6.491-7.901c-1.65-1.346-4.626-2.017-8.925-2.011a136.587 136.587 0 01-15.028-.583 23.61 23.61 0 01-9.105-3.539 28.562 28.562 0 01-8.496-8.357c-3.547-5.228-4.978-10.251-4.29-15.068.687-4.818 3.52-9.419 8.498-13.803l-3.803-5.58 7.387-5.036 3.797 5.591c5.434-2.686 10.378-3.399 14.831-2.14 4.454 1.26 8.445 4.468 11.974 9.627.435.757 1.128 1.887 2.025 3.432z" fill="url(#paint5_linear_1124_149)"/><path d="M241.522 130.807c27.781 42.913 21.643 96.254-13.709 119.14-35.352 22.886-86.532 6.651-114.312-36.262-27.781-42.914-21.643-96.255 13.709-119.14 35.352-22.887 86.531-6.651 114.312 36.262z" fill="#444445" fill-opacity=".3"/></g><g filter="url(#filter1_f_1124_149)"><path d="M52.522 44.266C38.658 31.88 13.306 6.034 13.306 6.034l-8.04 9.101c-2.487 4.44 12.761 23.458 34.758 43.105 21.997 19.647 42.552 32.694 46.773 29.723l8.115-8.973s-28.528-22.293-42.39-34.724z" fill="url(#paint6_linear_1124_149)"/><path d="M94.007 78.31c-3.355 3.74-24.038-9.256-46.177-29.035-22.139-19.778-37.386-38.82-34.017-42.603 3.369-3.784 24.038 9.256 46.2 29.036 22.162 19.78 37.362 38.853 33.994 42.603z" fill="url(#paint7_linear_1124_149)"/><path d="M91.895 80.07c-7.07-.326-25.46-12.556-44.728-29.778C30.749 35.626 8.17 11.752 13.271 6.032a3.66 3.66 0 013.047-.998c7.071.325 25.461 12.555 44.728 29.777A234.846 234.846 0 0187.65 62.218c10.47 13.254 8.066 15.91 7.305 16.82a3.692 3.692 0 01-3.06 1.031zM16.214 7.305a1.701 1.701 0 00-1.257.284c-2.261 2.525 9.47 19.344 33.724 41.053 21.087 18.831 37.76 28.944 43.317 29.2a1.634 1.634 0 001.256-.284c.662-.732-.03-4.555-7.35-13.862a233.675 233.675 0 00-26.373-27.191C38.444 17.674 21.78 7.562 16.214 7.306z" fill="url(#paint8_linear_1124_149)"/><path d="M84.37 72.779c-5.694-.262-20.408-10.046-35.903-23.941-11.412-10.144-31.67-30.645-27.208-35.608a3.099 3.099 0 012.586-.894c5.693.261 20.416 10.103 35.903 23.94 11.366 10.143 31.68 30.646 27.206 35.631a3.123 3.123 0 01-2.584.872zM23.74 14.596a1.21 1.21 0 00-.782.135c-1.396 1.564 6.88 14.41 27.035 32.413 16.692 14.918 30.222 23.167 34.48 23.363.501.023.734-.069.782-.135 1.395-1.552-6.88-14.41-27.035-32.413C41.53 23.042 28 14.792 23.741 14.596z" fill="url(#paint9_linear_1124_149)"/><path d="M47.905 32.522l-1.84 2.055-1.634-1.452c-1.731-1.549-2.884-2.535-3.469-2.972-.585-.436-.932-.566-1.122-.404-.19.162.037.423.438.896a24.82 24.82 0 001.998 1.948 23.6 23.6 0 003.402 2.695 46.783 46.783 0 004.593 2.101c1.982.82 3.446 1.49 4.471 2.027a33.628 33.628 0 013.842 2.556c1.589 1.181 3.472 2.744 5.65 4.688a66.485 66.485 0 017.76 7.893c1.683 2.127 2.43 3.755 2.274 4.886l3.694 3.3-.853.94-3.814-3.408c-.776.321-2.217-.098-4.324-1.258a61.55 61.55 0 01-9.748-7.608l-1.93-1.706 1.852-2.066 2.4 2.148c2.644 2.398 4.304 3.845 4.98 4.339.673.52 1.11.71 1.23.546.123-.165.021-.443-.39-.918a19.351 19.351 0 00-1.877-1.862c-2.192-1.968-3.798-3.343-4.82-4.126a17.01 17.01 0 00-3.691-2.105c-2.44-1.038-4.206-1.84-5.298-2.407a34.213 34.213 0 01-4.255-2.745 70.68 70.68 0 01-5.676-4.61 48.281 48.281 0 01-6.436-6.683c-1.353-1.838-1.914-3.287-1.673-4.323l-3.134-2.796.854-.951 3.123 2.796c.96-.286 2.402.11 4.331 1.337 2.577 1.648 5 3.523 7.24 5.604.475.33 1.042.89 1.852 1.645z" fill="url(#paint10_linear_1124_149)"/><path d="M48.592 31.745l-1.838 2.01-1.634-1.453c-1.731-1.544-2.884-2.53-3.458-2.959-.584-.437-.932-.567-1.122-.416-.19.15.038.423.438.897a22.4 22.4 0 001.987 1.947 24.135 24.135 0 003.412 2.74 46.795 46.795 0 004.593 2.102c1.97.83 3.445 1.502 4.47 2.027a32.708 32.708 0 013.821 2.52 95.71 95.71 0 015.66 4.7 67.426 67.426 0 017.762 7.883c1.674 2.14 2.428 3.77 2.263 4.885l3.693 3.3-.854.952-3.814-3.409c-.745.319-2.186-.1-4.312-1.257a62.297 62.297 0 01-9.749-7.597L57.992 48.9l1.84-2.021 2.41 2.149c2.638 2.352 4.295 3.794 4.97 4.326.683.533 1.109.712 1.242.547.133-.165.02-.432-.392-.906a19.782 19.782 0 00-1.911-1.864c-2.191-1.983-3.786-3.358-4.785-4.125a16.097 16.097 0 00-3.692-2.105c-2.439-1.057-4.205-1.855-5.297-2.418a37.379 37.379 0 01-4.255-2.745 72.92 72.92 0 01-5.653-4.62 46.988 46.988 0 01-6.436-6.683c-1.353-1.838-1.917-3.23-1.728-4.36l-3.08-2.76.843-.94 3.135 2.797c.956-.282 2.396.163 4.32 1.337 2.577 1.65 5 3.529 7.238 5.615l1.83 1.621z" fill="url(#paint11_linear_1124_149)"/><path d="M61.833 34.26c23.982 20.843 38.491 43.414 32.407 50.413-6.083 7-30.456-4.223-54.437-25.066C15.82 38.764 1.313 16.193 7.396 9.193c6.083-7 30.456 4.223 54.437 25.066z" fill="#444445" fill-opacity=".4"/></g><defs><linearGradient id="paint0_linear_1124_149" x1="98.655" y1="121.342" x2="272.338" y2="186.291" gradientUnits="userSpaceOnUse"><stop stop-color="#CB6E10"/><stop offset=".02" stop-color="#CB6E10"/><stop offset=".03" stop-color="#D37812"/><stop offset=".04" stop-color="#DF8314"/><stop offset=".05" stop-color="#DA7C12"/><stop offset=".06" stop-color="#DA7C12"/><stop offset=".07" stop-color="#E89317"/><stop offset=".08" stop-color="#CC7010"/><stop offset=".1" stop-color="#D27712"/><stop offset=".11" stop-color="#DC8114"/><stop offset=".12" stop-color="#CE6F10"/><stop offset=".14" stop-color="#DB7F14"/><stop offset=".15" stop-color="#E08615"/><stop offset=".16" stop-color="#CD6D10"/><stop offset=".19" stop-color="#CD6D10"/><stop offset=".21" stop-color="#DD8214"/><stop offset=".22" stop-color="#CD6D10"/><stop offset=".25" stop-color="#CD6D10"/><stop offset=".27" stop-color="#E07C15"/><stop offset=".28" stop-color="#D46A12"/><stop offset=".29" stop-color="#D36812"/><stop offset=".32" stop-color="#D97314"/><stop offset=".33" stop-color="#E07C15"/><stop offset=".34" stop-color="#D46A12"/><stop offset=".35" stop-color="#D36812"/><stop offset=".37" stop-color="#D36812"/><stop offset=".38" stop-color="#D97314"/><stop offset=".39" stop-color="#E07C15"/><stop offset=".4" stop-color="#D46A12"/><stop offset=".41" stop-color="#D36812"/><stop offset=".44" stop-color="#D97314"/><stop offset=".45" stop-color="#F7A31B"/><stop offset=".46" stop-color="#D46A12"/><stop offset=".47" stop-color="#D36812"/><stop offset=".5" stop-color="#D97314"/><stop offset=".51" stop-color="#FFB01D"/><stop offset=".52" stop-color="#E07C15"/><stop offset=".53" stop-color="#D87113"/><stop offset=".54" stop-color="#D46A12"/><stop offset=".55" stop-color="#D36812"/><stop offset=".57" stop-color="#FFB01D"/><stop offset=".58" stop-color="#C1680A"/><stop offset=".59" stop-color="#A84C02"/><stop offset=".6" stop-color="#A34500"/><stop offset=".61" stop-color="#A14300"/><stop offset=".62" stop-color="#CA730D"/><stop offset=".63" stop-color="#BF7315"/><stop offset=".64" stop-color="#7A310D"/><stop offset=".65" stop-color="#70290C"/><stop offset=".67" stop-color="#722C0C"/><stop offset=".68" stop-color="#AB6213"/><stop offset=".69" stop-color="#C57916"/><stop offset=".7" stop-color="#823B0E"/><stop offset=".71" stop-color="#77300D"/><stop offset=".72" stop-color="#702A0C"/><stop offset=".74" stop-color="#7D360E"/><stop offset=".75" stop-color="#F8AA1C"/><stop offset=".76" stop-color="#BF7415"/><stop offset=".77" stop-color="#A15812"/><stop offset=".78" stop-color="#7A340D"/><stop offset=".79" stop-color="#712B0C"/><stop offset=".8" stop-color="#7D360E"/><stop offset=".81" stop-color="#CE8217"/><stop offset=".82" stop-color="#A85106"/><stop offset=".83" stop-color="#923A00"/><stop offset=".84" stop-color="#9A5000"/><stop offset=".86" stop-color="#FFB01D"/><stop offset=".87" stop-color="#B1580E"/><stop offset=".88" stop-color="#AE550D"/><stop offset=".89" stop-color="#B65E0F"/><stop offset=".9" stop-color="#FFB01D"/><stop offset=".91" stop-color="#B0570D"/><stop offset=".92" stop-color="#AE550D"/><stop offset=".93" stop-color="#AE550D"/><stop offset=".94" stop-color="#C77011"/><stop offset=".95" stop-color="#B0570D"/><stop offset="1" stop-color="#AE550D"/></linearGradient><linearGradient id="paint1_linear_1124_149" x1="119.195" y1="81.668" x2="335.659" y2="280.273" gradientUnits="userSpaceOnUse"><stop stop-color="#FFBC04"/><stop offset=".06" stop-color="#FFC107"/><stop offset=".13" stop-color="#FFD010"/><stop offset=".2" stop-color="#FFE81E"/><stop offset=".26" stop-color="#FFFC29"/><stop offset=".31" stop-color="#FFE019"/><stop offset=".35" stop-color="#FFCC0D"/><stop offset=".4" stop-color="#FFC006"/><stop offset=".44" stop-color="#FFBC04"/><stop offset=".6" stop-color="#FFB404"/><stop offset=".65" stop-color="#D88D05"/><stop offset=".74" stop-color="#9B5007"/><stop offset=".76" stop-color="#9F5407"/><stop offset=".78" stop-color="#AA5F07"/><stop offset=".8" stop-color="#BD7107"/><stop offset=".82" stop-color="#E39606"/><stop offset=".92" stop-color="#FFBC04"/><stop offset="1" stop-color="#E99602"/></linearGradient><linearGradient id="paint2_linear_1124_149" x1="101.014" y1="125.266" x2="266.1" y2="186.829" gradientUnits="userSpaceOnUse"><stop stop-color="#FFB234"/><stop offset=".08" stop-color="#FFD53B"/><stop offset=".18" stop-color="#FBAB35"/><stop offset=".2" stop-color="#EA9033"/><stop offset=".22" stop-color="#DE7D31"/><stop offset=".24" stop-color="#D7722F"/><stop offset=".26" stop-color="#D56E2F"/><stop offset=".36" stop-color="#F0AB39"/><stop offset=".4" stop-color="#FFCD3E"/><stop offset=".56" stop-color="#FFD53B"/><stop offset=".62" stop-color="#FFD93E"/><stop offset=".67" stop-color="#FFE546"/><stop offset=".73" stop-color="#FFF953"/><stop offset=".74" stop-color="#FFFF57"/><stop offset=".83" stop-color="#FFE948"/><stop offset=".92" stop-color="#FFDA3E"/><stop offset="1" stop-color="#FFD53B"/></linearGradient><linearGradient id="paint3_linear_1124_149" x1="100.914" y1="124.875" x2="266.455" y2="186.162" gradientUnits="userSpaceOnUse"><stop stop-color="#CB6E10"/><stop offset=".06" stop-color="#CF7311"/><stop offset=".13" stop-color="#DB8214"/><stop offset=".2" stop-color="#EE9A19"/><stop offset=".26" stop-color="#FDAE1D"/><stop offset=".31" stop-color="#E79217"/><stop offset=".35" stop-color="#D87E13"/><stop offset=".4" stop-color="#CE7211"/><stop offset=".44" stop-color="#CB6E10"/><stop offset=".6" stop-color="#D36812"/><stop offset=".65" stop-color="#AB4F10"/><stop offset=".74" stop-color="#6E280C"/><stop offset=".76" stop-color="#722B0C"/><stop offset=".78" stop-color="#7D340D"/><stop offset=".8" stop-color="#90420E"/><stop offset=".82" stop-color="#A9550F"/><stop offset=".92" stop-color="#CB6E10"/><stop offset="1" stop-color="#AE550D"/></linearGradient><linearGradient id="paint4_linear_1124_149" x1="99.544" y1="113.464" x2="275.007" y2="166.967" gradientUnits="userSpaceOnUse"><stop stop-color="#CB6E10"/><stop offset=".06" stop-color="#CF7311"/><stop offset=".13" stop-color="#DB8214"/><stop offset=".2" stop-color="#EE9A19"/><stop offset=".26" stop-color="#FDAE1D"/><stop offset=".31" stop-color="#E79217"/><stop offset=".35" stop-color="#D87E13"/><stop offset=".4" stop-color="#CE7211"/><stop offset=".44" stop-color="#CB6E10"/><stop offset=".6" stop-color="#D36812"/><stop offset=".65" stop-color="#AB4F10"/><stop offset=".74" stop-color="#6E280C"/><stop offset=".76" stop-color="#722B0C"/><stop offset=".78" stop-color="#7D340D"/><stop offset=".8" stop-color="#90420E"/><stop offset=".82" stop-color="#A9550F"/><stop offset=".92" stop-color="#CB6E10"/><stop offset="1" stop-color="#AE550D"/></linearGradient><linearGradient id="paint5_linear_1124_149" x1="135.866" y1="182.291" x2="304.788" y2="124.969" gradientUnits="userSpaceOnUse"><stop stop-color="#FFE802"/><stop offset=".09" stop-color="#FFEC07"/><stop offset=".2" stop-color="#FFF616"/><stop offset=".26" stop-color="#FF2"/><stop offset=".31" stop-color="#FFF312"/><stop offset=".38" stop-color="#FFEB06"/><stop offset=".44" stop-color="#FFE802"/><stop offset=".6" stop-color="#FFDC02"/><stop offset=".67" stop-color="#D58903"/><stop offset=".74" stop-color="#B54B04"/><stop offset=".75" stop-color="#B84F04"/><stop offset=".77" stop-color="#C15A04"/><stop offset=".79" stop-color="#CF6D03"/><stop offset=".81" stop-color="#E48803"/><stop offset=".82" stop-color="#FFAC02"/><stop offset=".92" stop-color="#FFE802"/><stop offset="1" stop-color="#FFAC00"/></linearGradient><linearGradient id="paint6_linear_1124_149" x1="6.131" y1="11.819" x2="98.533" y2="83.123" gradientUnits="userSpaceOnUse"><stop stop-color="#AA560A"/><stop offset=".02" stop-color="#AA560A"/><stop offset=".03" stop-color="#C2660D"/><stop offset=".04" stop-color="#CC6E0D"/><stop offset=".05" stop-color="#BA610B"/><stop offset=".06" stop-color="#BA610B"/><stop offset=".07" stop-color="#CF700E"/><stop offset=".08" stop-color="#AC570A"/><stop offset=".1" stop-color="#BE640C"/><stop offset=".11" stop-color="#C0640C"/><stop offset=".12" stop-color="#AE560A"/><stop offset=".14" stop-color="#BE620C"/><stop offset=".15" stop-color="#C5670D"/><stop offset=".16" stop-color="#AC550A"/><stop offset=".19" stop-color="#AC550A"/><stop offset=".21" stop-color="#C1640C"/><stop offset=".22" stop-color="#AC550A"/><stop offset=".25" stop-color="#AC550A"/><stop offset=".27" stop-color="#C6620D"/><stop offset=".28" stop-color="#B4530B"/><stop offset=".29" stop-color="#B2510B"/><stop offset=".32" stop-color="#C25E0D"/><stop offset=".33" stop-color="#C6620D"/><stop offset=".34" stop-color="#B4530B"/><stop offset=".35" stop-color="#B2510B"/><stop offset=".37" stop-color="#B2510B"/><stop offset=".38" stop-color="#C25E0D"/><stop offset=".39" stop-color="#C6620D"/><stop offset=".4" stop-color="#B4530B"/><stop offset=".41" stop-color="#B2510B"/><stop offset=".44" stop-color="#C25E0D"/><stop offset=".45" stop-color="#ED8211"/><stop offset=".46" stop-color="#B4530B"/><stop offset=".47" stop-color="#B2510B"/><stop offset=".5" stop-color="#C25E0D"/><stop offset=".51" stop-color="#FF9113"/><stop offset=".52" stop-color="#C6620D"/><stop offset=".53" stop-color="#BB580C"/><stop offset=".54" stop-color="#B4530B"/><stop offset=".55" stop-color="#B2510B"/><stop offset=".57" stop-color="#F98C12"/><stop offset=".58" stop-color="#A84E06"/><stop offset=".59" stop-color="#8C3801"/><stop offset=".6" stop-color="#853200"/><stop offset=".61" stop-color="#833100"/><stop offset=".62" stop-color="#C2610A"/><stop offset=".63" stop-color="#C6690F"/><stop offset=".64" stop-color="#612308"/><stop offset=".65" stop-color="#581D07"/><stop offset=".67" stop-color="#5A1F07"/><stop offset=".68" stop-color="#93470B"/><stop offset=".69" stop-color="#CD6E0F"/><stop offset=".7" stop-color="#7B360A"/><stop offset=".71" stop-color="#5F2208"/><stop offset=".72" stop-color="#581D07"/><stop offset=".74" stop-color="#783409"/><stop offset=".75" stop-color="#E07C11"/><stop offset=".76" stop-color="#CB6D0F"/><stop offset=".77" stop-color="#893F0B"/><stop offset=".78" stop-color="#622508"/><stop offset=".79" stop-color="#591E07"/><stop offset=".8" stop-color="#652708"/><stop offset=".81" stop-color="#B65F0E"/><stop offset=".82" stop-color="#8F3B04"/><stop offset=".83" stop-color="#742700"/><stop offset=".84" stop-color="#7D3C00"/><stop offset=".86" stop-color="#FF9113"/><stop offset=".87" stop-color="#924208"/><stop offset=".88" stop-color="#8F4008"/><stop offset=".89" stop-color="#984609"/><stop offset=".9" stop-color="#F28812"/><stop offset=".91" stop-color="#914208"/><stop offset=".92" stop-color="#8F4008"/><stop offset=".93" stop-color="#8F4008"/><stop offset=".94" stop-color="#AB540A"/><stop offset=".95" stop-color="#914208"/><stop offset="1" stop-color="#8F4008"/></linearGradient><linearGradient id="paint7_linear_1124_149" x1="24.252" y1="-11.967" x2="111.309" y2="146.111" gradientUnits="userSpaceOnUse"><stop stop-color="#E89C02"/><stop offset=".06" stop-color="#EAA104"/><stop offset=".12" stop-color="#EFB00A"/><stop offset=".2" stop-color="#F7C814"/><stop offset=".26" stop-color="#FFE21E"/><stop offset=".27" stop-color="#FDDC1B"/><stop offset=".31" stop-color="#F4C010"/><stop offset=".35" stop-color="#EDAC08"/><stop offset=".4" stop-color="#E9A004"/><stop offset=".44" stop-color="#E89C02"/><stop offset=".6" stop-color="#F39502"/><stop offset=".66" stop-color="#BB6B03"/><stop offset=".74" stop-color="#7E3C04"/><stop offset=".76" stop-color="#823F04"/><stop offset=".78" stop-color="#8D4A04"/><stop offset=".8" stop-color="#A05B03"/><stop offset=".82" stop-color="#C17903"/><stop offset=".92" stop-color="#E89C02"/><stop offset="1" stop-color="#C77901"/></linearGradient><linearGradient id="paint8_linear_1124_149" x1="5.628" y1="6.434" x2="102.011" y2="77.499" gradientUnits="userSpaceOnUse"><stop stop-color="#FB9325"/><stop offset=".08" stop-color="#FFB42B"/><stop offset=".18" stop-color="#F18F27"/><stop offset=".2" stop-color="#D67624"/><stop offset=".22" stop-color="#C36422"/><stop offset=".24" stop-color="#B85921"/><stop offset=".26" stop-color="#B45621"/><stop offset=".36" stop-color="#EA932A"/><stop offset=".4" stop-color="#FFAC2D"/><stop offset=".56" stop-color="#FFB42B"/><stop offset=".6" stop-color="#FFB82C"/><stop offset=".64" stop-color="#FFC430"/><stop offset=".69" stop-color="#FFD836"/><stop offset=".73" stop-color="#FFF43F"/><stop offset=".74" stop-color="#FFFD42"/><stop offset=".81" stop-color="#FFE039"/><stop offset=".88" stop-color="#FFC831"/><stop offset=".95" stop-color="#FFB92D"/><stop offset="1" stop-color="#FFB42B"/></linearGradient><linearGradient id="paint9_linear_1124_149" x1="5.68" y1="6.514" x2="101.909" y2="77.562" gradientUnits="userSpaceOnUse"><stop stop-color="#AA560A"/><stop offset=".05" stop-color="#AF5A0B"/><stop offset=".11" stop-color="#BE640C"/><stop offset=".18" stop-color="#D6750F"/><stop offset=".25" stop-color="#F88C12"/><stop offset=".26" stop-color="#FF9113"/><stop offset=".28" stop-color="#EA8211"/><stop offset=".32" stop-color="#CE6F0E"/><stop offset=".36" stop-color="#BA610C"/><stop offset=".4" stop-color="#AE590A"/><stop offset=".44" stop-color="#AA560A"/><stop offset=".6" stop-color="#B2510B"/><stop offset=".64" stop-color="#933F0A"/><stop offset=".74" stop-color="#561C07"/><stop offset=".76" stop-color="#5A1F07"/><stop offset=".78" stop-color="#652608"/><stop offset=".81" stop-color="#783308"/><stop offset=".82" stop-color="#8B4009"/><stop offset=".92" stop-color="#AA560A"/><stop offset="1" stop-color="#8F4008"/></linearGradient><linearGradient id="paint10_linear_1124_149" x1="5.739" y1="6.045" x2="102.71" y2="76.759" gradientUnits="userSpaceOnUse"><stop stop-color="#AA560A"/><stop offset=".05" stop-color="#AF5A0B"/><stop offset=".11" stop-color="#BE640C"/><stop offset=".18" stop-color="#D6750F"/><stop offset=".25" stop-color="#F88C12"/><stop offset=".26" stop-color="#FF9113"/><stop offset=".28" stop-color="#EA8211"/><stop offset=".32" stop-color="#CE6F0E"/><stop offset=".36" stop-color="#BA610C"/><stop offset=".4" stop-color="#AE590A"/><stop offset=".44" stop-color="#AA560A"/><stop offset=".6" stop-color="#B2510B"/><stop offset=".64" stop-color="#933F0A"/><stop offset=".74" stop-color="#561C07"/><stop offset=".76" stop-color="#5A1F07"/><stop offset=".78" stop-color="#652608"/><stop offset=".81" stop-color="#783308"/><stop offset=".82" stop-color="#8B4009"/><stop offset=".92" stop-color="#AA560A"/><stop offset="1" stop-color="#8F4008"/></linearGradient><linearGradient id="paint11_linear_1124_149" x1="40.747" y1="50.777" x2="84.266" y2="22.638" gradientUnits="userSpaceOnUse"><stop stop-color="#FFC601"/><stop offset=".06" stop-color="#FFCB03"/><stop offset=".14" stop-color="#FFDA09"/><stop offset=".22" stop-color="#FFF212"/><stop offset=".26" stop-color="#FFFF17"/><stop offset=".3" stop-color="#FFEA0F"/><stop offset=".34" stop-color="#FFD607"/><stop offset=".39" stop-color="#FFCA03"/><stop offset=".44" stop-color="#FFC601"/><stop offset=".6" stop-color="#FFBA01"/><stop offset=".67" stop-color="#C87602"/><stop offset=".74" stop-color="#963802"/><stop offset=".75" stop-color="#9A3B02"/><stop offset=".77" stop-color="#A54402"/><stop offset=".79" stop-color="#B85402"/><stop offset=".8" stop-color="#D36A01"/><stop offset=".82" stop-color="#FF8E01"/><stop offset=".92" stop-color="#FFC601"/><stop offset="1" stop-color="#FF8E00"/></linearGradient><filter id="filter0_f_1124_149" x="84.098" y="72.168" width="186.828" height="200.156" filterUnits="userSpaceOnUse" color-interpolation-filters="sRGB"><feFlood flood-opacity="0" result="BackgroundImageFix"/><feBlend in="SourceGraphic" in2="BackgroundImageFix" result="shape"/><feGaussianBlur stdDeviation="6" result="effect1_foregroundBlur_1124_149"/></filter><filter id="filter1_f_1124_149" x="0" y="0" width="100.738" height="93.384" filterUnits="userSpaceOnUse" color-interpolation-filters="sRGB"><feFlood flood-opacity="0" result="BackgroundImageFix"/><feBlend in="SourceGraphic" in2="BackgroundImageFix" result="shape"/><feGaussianBlur stdDeviation="2.5" result="effect1_foregroundBlur_1124_149"/></filter></defs></svg>