<svg width="241" height="304" viewBox="0 0 241 304" fill="none" xmlns="http://www.w3.org/2000/svg"><g style="mix-blend-mode:overlay" opacity=".1" fill="#fff"><path d="M208 0c114.698 0 208 93.302 208 208s-93.302 208-208 208S0 322.686 0 208 93.302 0 208 0zm0 410.757c111.828 0 202.757-90.954 202.757-202.757C410.757 96.197 319.803 5.231 208 5.231 96.197 5.231 5.243 96.197 5.243 208c0 111.803 90.954 202.757 202.757 202.757z"/><path d="M208 100.422A107.579 107.579 0 11100.422 208 107.703 107.703 0 01208 100.422zm0 209.913a102.333 102.333 0 00100.313-122.33A102.334 102.334 0 00105.616 208 102.458 102.458 0 00208 310.335z"/><path d="M208.001 170.55a37.451 37.451 0 017.306 74.181 37.447 37.447 0 01-38.445-15.925A37.448 37.448 0 01170.551 208a37.484 37.484 0 0137.45-37.45zm0 69.657A32.207 32.207 0 10175.794 208a32.308 32.308 0 0032.207 32.207z"/><path d="M208.001 145.749a62.253 62.253 0 0161.055 74.395A62.25 62.25 0 01145.75 208a62.31 62.31 0 0162.251-62.251zm0 119.283a57.009 57.009 0 0052.668-35.191 57.004 57.004 0 00-12.358-62.127 57.002 57.002 0 00-62.126-12.357 57.005 57.005 0 00-35.192 52.668 57.072 57.072 0 0057.008 56.982v.025z"/><path d="M208.001 123.732a84.264 84.264 0 0177.854 52.02 84.268 84.268 0 01-110.102 110.103 84.275 84.275 0 01-52.021-77.854 84.368 84.368 0 0184.269-84.269zm0 163.294a79.025 79.025 0 10-79.025-79.025 79.111 79.111 0 0079.025 79.025z"/><path d="M208 74.428a133.574 133.574 0 0194.45 228.022A133.57 133.57 0 0174.428 208 133.72 133.72 0 01208 74.428zm0 261.901a128.33 128.33 0 00125.863-153.365A128.332 128.332 0 00233.036 82.137 128.328 128.328 0 0079.671 208 128.48 128.48 0 00208 336.329z"/><path d="M208 49.142A158.858 158.858 0 1149.143 208 159.044 159.044 0 01208 49.142zm0 312.472a153.619 153.619 0 00141.922-94.828A153.617 153.617 0 00237.969 57.337 153.614 153.614 0 0054.386 208 153.79 153.79 0 00208 361.577v.037z"/><path d="M207.999 22.652c102.198 0 185.336 83.15 185.336 185.348 0 102.199-83.138 185.349-185.336 185.349-102.198 0-185.349-83.15-185.349-185.349 0-102.198 83.151-185.348 185.35-185.348zm0 365.453c99.316 0 180.167-80.764 180.167-180.167S307.402 27.771 207.999 27.771 27.832 108.535 27.832 207.938s80.864 180.167 180.167 180.167z"/></g></svg>