<svg width="916" height="454" viewBox="0 0 916 454" fill="none" xmlns="http://www.w3.org/2000/svg"><g opacity=".25" clip-path="url(#clip0_1158_1310)"><g style="mix-blend-mode:overlay" fill="#C3C585"><path d="M.982 11.109h872.489v2.658H.982V11.11zm0 29.756h872.489v2.66H.982v-2.66zm0 29.794h872.489v2.658H.982V70.66zm0 29.756h872.489v2.696H.982v-2.696zm0 29.757h872.489v2.695H.982v-2.695zm0 29.757h872.489v2.695H.982v-2.695zm0 29.757h872.489v2.658H.982v-2.658zm0 29.756h872.489v2.659H.982v-2.659zm0 29.794h872.489v2.658H.982v-2.658zm0 29.756h872.489v2.659H.982v-2.659zm0 29.757h872.489v2.659H.982v-2.659zm0 29.757h872.489v2.659H.982v-2.659zm0 29.757h872.489v2.658H.982v-2.658zm0 29.793h872.489v2.659H.982v-2.659z"/><path d="M873.143 11.946h2.656V400.57h-2.656V11.946zm-79.383 0h2.656V400.57h-2.656V11.946zm-79.383 0h2.656V400.57h-2.656V11.946zm-79.347 0h2.656V400.57h-2.656V11.946zm-79.383 0h2.656V400.57h-2.656V11.946zm-79.385 0h2.656V400.57h-2.656V11.946zm-79.383 0h2.656V400.57h-2.656V11.946zm-79.382 0h2.655V400.57h-2.655V11.946zm-79.348 0h2.656V400.57h-2.656V11.946zm-79.383 0h2.656V400.57h-2.656V11.946zm-79.383 0h2.656V400.57h-2.656V11.946zM0 11.946h2.656V400.57H0V11.946z"/></g><path d="M825.931 428.859v-.423l-1.589-1.74c-.186-.203-.34-.38-.461-.531a2 2 0 01-.268-.428 1.046 1.046 0 01-.089-.423c0-.169.041-.316.122-.44a.797.797 0 01.329-.286c.14-.068.297-.101.471-.101.185 0 .346.038.484.115a.793.793 0 01.317.317.99.99 0 01.111.48h.555c0-.282-.066-.53-.196-.743a1.364 1.364 0 00-.531-.499 1.604 1.604 0 00-.759-.178 1.54 1.54 0 00-.75.178c-.218.12-.389.28-.513.482a1.275 1.275 0 00-.185.675c0 .177.032.35.096.52.063.167.172.355.329.561.155.206.371.457.647.753l1.081 1.156v.038h-2.238v.517h3.037zm-5.578.066c.354 0 .656-.096.905-.289.249-.195.439-.476.571-.844.132-.37.198-.817.198-1.34 0-.52-.066-.965-.198-1.333-.133-.37-.324-.652-.574-.846a1.418 1.418 0 00-.902-.294c-.351 0-.651.098-.901.294-.25.194-.442.476-.573.846-.133.368-.2.813-.2 1.333 0 .523.066.97.197 1.34.132.368.322.649.572.844.249.193.551.289.905.289zm0-.517c-.351 0-.624-.169-.818-.508-.195-.339-.292-.821-.292-1.448 0-.417.045-.772.134-1.065.088-.293.215-.516.381-.67a.84.84 0 01.595-.23c.348 0 .62.171.815.514.196.342.294.826.294 1.451 0 .417-.044.771-.131 1.062-.088.292-.214.514-.379.666a.856.856 0 01-.599.228zm-4.26-4.363v4.814h.583v-4.203h.028l1.176.78v-.592l-1.204-.799h-.583zm-2.889 4.88c.276 0 .524-.055.745-.165.221-.109.398-.26.531-.451.134-.191.206-.409.219-.654h-.564a.775.775 0 01-.296.541.99.99 0 01-.635.212.997.997 0 01-.527-.139.974.974 0 01-.364-.381 1.122 1.122 0 01-.134-.552c0-.21.046-.398.139-.562.09-.166.216-.297.376-.393.16-.095.342-.144.547-.145a1.49 1.49 0 01.454.068c.155.045.283.104.383.176l.546-.066-.292-2.369h-2.501v.517h2.012l.169 1.42h-.028a1.212 1.212 0 00-.371-.195 1.403 1.403 0 00-.466-.078c-.294 0-.557.071-.787.212-.232.139-.414.33-.546.573-.133.243-.199.52-.199.832 0 .308.069.582.206.823.137.24.325.43.565.569.239.138.512.207.818.207zm-69.822-.066v-.423l-1.589-1.74a10.31 10.31 0 01-.46-.531 1.96 1.96 0 01-.268-.428 1.03 1.03 0 01-.09-.423c0-.169.041-.316.122-.44a.794.794 0 01.33-.286c.139-.068.296-.101.47-.101.185 0 .346.038.484.115a.793.793 0 01.317.317.99.99 0 01.111.48h.555c0-.282-.065-.53-.195-.743a1.374 1.374 0 00-.532-.499 1.6 1.6 0 00-.759-.178 1.54 1.54 0 00-.75.178c-.218.12-.389.28-.512.482a1.267 1.267 0 00-.186.675c0 .177.032.35.096.52.063.167.173.355.329.561.155.206.371.457.647.753l1.081 1.156v.038h-2.238v.517h3.037zm-5.578.066c.354 0 .656-.096.905-.289.249-.195.44-.476.571-.844.132-.37.198-.817.198-1.34 0-.52-.066-.965-.198-1.333-.133-.37-.324-.652-.573-.846a1.423 1.423 0 00-.903-.294 1.41 1.41 0 00-.9.294c-.251.194-.442.476-.574.846-.133.368-.2.813-.2 1.333 0 .523.066.97.198 1.34.131.368.322.649.571.844.249.193.551.289.905.289zm0-.517c-.351 0-.624-.169-.818-.508-.195-.339-.292-.821-.292-1.448 0-.417.045-.772.134-1.065.088-.293.215-.516.381-.67a.84.84 0 01.595-.23c.348 0 .62.171.816.514.196.342.294.826.294 1.451 0 .417-.044.771-.132 1.062-.088.292-.214.514-.379.666a.856.856 0 01-.599.228zm-4.26-4.363v4.814h.583v-4.203h.028l1.176.78v-.592l-1.204-.799h-.583zm-2.983 4.88c.197-.003.395-.041.592-.113.198-.072.378-.193.541-.364.163-.173.294-.405.393-.698.098-.295.148-.665.148-1.11 0-.426-.04-.804-.12-1.133a2.565 2.565 0 00-.348-.835 1.571 1.571 0 00-.55-.517 1.511 1.511 0 00-.731-.176c-.27 0-.51.054-.72.162a1.372 1.372 0 00-.517.447 1.56 1.56 0 00-.258.66h.573c.053-.216.157-.396.31-.538.154-.143.358-.214.612-.214.373 0 .667.162.881.487.213.324.321.779.322 1.365h-.037a1.414 1.414 0 00-1.185-.639c-.276 0-.528.069-.757.207a1.526 1.526 0 00-.55.566c-.138.24-.207.515-.207.826 0 .297.067.57.2.818.133.246.32.442.562.587.239.145.522.215.846.212zm0-.517a.978.978 0 01-.531-.148 1.114 1.114 0 01-.513-.952c0-.199.045-.38.134-.543.088-.165.209-.296.365-.393a.963.963 0 01.526-.146 1.049 1.049 0 01.755.329 1.152 1.152 0 01.308.762 1.105 1.105 0 01-.506.938.97.97 0 01-.538.153zm-68.671.451v-.423l-1.589-1.74c-.186-.203-.34-.38-.461-.531a2 2 0 01-.268-.428 1.046 1.046 0 01-.089-.423c0-.169.041-.316.122-.44a.797.797 0 01.329-.286c.14-.068.297-.101.471-.101.184 0 .346.038.484.115a.793.793 0 01.317.317.99.99 0 01.111.48h.554c0-.282-.065-.53-.195-.743a1.364 1.364 0 00-.531-.499 1.604 1.604 0 00-.759-.178 1.54 1.54 0 00-.75.178c-.218.12-.389.28-.513.482a1.275 1.275 0 00-.185.675c0 .177.032.35.096.52.063.167.172.355.329.561.155.206.371.457.647.753l1.081 1.156v.038h-2.238v.517h3.037zm-5.578.066c.354 0 .656-.096.905-.289.249-.195.439-.476.571-.844.132-.37.198-.817.198-1.34 0-.52-.066-.965-.198-1.333-.133-.37-.324-.652-.574-.846a1.418 1.418 0 00-.902-.294c-.351 0-.651.098-.901.294-.25.194-.442.476-.573.846-.133.368-.2.813-.2 1.333 0 .523.066.97.197 1.34.132.368.322.649.572.844.249.193.551.289.905.289zm0-.517c-.351 0-.624-.169-.818-.508-.195-.339-.292-.821-.292-1.448 0-.417.045-.772.134-1.065.088-.293.215-.516.381-.67a.84.84 0 01.595-.23c.348 0 .62.171.815.514.196.342.294.826.294 1.451 0 .417-.044.771-.131 1.062-.088.292-.214.514-.379.666a.856.856 0 01-.599.228zm-4.26-4.363v4.814h.583v-4.203h.028l1.176.78v-.592l-1.204-.799h-.583zm-1.535 4.814l-2.154-4.26v-.037h2.483v-.517h-3.084v.545l2.144 4.269h.611zm-65.681 0v-.423l-1.59-1.74a10.31 10.31 0 01-.46-.531 1.96 1.96 0 01-.268-.428 1.03 1.03 0 01-.09-.423.78.78 0 01.452-.726c.139-.068.296-.101.47-.101.185 0 .346.038.484.115a.801.801 0 01.318.317 1 1 0 01.11.48h.555c0-.282-.065-.53-.195-.743a1.367 1.367 0 00-.532-.499 1.598 1.598 0 00-.759-.178 1.54 1.54 0 00-.75.178c-.218.12-.389.28-.512.482a1.267 1.267 0 00-.186.675c0 .177.032.35.096.52.063.167.173.355.329.561.156.206.371.457.647.753l1.081 1.156v.038h-2.238v.517h3.038zm-5.579.066c.354 0 .656-.096.905-.289.249-.195.44-.476.571-.844.132-.37.198-.817.198-1.34 0-.52-.066-.965-.198-1.333-.133-.37-.324-.652-.573-.846a1.423 1.423 0 00-.903-.294 1.41 1.41 0 00-.9.294c-.251.194-.442.476-.574.846-.133.368-.2.813-.2 1.333 0 .523.066.97.198 1.34.131.368.322.649.571.844.249.193.551.289.905.289zm0-.517c-.351 0-.624-.169-.818-.508-.194-.339-.292-.821-.292-1.448 0-.417.045-.772.134-1.065.088-.293.215-.516.381-.67a.84.84 0 01.595-.23c.348 0 .62.171.816.514.196.342.294.826.294 1.451 0 .417-.044.771-.132 1.062-.088.292-.214.514-.379.666a.855.855 0 01-.599.228zm-4.26-4.363v4.814h.583v-4.203h.029l1.175.78v-.592l-1.204-.799h-.583zm-2.927 4.88c.323 0 .609-.057.856-.172.246-.116.438-.275.576-.477.138-.204.206-.436.205-.696a1.295 1.295 0 00-.12-.564 1.236 1.236 0 00-.334-.435 1.028 1.028 0 00-.477-.223v-.028a.935.935 0 00.55-.388c.136-.201.204-.429.202-.684a1.154 1.154 0 00-.186-.656 1.297 1.297 0 00-.517-.456 1.645 1.645 0 00-.755-.167 1.62 1.62 0 00-.747.167c-.22.111-.392.263-.517.456a1.183 1.183 0 00-.193.656c.002.255.071.483.209.684a.935.935 0 00.543.388v.028a.995.995 0 00-.47.223 1.314 1.314 0 00-.461.999c.002.26.072.492.212.696.138.202.33.361.576.477.244.115.527.172.848.172zm0-.517c-.217 0-.405-.035-.564-.106a.793.793 0 01-.498-.75.858.858 0 01.141-.482.962.962 0 01.378-.329c.159-.08.34-.12.543-.12.206 0 .389.04.551.12.159.08.286.19.378.329.091.14.136.3.134.482a.781.781 0 01-.125.451.837.837 0 01-.369.299 1.39 1.39 0 01-.569.106zm0-2.285a.981.981 0 01-.458-.104.778.778 0 01-.317-.289.827.827 0 01-.118-.435.805.805 0 01.115-.425.743.743 0 01.313-.282c.133-.068.288-.101.465-.101.181 0 .338.033.473.101a.72.72 0 01.313.282c.073.12.109.262.108.425a.805.805 0 01-.111.435.778.778 0 01-.317.289 1.01 1.01 0 01-.466.104zm-67.383 2.736v-.423l-1.589-1.74c-.187-.203-.34-.38-.461-.531a2 2 0 01-.268-.428 1.046 1.046 0 01-.089-.423c0-.169.041-.316.122-.44a.797.797 0 01.329-.286 1.06 1.06 0 01.47-.101.98.98 0 01.485.115.793.793 0 01.317.317.99.99 0 01.111.48h.554c0-.282-.065-.53-.195-.743a1.364 1.364 0 00-.531-.499 1.604 1.604 0 00-.759-.178 1.54 1.54 0 00-.75.178c-.218.12-.389.28-.513.482a1.267 1.267 0 00-.186.675c0 .177.033.35.097.52.063.167.172.355.329.561.155.206.371.457.646.753l1.082 1.156v.038h-2.238v.517h3.037zm-5.578.066c.354 0 .655-.096.905-.289.249-.195.439-.476.571-.844.132-.37.197-.817.197-1.34 0-.52-.065-.965-.197-1.333-.133-.37-.324-.652-.574-.846a1.418 1.418 0 00-.902-.294c-.351 0-.652.098-.901.294-.251.194-.442.476-.573.846-.134.368-.2.813-.2 1.333 0 .523.066.97.197 1.34.132.368.322.649.572.844.249.193.55.289.905.289zm0-.517c-.351 0-.624-.169-.819-.508-.194-.339-.291-.821-.291-1.448 0-.417.045-.772.134-1.065.088-.293.215-.516.381-.67a.838.838 0 01.595-.23c.348 0 .619.171.815.514.196.342.294.826.294 1.451 0 .417-.044.771-.131 1.062-.088.292-.214.514-.379.666a.856.856 0 01-.599.228zm-4.26-4.363v4.814h.583v-4.203h.028l1.175.78v-.592l-1.203-.799h-.583zm-2.918-.066a1.702 1.702 0 00-.592.113 1.448 1.448 0 00-.541.366c-.163.17-.294.401-.392.694-.099.293-.148.66-.148 1.102 0 .428.04.808.122 1.141.08.33.196.609.348.836.15.228.334.4.55.518a1.5 1.5 0 00.729.176c.269 0 .51-.053.721-.16.21-.108.383-.258.518-.449.133-.193.218-.416.256-.67h-.574a1.063 1.063 0 01-.308.548c-.155.142-.359.214-.613.214-.372 0-.665-.162-.88-.487-.216-.324-.324-.783-.324-1.375h.038a1.407 1.407 0 00.714.562c.148.051.304.077.47.077.276 0 .529-.068.76-.204.229-.138.412-.327.55-.567.136-.241.204-.517.204-.827 0-.295-.065-.564-.197-.809a1.528 1.528 0 00-.56-.588 1.572 1.572 0 00-.851-.211zm0 .517c.198 0 .376.049.534.148.157.097.281.229.374.395.091.165.136.347.136.548 0 .2-.044.383-.131.547-.09.163-.211.294-.365.391a.991.991 0 01-.529.143 1 1 0 01-.752-.329 1.174 1.174 0 01-.228-.35 1.077 1.077 0 01.054-.941c.089-.164.213-.297.371-.399a.963.963 0 01.536-.153zm-69.793 4.363v-.423l-1.589-1.74c-.186-.203-.34-.38-.461-.531a2 2 0 01-.268-.428 1.046 1.046 0 01-.089-.423c0-.169.041-.316.122-.44a.797.797 0 01.329-.286c.14-.068.297-.101.471-.101.185 0 .346.038.484.115a.793.793 0 01.317.317.99.99 0 01.111.48h.555c0-.282-.066-.53-.196-.743a1.364 1.364 0 00-.531-.499 1.604 1.604 0 00-.759-.178 1.54 1.54 0 00-.75.178c-.218.12-.389.28-.513.482a1.275 1.275 0 00-.185.675c0 .177.032.35.096.52.063.167.172.355.329.561.155.206.371.457.647.753l1.081 1.156v.038h-2.238v.517h3.037zm-5.578.066c.354 0 .656-.096.905-.289.249-.195.439-.476.571-.844.132-.37.198-.817.198-1.34 0-.52-.066-.965-.198-1.333-.133-.37-.324-.652-.574-.846a1.418 1.418 0 00-.902-.294c-.351 0-.651.098-.901.294-.25.194-.442.476-.573.846-.133.368-.2.813-.2 1.333 0 .523.066.97.197 1.34.132.368.322.649.572.844.249.193.551.289.905.289zm0-.517c-.351 0-.624-.169-.818-.508-.195-.339-.292-.821-.292-1.448 0-.417.045-.772.134-1.065.088-.293.215-.516.381-.67a.84.84 0 01.595-.23c.348 0 .62.171.816.514.195.342.293.826.293 1.451 0 .417-.044.771-.131 1.062-.088.292-.214.514-.379.666a.856.856 0 01-.599.228zm-2.567.451v-.423l-1.59-1.74a10.31 10.31 0 01-.46-.531 1.96 1.96 0 01-.268-.428 1.03 1.03 0 01-.09-.423.78.78 0 01.452-.726c.139-.068.296-.101.47-.101.185 0 .346.038.484.115a.795.795 0 01.318.317 1 1 0 01.11.48h.555c0-.282-.065-.53-.195-.743a1.36 1.36 0 00-.532-.499 1.598 1.598 0 00-.759-.178 1.54 1.54 0 00-.75.178c-.218.12-.389.28-.512.482a1.267 1.267 0 00-.186.675c0 .177.032.35.096.52.063.167.173.355.329.561.156.206.371.457.647.753l1.081 1.156v.038h-2.238v.517h3.038zm-5.579.066c.354 0 .656-.096.905-.289.249-.195.44-.476.571-.844.132-.37.198-.817.198-1.34 0-.52-.066-.965-.198-1.333-.133-.37-.324-.652-.573-.846a1.423 1.423 0 00-.903-.294 1.41 1.41 0 00-.9.294c-.251.194-.442.476-.574.846-.133.368-.2.813-.2 1.333 0 .523.066.97.198 1.34.131.368.322.649.571.844.249.193.551.289.905.289zm0-.517c-.351 0-.624-.169-.818-.508-.194-.339-.292-.821-.292-1.448 0-.417.045-.772.134-1.065.088-.293.215-.516.381-.67a.84.84 0 01.595-.23c.348 0 .62.171.816.514.196.342.294.826.294 1.451 0 .417-.044.771-.132 1.062-.088.292-.214.514-.378.666a.859.859 0 01-.6.228zm-68.131.451v-.423l-1.589-1.74c-.187-.203-.34-.38-.461-.531a1.96 1.96 0 01-.268-.428 1.03 1.03 0 01-.089-.423.78.78 0 01.451-.726c.139-.068.296-.101.47-.101.185 0 .346.038.484.115a.789.789 0 01.318.317 1 1 0 01.11.48h.555c0-.282-.065-.53-.195-.743a1.364 1.364 0 00-.531-.499 1.605 1.605 0 00-.76-.178 1.54 1.54 0 00-.75.178c-.217.12-.388.28-.512.482a1.267 1.267 0 00-.186.675c0 .177.032.35.097.52.062.167.172.355.329.561.155.206.37.457.646.753l1.082 1.156v.038h-2.238v.517h3.037zm-5.579.066c.354 0 .656-.096.905-.289.25-.195.44-.476.572-.844.131-.37.197-.817.197-1.34 0-.52-.066-.965-.197-1.333-.134-.37-.325-.652-.574-.846a1.423 1.423 0 00-.903-.294 1.41 1.41 0 00-.9.294c-.251.194-.442.476-.574.846-.133.368-.2.813-.2 1.333 0 .523.066.97.198 1.34.132.368.322.649.571.844.249.193.551.289.905.289zm0-.517c-.351 0-.623-.169-.818-.508-.194-.339-.291-.821-.291-1.448 0-.417.044-.772.134-1.065.087-.293.214-.516.381-.67a.836.836 0 01.594-.23c.348 0 .62.171.816.514.196.342.294.826.294 1.451 0 .417-.044.771-.132 1.062-.088.292-.214.514-.378.666a.857.857 0 01-.6.228zm-2.567.451v-.423l-1.589-1.74c-.187-.203-.34-.38-.461-.531a2 2 0 01-.268-.428 1.046 1.046 0 01-.089-.423c0-.169.041-.316.122-.44a.797.797 0 01.329-.286 1.06 1.06 0 01.47-.101.98.98 0 01.485.115.793.793 0 01.317.317.99.99 0 01.111.48h.554c0-.282-.065-.53-.195-.743a1.364 1.364 0 00-.531-.499 1.604 1.604 0 00-.759-.178 1.54 1.54 0 00-.75.178c-.218.12-.389.28-.513.482a1.267 1.267 0 00-.186.675c0 .177.033.35.097.52.063.167.172.355.329.561.155.206.371.457.646.753l1.082 1.156v.038H329.1v.517h3.037zm-5.701-4.814v4.814h.583v-4.203h.029l1.175.78v-.592l-1.204-.799h-.583zm-63.718 4.814v-.423l-1.589-1.74c-.186-.203-.34-.38-.461-.531a2 2 0 01-.268-.428 1.046 1.046 0 01-.089-.423c0-.169.041-.316.122-.44a.794.794 0 01.33-.286c.139-.068.296-.101.47-.101.185 0 .346.038.484.115a.793.793 0 01.317.317.99.99 0 01.111.48h.555c0-.282-.065-.53-.196-.743a1.364 1.364 0 00-.531-.499 1.6 1.6 0 00-.759-.178 1.54 1.54 0 00-.75.178c-.218.12-.389.28-.513.482a1.275 1.275 0 00-.185.675c0 .177.032.35.096.52.063.167.173.355.329.561.155.206.371.457.647.753l1.081 1.156v.038h-2.238v.517h3.037zm-5.578.066c.354 0 .656-.096.905-.289.249-.195.44-.476.571-.844.132-.37.198-.817.198-1.34 0-.52-.066-.965-.198-1.333-.133-.37-.324-.652-.573-.846a1.423 1.423 0 00-.903-.294c-.351 0-.651.098-.901.294-.25.194-.441.476-.573.846-.133.368-.2.813-.2 1.333 0 .523.066.97.198 1.34.131.368.322.649.571.844.249.193.551.289.905.289zm0-.517c-.351 0-.624-.169-.818-.508-.195-.339-.292-.821-.292-1.448 0-.417.045-.772.134-1.065.088-.293.215-.516.381-.67a.84.84 0 01.595-.23c.348 0 .62.171.816.514.195.342.293.826.293 1.451 0 .417-.043.771-.131 1.062-.088.292-.214.514-.379.666a.856.856 0 01-.599.228zm-2.567.451v-.423l-1.589-1.74a9.912 9.912 0 01-.461-.531 1.96 1.96 0 01-.268-.428 1.03 1.03 0 01-.09-.423.78.78 0 01.452-.726c.139-.068.296-.101.47-.101.185 0 .346.038.484.115a.795.795 0 01.318.317 1 1 0 01.11.48h.555c0-.282-.065-.53-.195-.743a1.36 1.36 0 00-.532-.499 1.598 1.598 0 00-.759-.178 1.54 1.54 0 00-.75.178 1.35 1.35 0 00-.512.482 1.267 1.267 0 00-.186.675c0 .177.032.35.096.52.063.167.173.355.33.561.155.206.37.457.646.753l1.081 1.156v.038h-2.238v.517h3.038zm-4.008 0v-.423l-1.59-1.74a10.31 10.31 0 01-.46-.531 1.96 1.96 0 01-.268-.428 1.03 1.03 0 01-.09-.423c0-.169.041-.316.122-.44a.794.794 0 01.33-.286c.139-.068.296-.101.47-.101.185 0 .346.038.484.115a.793.793 0 01.317.317.99.99 0 01.111.48h.555c0-.282-.065-.53-.195-.743a1.367 1.367 0 00-.532-.499 1.6 1.6 0 00-.759-.178 1.54 1.54 0 00-.75.178c-.218.12-.389.28-.512.482a1.267 1.267 0 00-.186.675c0 .177.032.35.096.52.063.167.173.355.329.561.156.206.371.457.647.753l1.081 1.156v.038h-2.238v.517h3.038zm-65.593 0v-.423l-1.589-1.74c-.186-.203-.34-.38-.461-.531a2 2 0 01-.268-.428 1.046 1.046 0 01-.089-.423c0-.169.041-.316.122-.44a.797.797 0 01.329-.286c.14-.068.297-.101.471-.101.185 0 .346.038.484.115a.793.793 0 01.317.317.99.99 0 01.111.48h.555c0-.282-.066-.53-.196-.743a1.364 1.364 0 00-.531-.499 1.604 1.604 0 00-.759-.178 1.54 1.54 0 00-.75.178c-.218.12-.389.28-.513.482a1.275 1.275 0 00-.185.675c0 .177.032.35.096.52.063.167.172.355.329.561.155.206.371.457.647.753l1.081 1.156v.038h-2.238v.517h3.037zm-5.578.066c.354 0 .656-.096.905-.289.249-.195.439-.476.571-.844.132-.37.198-.817.198-1.34 0-.52-.066-.965-.198-1.333-.133-.37-.324-.652-.574-.846a1.418 1.418 0 00-.902-.294c-.351 0-.651.098-.901.294-.25.194-.442.476-.573.846-.133.368-.2.813-.2 1.333 0 .523.066.97.197 1.34.132.368.322.649.572.844.249.193.551.289.905.289zm0-.517c-.351 0-.624-.169-.818-.508-.195-.339-.292-.821-.292-1.448 0-.417.045-.772.134-1.065.088-.293.215-.516.381-.67a.84.84 0 01.595-.23c.348 0 .62.171.815.514.196.342.294.826.294 1.451 0 .417-.044.771-.131 1.062-.088.292-.214.514-.379.666a.856.856 0 01-.599.228zm-2.567.451v-.423l-1.59-1.74a10.31 10.31 0 01-.46-.531 1.96 1.96 0 01-.268-.428 1.03 1.03 0 01-.09-.423.78.78 0 01.452-.726c.139-.068.296-.101.47-.101.185 0 .346.038.484.115a.795.795 0 01.318.317 1 1 0 01.11.48h.555c0-.282-.065-.53-.195-.743a1.36 1.36 0 00-.532-.499 1.598 1.598 0 00-.759-.178 1.54 1.54 0 00-.75.178c-.218.12-.389.28-.512.482a1.267 1.267 0 00-.186.675c0 .177.032.35.096.52.063.167.173.355.329.561.156.206.371.457.647.753l1.081 1.156v.038h-2.238v.517h3.038zm-5.635.066c.31 0 .587-.053.829-.16.242-.106.434-.255.576-.444.141-.191.218-.413.231-.666h-.593a.691.691 0 01-.159.402.92.92 0 01-.37.259c-.152.061-.32.092-.505.092-.207 0-.39-.036-.55-.108a.906.906 0 01-.376-.301.756.756 0 01-.137-.447c0-.177.044-.333.132-.468a.866.866 0 01.386-.319c.169-.077.376-.116.62-.116h.386v-.517h-.386c-.191 0-.359-.034-.503-.103a.78.78 0 01-.465-.734c0-.163.036-.305.108-.425a.736.736 0 01.305-.282.986.986 0 01.461-.101c.166 0 .323.03.47.091.146.06.265.147.358.261a.683.683 0 01.15.409h.564a1.143 1.143 0 00-.228-.663 1.427 1.427 0 00-.559-.446 1.803 1.803 0 00-.764-.16c-.298 0-.553.06-.767.181a1.242 1.242 0 00-.662 1.107c0 .271.071.502.213.694.141.191.333.323.576.397v.037c-.304.051-.541.18-.712.388a1.166 1.166 0 00-.256.769c0 .262.071.497.214.705.141.207.334.37.578.489.245.119.523.179.835.179zm-66.186-.066v-.423l-1.59-1.74a10.31 10.31 0 01-.46-.531 1.96 1.96 0 01-.268-.428 1.03 1.03 0 01-.09-.423c0-.169.041-.316.122-.44a.794.794 0 01.33-.286c.139-.068.296-.101.47-.101.185 0 .346.038.484.115a.793.793 0 01.317.317.99.99 0 01.111.48h.555c0-.282-.065-.53-.195-.743a1.367 1.367 0 00-.532-.499 1.598 1.598 0 00-.759-.178 1.54 1.54 0 00-.75.178c-.218.12-.389.28-.512.482a1.267 1.267 0 00-.186.675c0 .177.032.35.096.52.063.167.173.355.329.561.156.206.371.457.647.753l1.081 1.156v.038h-2.238v.517h3.038zm-5.579.066c.354 0 .656-.096.905-.289.249-.195.44-.476.571-.844.132-.37.198-.817.198-1.34 0-.52-.066-.965-.198-1.333-.133-.37-.324-.652-.573-.846a1.423 1.423 0 00-.903-.294 1.41 1.41 0 00-.9.294c-.251.194-.442.476-.574.846-.133.368-.2.813-.2 1.333 0 .523.066.97.198 1.34.131.368.322.649.57.844.25.193.552.289.906.289zm0-.517c-.351 0-.624-.169-.818-.508-.194-.339-.292-.821-.292-1.448 0-.417.045-.772.134-1.065.088-.293.215-.516.381-.67a.838.838 0 01.595-.23c.348 0 .62.171.816.514.196.342.294.826.294 1.451 0 .417-.044.771-.132 1.062-.088.292-.214.514-.379.666a.855.855 0 01-.599.228zm-2.567.451v-.423l-1.59-1.74a10.31 10.31 0 01-.46-.531 1.972 1.972 0 01-.268-.428 1.036 1.036 0 01-.09-.423.78.78 0 01.123-.44.794.794 0 01.329-.286 1.06 1.06 0 01.47-.101c.185 0 .346.038.484.115a.793.793 0 01.318.317 1 1 0 01.11.48h.555c0-.282-.065-.53-.195-.743a1.365 1.365 0 00-.531-.499 1.602 1.602 0 00-.76-.178 1.54 1.54 0 00-.75.178 1.35 1.35 0 00-.512.482 1.269 1.269 0 00-.186.675c0 .177.032.35.097.52.062.167.172.355.329.561.155.206.37.457.646.753l1.082 1.156v.038h-2.239v.517h3.038zm-3.792-.987v-.48l-2.116-3.347h-.348v.742h.235l1.599 2.53v.038h-2.85v.517h3.48zm-2.266.987v-4.814h-.555v4.814h.555zm805.266 1.049c.354 0 .656-.096.905-.289.249-.194.44-.475.571-.844.132-.37.198-.816.198-1.34 0-.52-.066-.964-.198-1.333-.133-.37-.324-.652-.573-.846a1.423 1.423 0 00-.903-.294 1.41 1.41 0 00-.9.294c-.251.194-.442.476-.574.846-.133.369-.2.813-.2 1.333 0 .524.066.97.198 1.34.131.369.322.65.571.844.249.193.551.289.905.289zm0-.517c-.351 0-.624-.169-.818-.508-.194-.338-.292-.821-.292-1.448 0-.417.045-.772.134-1.065.088-.293.215-.516.381-.67a.844.844 0 01.595-.23c.348 0 .62.172.816.515.196.341.294.825.294 1.45 0 .417-.044.771-.132 1.063-.088.291-.214.513-.379.665a.856.856 0 01-.599.228zm17.741-75.823v4.815h.583v-4.204h.028l1.176.781v-.593l-1.204-.799h-.583zm-2.955 4.881c.354 0 .656-.097.905-.29.249-.194.44-.475.571-.844.132-.369.198-.816.198-1.34 0-.52-.066-.964-.198-1.333-.133-.369-.324-.651-.573-.846a1.423 1.423 0 00-.903-.294 1.41 1.41 0 00-.9.294c-.251.195-.442.477-.574.846-.133.369-.2.813-.2 1.333 0 .524.066.971.198 1.34.131.369.322.65.571.844.249.193.551.29.905.29zm0-.518c-.351 0-.624-.169-.818-.507-.194-.339-.292-.822-.292-1.449 0-.416.045-.771.134-1.065.088-.293.215-.516.381-.67a.844.844 0 01.595-.23c.348 0 .62.172.816.515.196.342.294.825.294 1.45 0 .417-.044.771-.132 1.063-.088.292-.214.513-.379.665a.855.855 0 01-.599.228zm4.648-58.661v-.423l-1.59-1.74c-.186-.204-.34-.381-.46-.531a1.96 1.96 0 01-.268-.428 1.03 1.03 0 01-.09-.423.778.778 0 01.452-.727 1.07 1.07 0 01.47-.101c.185 0 .346.039.484.115a.798.798 0 01.318.318 1 1 0 01.11.479h.555a1.4 1.4 0 00-.195-.743 1.35 1.35 0 00-.532-.498 1.598 1.598 0 00-.759-.179c-.282 0-.532.06-.75.179-.218.119-.389.28-.512.482a1.265 1.265 0 00-.186.675c0 .177.032.35.096.519.063.168.173.355.329.562.156.205.371.456.647.752l1.081 1.157v.038h-2.238v.517h3.038zm-5.579.066c.354 0 .656-.097.905-.29.249-.194.44-.475.571-.844.132-.369.198-.816.198-1.339 0-.521-.066-.965-.198-1.333-.133-.37-.324-.652-.573-.847a1.423 1.423 0 00-.903-.294 1.41 1.41 0 00-.9.294c-.251.195-.442.477-.574.847-.133.368-.2.812-.2 1.333 0 .523.066.97.198 1.339.131.369.322.65.571.844.249.193.551.29.905.29zm0-.518c-.351 0-.624-.169-.818-.507-.194-.339-.292-.822-.292-1.448 0-.417.045-.772.134-1.065.088-.294.215-.517.381-.67a.84.84 0 01.595-.231c.348 0 .62.172.816.515.196.342.294.825.294 1.451 0 .416-.044.771-.132 1.062-.088.292-.214.513-.378.665a.859.859 0 01-.6.228zm3.952-60.635c.31 0 .587-.053.83-.16.241-.106.433-.255.576-.444.141-.191.217-.413.23-.665h-.592a.704.704 0 01-.16.402.924.924 0 01-.369.258 1.349 1.349 0 01-.506.092c-.207 0-.39-.036-.55-.108a.906.906 0 01-.376-.301.756.756 0 01-.136-.447c0-.177.044-.333.131-.468a.871.871 0 01.386-.319c.169-.077.376-.116.62-.116h.386v-.517h-.386c-.191 0-.358-.034-.503-.103a.804.804 0 01-.34-.292.772.772 0 01-.125-.442c0-.163.036-.305.108-.425a.733.733 0 01.306-.282.978.978 0 01.46-.101c.167 0 .323.03.471.091.145.06.264.147.357.261a.677.677 0 01.15.409h.565a1.157 1.157 0 00-.228-.663 1.438 1.438 0 00-.56-.446 1.803 1.803 0 00-.764-.16c-.298 0-.553.06-.766.181a1.242 1.242 0 00-.663 1.107c0 .271.071.502.214.694.141.191.333.323.576.397v.037c-.304.051-.542.18-.713.388a1.168 1.168 0 00-.256.769c0 .262.071.497.214.705.141.207.334.37.578.489.245.119.523.179.835.179zm-4.159 0c.354 0 .656-.096.905-.289.249-.194.44-.476.572-.844.131-.37.197-.817.197-1.34 0-.52-.066-.965-.197-1.333-.134-.37-.325-.652-.574-.846a1.423 1.423 0 00-.903-.294 1.41 1.41 0 00-.9.294c-.251.194-.442.476-.574.846-.133.368-.2.813-.2 1.333 0 .523.066.97.198 1.34.131.368.322.65.571.844.249.193.551.289.905.289zm0-.517c-.351 0-.624-.169-.818-.508-.194-.338-.291-.821-.291-1.448 0-.417.044-.772.134-1.065.087-.293.214-.516.38-.67a.84.84 0 01.595-.23c.348 0 .62.171.816.514.196.342.294.826.294 1.451 0 .417-.044.771-.132 1.063-.088.291-.214.513-.378.665a.857.857 0 01-.6.228zm5.898-59.613v-.479l-2.115-3.348h-.348v.743h.235l1.598 2.53v.037h-2.849v.517h3.479zm-2.266.988v-4.815h-.555v4.815h.555zm-3.664.066c.354 0 .656-.097.905-.29.249-.194.44-.475.571-.844.132-.369.198-.816.198-1.34 0-.52-.066-.964-.198-1.332-.133-.37-.324-.652-.573-.847a1.423 1.423 0 00-.903-.294c-.351 0-.651.098-.901.294-.25.195-.441.477-.573.847-.133.368-.2.812-.2 1.332 0 .524.066.971.198 1.34.131.369.322.65.571.844.249.193.551.29.905.29zm0-.518c-.351 0-.624-.169-.818-.507-.195-.339-.292-.822-.292-1.449 0-.416.045-.771.134-1.064.088-.294.215-.517.381-.67a.84.84 0 01.595-.231c.348 0 .62.172.816.515.195.342.293.825.293 1.45 0 .417-.043.772-.131 1.063-.088.292-.214.513-.379.665a.856.856 0 01-.599.228zm4.313-56.191c.276 0 .524-.055.745-.165.221-.11.398-.26.532-.451.133-.192.206-.409.218-.654h-.564a.777.777 0 01-.296.541.988.988 0 01-.635.211c-.197 0-.373-.046-.527-.138a.988.988 0 01-.364-.381 1.134 1.134 0 01-.134-.553c0-.21.046-.397.139-.561.091-.167.216-.297.376-.393.16-.096.342-.144.548-.146a1.52 1.52 0 01.453.068c.156.046.283.105.384.177l.545-.066-.292-2.37h-2.501v.517h2.013l.169 1.42h-.028a1.426 1.426 0 00-.837-.272 1.48 1.48 0 00-1.333.785c-.133.243-.2.52-.2.832 0 .307.069.581.207.823.136.24.324.429.564.569.24.138.512.207.818.207zm-4.093 0c.354 0 .656-.097.905-.29.249-.194.439-.475.571-.843.132-.37.197-.817.197-1.34 0-.521-.065-.965-.197-1.333-.133-.37-.324-.652-.574-.847a1.418 1.418 0 00-.902-.294c-.351 0-.652.098-.901.294-.25.195-.442.477-.573.847-.134.368-.2.812-.2 1.333 0 .523.066.97.197 1.34.132.368.322.649.572.843.249.193.55.29.905.29zm0-.518c-.351 0-.624-.169-.818-.507-.195-.339-.292-.822-.292-1.448 0-.417.045-.772.134-1.065.088-.293.215-.517.381-.67a.839.839 0 01.595-.231c.348 0 .619.172.815.515.196.342.294.825.294 1.451 0 .416-.044.771-.131 1.062-.088.292-.214.513-.379.665a.856.856 0 01-.599.228zm3.999-58.595c.198-.003.395-.041.592-.113.198-.072.378-.194.541-.364.163-.173.294-.406.393-.699.098-.294.148-.664.148-1.11 0-.426-.04-.803-.12-1.132a2.562 2.562 0 00-.348-.835 1.566 1.566 0 00-.55-.517 1.506 1.506 0 00-.731-.176c-.27 0-.51.054-.72.162a1.375 1.375 0 00-.517.446 1.563 1.563 0 00-.258.661h.573c.054-.216.157-.396.311-.538.153-.143.357-.214.611-.214.373 0 .667.162.881.486.214.325.321.78.322 1.366h-.037a1.412 1.412 0 00-1.185-.64c-.276 0-.528.07-.757.208a1.527 1.527 0 00-.55.566c-.138.24-.207.515-.207.825 0 .298.067.57.2.818.133.246.32.442.562.588.24.144.522.215.846.212zm0-.517a.974.974 0 01-.531-.149 1.116 1.116 0 01-.513-.952c0-.199.045-.38.134-.543a1.02 1.02 0 01.365-.392.961.961 0 01.526-.146 1.049 1.049 0 01.755.329c.095.102.171.219.226.35a1.118 1.118 0 01-.424 1.35.97.97 0 01-.538.152zm-4.103.517c.354 0 .656-.097.905-.29.249-.194.44-.475.572-.843.131-.37.197-.817.197-1.34 0-.52-.066-.965-.197-1.333-.134-.37-.325-.652-.574-.847a1.424 1.424 0 00-.903-.293c-.351 0-.651.098-.9.293-.251.195-.442.477-.574.847-.133.368-.2.812-.2 1.333 0 .523.066.97.198 1.34.132.368.322.65.571.843.249.193.551.29.905.29zm0-.517c-.351 0-.624-.17-.818-.508-.194-.339-.291-.822-.291-1.448 0-.417.044-.772.134-1.065.087-.293.214-.517.38-.67a.842.842 0 01.595-.23c.348 0 .62.17.816.514.196.342.294.825.294 1.45 0 .417-.044.772-.132 1.063-.088.292-.214.514-.378.665a.857.857 0 01-.6.228zm5.551-60.702l-2.153-4.26v-.037h2.482v-.517h-3.084v.545l2.144 4.27h.611zm-5.098.066c.354 0 .656-.096.905-.289.249-.194.439-.476.571-.844.132-.37.198-.816.198-1.34 0-.52-.066-.965-.198-1.333-.133-.37-.324-.652-.574-.846a1.419 1.419 0 00-.902-.294c-.351 0-.651.098-.901.294-.25.194-.442.476-.573.846-.133.368-.2.813-.2 1.333 0 .524.066.97.197 1.34.132.368.322.65.572.844.249.193.551.29.905.29zm0-.517c-.351 0-.624-.17-.818-.508-.195-.338-.292-.821-.292-1.448 0-.417.045-.772.134-1.065.088-.293.215-.516.381-.67a.842.842 0 01.595-.23c.348 0 .62.171.815.515.196.341.294.825.294 1.45 0 .417-.044.771-.131 1.063-.088.291-.214.513-.379.665a.856.856 0 01-.599.228z" fill="#F5F7F6"/><path style="mix-blend-mode:overlay" d="M81.457 160.912h81.748l78.947-57.729 78.255 61.845 80.984-29.538 76.873 116.841h81.021l79.565 58.931 77.564-90.035 78.91 30.23v151.006H80.948l.509-241.551z" fill="url(#paint0_linear_1158_1310)"/><path d="M639.14 314.03l77.892-90.363 77.564 29.721 1.492-3.861-80.293-30.74-77.273 89.671-78.583-58.203h-80.547l-77.164-117.242-81.457 29.684-78.583-62.099-79.675 58.275H81.457v4.115h82.402l78.22-57.219 77.928 61.59 80.547-29.356 76.618 116.368h81.421l80.547 59.659z" fill="#9B996C"/><path d="M786.52 251.312a8.855 8.855 0 005.441 8.206 8.835 8.835 0 009.651-1.912 8.857 8.857 0 00-1.363-13.632 8.822 8.822 0 00-4.925-1.476 8.793 8.793 0 00-8.134 5.441 8.828 8.828 0 00-.67 3.373zm-78.947-30.085a8.847 8.847 0 005.432 8.203 8.83 8.83 0 009.647-1.895 8.858 8.858 0 00-1.323-13.628 8.838 8.838 0 00-4.916-1.494 8.804 8.804 0 00-8.84 8.814zm-77.564 90.035a8.856 8.856 0 005.532 8.099 8.832 8.832 0 009.597-1.988 8.858 8.858 0 00-1.388-13.586 8.843 8.843 0 00-8.309-.801 8.86 8.86 0 00-4.791 4.856 8.88 8.88 0 00-.641 3.42zm-79.565-58.931a8.856 8.856 0 005.457 8.177 8.835 8.835 0 0012.054-6.45 8.86 8.86 0 00-3.759-9.085 8.83 8.83 0 00-4.912-1.492 8.816 8.816 0 00-6.262 2.581 8.839 8.839 0 00-2.578 6.269zm-80.985 0a8.858 8.858 0 005.466 8.181 8.836 8.836 0 009.639-1.935 8.856 8.856 0 00-1.379-13.622 8.833 8.833 0 00-4.921-1.474 8.8 8.8 0 00-8.145 5.466 8.846 8.846 0 00-.66 3.384zM392.587 135.49a8.82 8.82 0 005.435 8.143 8.798 8.798 0 0012.004-6.424 8.822 8.822 0 00-3.744-9.048 8.798 8.798 0 00-11.116 1.096 8.82 8.82 0 00-2.579 6.233zm-81.02 29.538a8.847 8.847 0 005.432 8.203 8.831 8.831 0 009.647-1.895 8.858 8.858 0 00-1.323-13.628 8.834 8.834 0 00-11.154 1.085 8.857 8.857 0 00-2.602 6.235zm-78.256-61.844a8.856 8.856 0 005.432 8.202 8.832 8.832 0 009.647-1.895 8.852 8.852 0 001.933-9.65 8.847 8.847 0 00-8.171-5.472 8.836 8.836 0 00-6.239 2.58 8.857 8.857 0 00-2.602 6.235zm-78.91 57.728a8.808 8.808 0 0010.522 8.645 8.804 8.804 0 006.918-6.925 8.814 8.814 0 00-8.635-10.534 8.8 8.8 0 00-6.226 2.582 8.82 8.82 0 00-2.579 6.232zm-81.748.365a8.818 8.818 0 005.46 8.117 8.8 8.8 0 0011.982-6.448 8.822 8.822 0 00-3.75-9.037 8.796 8.796 0 00-11.126 1.111 8.829 8.829 0 00-2.566 6.257z" fill="#C3C585"/></g><defs><linearGradient id="paint0_linear_1158_1310" x1="438.136" y1="448.864" x2="438.136" y2="154.721" gradientUnits="userSpaceOnUse"><stop offset=".01" stop-color="#fff" stop-opacity="0"/><stop offset=".23" stop-color="#fff" stop-opacity=".3"/><stop offset=".44" stop-color="#fff" stop-opacity=".55"/><stop offset=".62" stop-color="#fff" stop-opacity=".74"/><stop offset=".78" stop-color="#fff" stop-opacity=".88"/><stop offset=".92" stop-color="#fff" stop-opacity=".97"/><stop offset="1" stop-color="#fff"/></linearGradient><clipPath id="clip0_1158_1310"><path fill="#fff" transform="matrix(-1 0 0 1 916 0)" d="M0 0h916v454H0z"/></clipPath></defs></svg>