<svg width="172" height="225" viewBox="0 0 172 225" fill="none" xmlns="http://www.w3.org/2000/svg"><path fill-rule="evenodd" clip-rule="evenodd" d="M129.333.657c16.199 2.565 30.276 12.933 37.419 27.56 2.403 4.921 3.652 8.842 4.524 14.197.965 5.927.965 104.044 0 109.97-1.928 11.84-7.609 21.998-16.799 30.038-8.633 7.552-18.922 11.624-30.882 12.223l-4.856.243-33.767 14.939c-18.572 8.217-34.016 15.042-34.32 15.166-.435.178-.551-2.977-.551-14.926v-15.153l-3.636-.302c-22.516-1.87-40.917-17.926-45.656-39.837-.758-3.504-.808-7.049-.808-57.376 0-59.934-.166-56.501 3.146-65.07 2.563-6.628 5.895-11.759 11.11-17.102C22.048 7.247 31.65 2.29 42.464.666c5.88-.883 81.301-.89 86.87-.009zM43.418 13.895c-15.035 2.824-26.863 14.607-29.7 29.583-.607 3.212-.695 10.017-.695 53.921 0 43.915.088 50.709.696 53.922 2.64 13.94 13.24 25.322 27.052 29.049 2.762.745 5.106.947 12.971 1.117l9.6.207v11.383c0 7.295.16 11.384.442 11.384.243 0 11.912-5.084 25.933-11.296l25.491-11.295 6.18-.326c7.176-.378 11.476-1.363 16.171-3.705 8.8-4.388 15.044-11.099 18.593-19.984 2.567-6.428 2.534-5.637 2.534-60.456 0-43.904-.088-50.71-.696-53.921-2.775-14.658-14.25-26.35-28.878-29.426-3.439-.723-7.009-.791-42.878-.82-33.862-.026-39.622.063-42.816.663zm49.057 70.314v30.997H79.233V53.212h13.242v30.997zm-3.595 39.798c3.046 1.284 5.791 5.03 5.796 7.907.01 5.652-5.237 9.888-10.785 8.71-4.155-.883-7.396-5.532-6.643-9.529.832-4.418 3.848-7.173 8.094-7.395 1.374-.073 2.967.065 3.538.307z" fill="#393838"/></svg>