<svg width="758" height="565" viewBox="0 0 758 565" fill="none" xmlns="http://www.w3.org/2000/svg"><mask id="a" fill="#fff"><path d="M0 0h36.6v36.6H0V0zm384.292 0h36.599v36.6h-36.599V0zM192.146 0h36.599v36.6h-36.599V0zm384.291 0h36.599v36.6h-36.599V0zM48.036 0h36.6v36.6h-36.6V0zm384.292 0h36.599v36.6h-36.599V0zM240.182 0h36.599v36.6h-36.599V0zm384.292 0h36.599v36.6h-36.599V0zM96.073 0h36.599v36.6h-36.6V0zm384.291 0h36.6v36.6h-36.6V0zM288.219 0h36.599v36.6h-36.599V0zM672.51 0h36.599v36.6H672.51V0zM144.109 0h36.599v36.6h-36.599V0zm384.292 0H565v36.6h-36.599V0zM336.255 0h36.599v36.6h-36.599V0zm384.292 0h36.599v36.6h-36.599V0zM0 288.219h36.6v36.599H0v-36.599zm384.292 0h36.599v36.599h-36.599v-36.599zm-192.146 0h36.599v36.599h-36.599v-36.599zm384.291 0h36.599v36.599h-36.599v-36.599zm-528.401 0h36.6v36.599h-36.6v-36.599zm384.292 0h36.599v36.599h-36.599v-36.599zm-192.146 0h36.599v36.599h-36.599v-36.599zm384.292 0h36.599v36.599h-36.599v-36.599zm-528.401 0h36.599v36.599h-36.6v-36.599zm384.291 0h36.6v36.599h-36.6v-36.599zm-192.145 0h36.599v36.599h-36.599v-36.599zm384.291 0h36.599v36.599H672.51v-36.599zm-528.401 0h36.599v36.599h-36.599v-36.599zm384.292 0H565v36.599h-36.599v-36.599zm-192.146 0h36.599v36.599h-36.599v-36.599zm384.292 0h36.599v36.599h-36.599v-36.599zM0 96.073h36.6v36.599H0v-36.6zm384.292 0h36.599v36.599h-36.599v-36.6zm-192.146 0h36.599v36.599h-36.599v-36.6zm384.291 0h36.599v36.599h-36.599v-36.6zm-528.401 0h36.6v36.599h-36.6v-36.6zm384.292 0h36.599v36.599h-36.599v-36.6zm-192.146 0h36.599v36.599h-36.599v-36.6zm384.292 0h36.599v36.599h-36.599v-36.6zm-528.401 0h36.599v36.599h-36.6v-36.6zm384.291 0h36.6v36.599h-36.6v-36.6zm-192.145 0h36.599v36.599h-36.599v-36.6zm384.291 0h36.599v36.599H672.51v-36.6zm-528.401 0h36.599v36.599h-36.599v-36.6zm384.292 0H565v36.599h-36.599v-36.6zm-192.146 0h36.599v36.599h-36.599v-36.6zm384.292 0h36.599v36.599h-36.599v-36.6zM0 384.292h36.6v36.599H0v-36.599zm384.292 0h36.599v36.599h-36.599v-36.599zm-192.146 0h36.599v36.599h-36.599v-36.599zm384.291 0h36.599v36.599h-36.599v-36.599zm-528.401 0h36.6v36.599h-36.6v-36.599zm384.292 0h36.599v36.599h-36.599v-36.599zm-192.146 0h36.599v36.599h-36.599v-36.599zm384.292 0h36.599v36.599h-36.599v-36.599zm-528.401 0h36.599v36.599h-36.6v-36.599zm384.291 0h36.6v36.599h-36.6v-36.599zm-192.145 0h36.599v36.599h-36.599v-36.599zm384.291 0h36.599v36.599H672.51v-36.599zm-528.401 0h36.599v36.599h-36.599v-36.599zm384.292 0H565v36.599h-36.599v-36.599zm-192.146 0h36.599v36.599h-36.599v-36.599zm384.292 0h36.599v36.599h-36.599v-36.599zM0 192.146h36.6v36.599H0v-36.599zm384.292 0h36.599v36.599h-36.599v-36.599zm-192.146 0h36.599v36.599h-36.599v-36.599zm384.291 0h36.599v36.599h-36.599v-36.599zm-528.401 0h36.6v36.599h-36.6v-36.599zm384.292 0h36.599v36.599h-36.599v-36.599zm-192.146 0h36.599v36.599h-36.599v-36.599zm384.292 0h36.599v36.599h-36.599v-36.599zm-528.401 0h36.599v36.599h-36.6v-36.599zm384.291 0h36.6v36.599h-36.6v-36.599zm-192.145 0h36.599v36.599h-36.599v-36.599zm384.291 0h36.599v36.599H672.51v-36.599zm-528.401 0h36.599v36.599h-36.599v-36.599zm384.292 0H565v36.599h-36.599v-36.599zm-192.146 0h36.599v36.599h-36.599v-36.599zm384.292 0h36.599v36.599h-36.599v-36.599zM0 480.364h36.6v36.6H0v-36.6zm384.292 0h36.599v36.6h-36.599v-36.6zm-192.146 0h36.599v36.6h-36.599v-36.6zm384.291 0h36.599v36.6h-36.599v-36.6zm-528.401 0h36.6v36.6h-36.6v-36.6zm384.292 0h36.599v36.6h-36.599v-36.6zm-192.146 0h36.599v36.6h-36.599v-36.6zm384.292 0h36.599v36.6h-36.599v-36.6zm-528.401 0h36.599v36.6h-36.6v-36.6zm384.291 0h36.6v36.6h-36.6v-36.6zm-192.145 0h36.599v36.6h-36.599v-36.6zm384.291 0h36.599v36.6H672.51v-36.6zm-528.401 0h36.599v36.6h-36.599v-36.6zm384.292 0H565v36.6h-36.599v-36.6zm-192.146 0h36.599v36.6h-36.599v-36.6zm384.292 0h36.599v36.6h-36.599v-36.6zM0 48.036h36.6v36.6H0v-36.6zm384.292 0h36.599v36.6h-36.599v-36.6zm-192.146 0h36.599v36.6h-36.599v-36.6zm384.291 0h36.599v36.6h-36.599v-36.6zm-528.401 0h36.6v36.6h-36.6v-36.6zm384.292 0h36.599v36.6h-36.599v-36.6zm-192.146 0h36.599v36.6h-36.599v-36.6zm384.292 0h36.599v36.6h-36.599v-36.6zm-528.401 0h36.599v36.6h-36.6v-36.6zm384.291 0h36.6v36.6h-36.6v-36.6zm-192.145 0h36.599v36.6h-36.599v-36.6zm384.291 0h36.599v36.6H672.51v-36.6zm-528.401 0h36.599v36.6h-36.599v-36.6zm384.292 0H565v36.6h-36.599v-36.6zm-192.146 0h36.599v36.6h-36.599v-36.6zm384.292 0h36.599v36.6h-36.599v-36.6zM0 336.255h36.6v36.599H0v-36.599zm384.292 0h36.599v36.599h-36.599v-36.599zm-192.146 0h36.599v36.599h-36.599v-36.599zm384.291 0h36.599v36.599h-36.599v-36.599zm-528.401 0h36.6v36.599h-36.6v-36.599zm384.292 0h36.599v36.599h-36.599v-36.599zm-192.146 0h36.599v36.599h-36.599v-36.599zm384.292 0h36.599v36.599h-36.599v-36.599zm-528.401 0h36.599v36.599h-36.6v-36.599zm384.291 0h36.6v36.599h-36.6v-36.599zm-192.145 0h36.599v36.599h-36.599v-36.599zm384.291 0h36.599v36.599H672.51v-36.599zm-528.401 0h36.599v36.599h-36.599v-36.599zm384.292 0H565v36.599h-36.599v-36.599zm-192.146 0h36.599v36.599h-36.599v-36.599zm384.292 0h36.599v36.599h-36.599v-36.599zM0 144.109h36.6v36.599H0v-36.599zm384.292 0h36.599v36.599h-36.599v-36.599zm-192.146 0h36.599v36.599h-36.599v-36.599zm384.291 0h36.599v36.599h-36.599v-36.599zm-528.401 0h36.6v36.599h-36.6v-36.599zm384.292 0h36.599v36.599h-36.599v-36.599zm-192.146 0h36.599v36.599h-36.599v-36.599zm384.292 0h36.599v36.599h-36.599v-36.599zm-528.401 0h36.599v36.599h-36.6v-36.599zm384.291 0h36.6v36.599h-36.6v-36.599zm-192.145 0h36.599v36.599h-36.599v-36.599zm384.291 0h36.599v36.599H672.51v-36.599zm-528.401 0h36.599v36.599h-36.599v-36.599zm384.292 0H565v36.599h-36.599v-36.599zm-192.146 0h36.599v36.599h-36.599v-36.599zm384.292 0h36.599v36.599h-36.599v-36.599zM0 432.328h36.6v36.599H0v-36.599zm384.292 0h36.599v36.599h-36.599v-36.599zm-192.146 0h36.599v36.599h-36.599v-36.599zm384.291 0h36.599v36.599h-36.599v-36.599zm-528.401 0h36.6v36.599h-36.6v-36.599zm384.292 0h36.599v36.599h-36.599v-36.599zm-192.146 0h36.599v36.599h-36.599v-36.599zm384.292 0h36.599v36.599h-36.599v-36.599zm-528.401 0h36.599v36.599h-36.6v-36.599zm384.291 0h36.6v36.599h-36.6v-36.599zm-192.145 0h36.599v36.599h-36.599v-36.599zm384.291 0h36.599v36.599H672.51v-36.599zm-528.401 0h36.599v36.599h-36.599v-36.599zm384.292 0H565v36.599h-36.599v-36.599zm-192.146 0h36.599v36.599h-36.599v-36.599zm384.292 0h36.599v36.599h-36.599v-36.599zM0 240.182h36.6v36.599H0v-36.599zm384.292 0h36.599v36.599h-36.599v-36.599zm-192.146 0h36.599v36.599h-36.599v-36.599zm384.291 0h36.599v36.599h-36.599v-36.599zm-528.401 0h36.6v36.599h-36.6v-36.599zm384.292 0h36.599v36.599h-36.599v-36.599zm-192.146 0h36.599v36.599h-36.599v-36.599zm384.292 0h36.599v36.599h-36.599v-36.599zm-528.401 0h36.599v36.599h-36.6v-36.599zm384.291 0h36.6v36.599h-36.6v-36.599zm-192.145 0h36.599v36.599h-36.599v-36.599zm384.291 0h36.599v36.599H672.51v-36.599zm-528.401 0h36.599v36.599h-36.599v-36.599zm384.292 0H565v36.599h-36.599v-36.599zm-192.146 0h36.599v36.599h-36.599v-36.599zm384.292 0h36.599v36.599h-36.599v-36.599zM0 528.401h36.6V565H0v-36.599zm384.292 0h36.599V565h-36.599v-36.599zm-192.146 0h36.599V565h-36.599v-36.599zm384.291 0h36.599V565h-36.599v-36.599zm-528.401 0h36.6V565h-36.6v-36.599zm384.292 0h36.599V565h-36.599v-36.599zm-192.146 0h36.599V565h-36.599v-36.599zm384.292 0h36.599V565h-36.599v-36.599zm-528.401 0h36.599V565h-36.6v-36.599zm384.291 0h36.6V565h-36.6v-36.599zm-192.145 0h36.599V565h-36.599v-36.599zm384.291 0h36.599V565H672.51v-36.599zm-528.401 0h36.599V565h-36.599v-36.599zm384.292 0H565V565h-36.599v-36.599zm-192.146 0h36.599V565h-36.599v-36.599zm384.292 0h36.599V565h-36.599v-36.599z"/></mask><path d="M0 0h36.6v36.6H0V0zm384.292 0h36.599v36.6h-36.599V0zM192.146 0h36.599v36.6h-36.599V0zm384.291 0h36.599v36.6h-36.599V0zM48.036 0h36.6v36.6h-36.6V0zm384.292 0h36.599v36.6h-36.599V0zM240.182 0h36.599v36.6h-36.599V0zm384.292 0h36.599v36.6h-36.599V0zM96.073 0h36.599v36.6h-36.6V0zm384.291 0h36.6v36.6h-36.6V0zM288.219 0h36.599v36.6h-36.599V0zM672.51 0h36.599v36.6H672.51V0zM144.109 0h36.599v36.6h-36.599V0zm384.292 0H565v36.6h-36.599V0zM336.255 0h36.599v36.6h-36.599V0zm384.292 0h36.599v36.6h-36.599V0zM0 288.219h36.6v36.599H0v-36.599zm384.292 0h36.599v36.599h-36.599v-36.599zm-192.146 0h36.599v36.599h-36.599v-36.599zm384.291 0h36.599v36.599h-36.599v-36.599zm-528.401 0h36.6v36.599h-36.6v-36.599zm384.292 0h36.599v36.599h-36.599v-36.599zm-192.146 0h36.599v36.599h-36.599v-36.599zm384.292 0h36.599v36.599h-36.599v-36.599zm-528.401 0h36.599v36.599h-36.6v-36.599zm384.291 0h36.6v36.599h-36.6v-36.599zm-192.145 0h36.599v36.599h-36.599v-36.599zm384.291 0h36.599v36.599H672.51v-36.599zm-528.401 0h36.599v36.599h-36.599v-36.599zm384.292 0H565v36.599h-36.599v-36.599zm-192.146 0h36.599v36.599h-36.599v-36.599zm384.292 0h36.599v36.599h-36.599v-36.599zM0 96.073h36.6v36.599H0v-36.6zm384.292 0h36.599v36.599h-36.599v-36.6zm-192.146 0h36.599v36.599h-36.599v-36.6zm384.291 0h36.599v36.599h-36.599v-36.6zm-528.401 0h36.6v36.599h-36.6v-36.6zm384.292 0h36.599v36.599h-36.599v-36.6zm-192.146 0h36.599v36.599h-36.599v-36.6zm384.292 0h36.599v36.599h-36.599v-36.6zm-528.401 0h36.599v36.599h-36.6v-36.6zm384.291 0h36.6v36.599h-36.6v-36.6zm-192.145 0h36.599v36.599h-36.599v-36.6zm384.291 0h36.599v36.599H672.51v-36.6zm-528.401 0h36.599v36.599h-36.599v-36.6zm384.292 0H565v36.599h-36.599v-36.6zm-192.146 0h36.599v36.599h-36.599v-36.6zm384.292 0h36.599v36.599h-36.599v-36.6zM0 384.292h36.6v36.599H0v-36.599zm384.292 0h36.599v36.599h-36.599v-36.599zm-192.146 0h36.599v36.599h-36.599v-36.599zm384.291 0h36.599v36.599h-36.599v-36.599zm-528.401 0h36.6v36.599h-36.6v-36.599zm384.292 0h36.599v36.599h-36.599v-36.599zm-192.146 0h36.599v36.599h-36.599v-36.599zm384.292 0h36.599v36.599h-36.599v-36.599zm-528.401 0h36.599v36.599h-36.6v-36.599zm384.291 0h36.6v36.599h-36.6v-36.599zm-192.145 0h36.599v36.599h-36.599v-36.599zm384.291 0h36.599v36.599H672.51v-36.599zm-528.401 0h36.599v36.599h-36.599v-36.599zm384.292 0H565v36.599h-36.599v-36.599zm-192.146 0h36.599v36.599h-36.599v-36.599zm384.292 0h36.599v36.599h-36.599v-36.599zM0 192.146h36.6v36.599H0v-36.599zm384.292 0h36.599v36.599h-36.599v-36.599zm-192.146 0h36.599v36.599h-36.599v-36.599zm384.291 0h36.599v36.599h-36.599v-36.599zm-528.401 0h36.6v36.599h-36.6v-36.599zm384.292 0h36.599v36.599h-36.599v-36.599zm-192.146 0h36.599v36.599h-36.599v-36.599zm384.292 0h36.599v36.599h-36.599v-36.599zm-528.401 0h36.599v36.599h-36.6v-36.599zm384.291 0h36.6v36.599h-36.6v-36.599zm-192.145 0h36.599v36.599h-36.599v-36.599zm384.291 0h36.599v36.599H672.51v-36.599zm-528.401 0h36.599v36.599h-36.599v-36.599zm384.292 0H565v36.599h-36.599v-36.599zm-192.146 0h36.599v36.599h-36.599v-36.599zm384.292 0h36.599v36.599h-36.599v-36.599zM0 480.364h36.6v36.6H0v-36.6zm384.292 0h36.599v36.6h-36.599v-36.6zm-192.146 0h36.599v36.6h-36.599v-36.6zm384.291 0h36.599v36.6h-36.599v-36.6zm-528.401 0h36.6v36.6h-36.6v-36.6zm384.292 0h36.599v36.6h-36.599v-36.6zm-192.146 0h36.599v36.6h-36.599v-36.6zm384.292 0h36.599v36.6h-36.599v-36.6zm-528.401 0h36.599v36.6h-36.6v-36.6zm384.291 0h36.6v36.6h-36.6v-36.6zm-192.145 0h36.599v36.6h-36.599v-36.6zm384.291 0h36.599v36.6H672.51v-36.6zm-528.401 0h36.599v36.6h-36.599v-36.6zm384.292 0H565v36.6h-36.599v-36.6zm-192.146 0h36.599v36.6h-36.599v-36.6zm384.292 0h36.599v36.6h-36.599v-36.6zM0 48.036h36.6v36.6H0v-36.6zm384.292 0h36.599v36.6h-36.599v-36.6zm-192.146 0h36.599v36.6h-36.599v-36.6zm384.291 0h36.599v36.6h-36.599v-36.6zm-528.401 0h36.6v36.6h-36.6v-36.6zm384.292 0h36.599v36.6h-36.599v-36.6zm-192.146 0h36.599v36.6h-36.599v-36.6zm384.292 0h36.599v36.6h-36.599v-36.6zm-528.401 0h36.599v36.6h-36.6v-36.6zm384.291 0h36.6v36.6h-36.6v-36.6zm-192.145 0h36.599v36.6h-36.599v-36.6zm384.291 0h36.599v36.6H672.51v-36.6zm-528.401 0h36.599v36.6h-36.599v-36.6zm384.292 0H565v36.6h-36.599v-36.6zm-192.146 0h36.599v36.6h-36.599v-36.6zm384.292 0h36.599v36.6h-36.599v-36.6zM0 336.255h36.6v36.599H0v-36.599zm384.292 0h36.599v36.599h-36.599v-36.599zm-192.146 0h36.599v36.599h-36.599v-36.599zm384.291 0h36.599v36.599h-36.599v-36.599zm-528.401 0h36.6v36.599h-36.6v-36.599zm384.292 0h36.599v36.599h-36.599v-36.599zm-192.146 0h36.599v36.599h-36.599v-36.599zm384.292 0h36.599v36.599h-36.599v-36.599zm-528.401 0h36.599v36.599h-36.6v-36.599zm384.291 0h36.6v36.599h-36.6v-36.599zm-192.145 0h36.599v36.599h-36.599v-36.599zm384.291 0h36.599v36.599H672.51v-36.599zm-528.401 0h36.599v36.599h-36.599v-36.599zm384.292 0H565v36.599h-36.599v-36.599zm-192.146 0h36.599v36.599h-36.599v-36.599zm384.292 0h36.599v36.599h-36.599v-36.599zM0 144.109h36.6v36.599H0v-36.599zm384.292 0h36.599v36.599h-36.599v-36.599zm-192.146 0h36.599v36.599h-36.599v-36.599zm384.291 0h36.599v36.599h-36.599v-36.599zm-528.401 0h36.6v36.599h-36.6v-36.599zm384.292 0h36.599v36.599h-36.599v-36.599zm-192.146 0h36.599v36.599h-36.599v-36.599zm384.292 0h36.599v36.599h-36.599v-36.599zm-528.401 0h36.599v36.599h-36.6v-36.599zm384.291 0h36.6v36.599h-36.6v-36.599zm-192.145 0h36.599v36.599h-36.599v-36.599zm384.291 0h36.599v36.599H672.51v-36.599zm-528.401 0h36.599v36.599h-36.599v-36.599zm384.292 0H565v36.599h-36.599v-36.599zm-192.146 0h36.599v36.599h-36.599v-36.599zm384.292 0h36.599v36.599h-36.599v-36.599zM0 432.328h36.6v36.599H0v-36.599zm384.292 0h36.599v36.599h-36.599v-36.599zm-192.146 0h36.599v36.599h-36.599v-36.599zm384.291 0h36.599v36.599h-36.599v-36.599zm-528.401 0h36.6v36.599h-36.6v-36.599zm384.292 0h36.599v36.599h-36.599v-36.599zm-192.146 0h36.599v36.599h-36.599v-36.599zm384.292 0h36.599v36.599h-36.599v-36.599zm-528.401 0h36.599v36.599h-36.6v-36.599zm384.291 0h36.6v36.599h-36.6v-36.599zm-192.145 0h36.599v36.599h-36.599v-36.599zm384.291 0h36.599v36.599H672.51v-36.599zm-528.401 0h36.599v36.599h-36.599v-36.599zm384.292 0H565v36.599h-36.599v-36.599zm-192.146 0h36.599v36.599h-36.599v-36.599zm384.292 0h36.599v36.599h-36.599v-36.599zM0 240.182h36.6v36.599H0v-36.599zm384.292 0h36.599v36.599h-36.599v-36.599zm-192.146 0h36.599v36.599h-36.599v-36.599zm384.291 0h36.599v36.599h-36.599v-36.599zm-528.401 0h36.6v36.599h-36.6v-36.599zm384.292 0h36.599v36.599h-36.599v-36.599zm-192.146 0h36.599v36.599h-36.599v-36.599zm384.292 0h36.599v36.599h-36.599v-36.599zm-528.401 0h36.599v36.599h-36.6v-36.599zm384.291 0h36.6v36.599h-36.6v-36.599zm-192.145 0h36.599v36.599h-36.599v-36.599zm384.291 0h36.599v36.599H672.51v-36.599zm-528.401 0h36.599v36.599h-36.599v-36.599zm384.292 0H565v36.599h-36.599v-36.599zm-192.146 0h36.599v36.599h-36.599v-36.599zm384.292 0h36.599v36.599h-36.599v-36.599zM0 528.401h36.6V565H0v-36.599zm384.292 0h36.599V565h-36.599v-36.599zm-192.146 0h36.599V565h-36.599v-36.599zm384.291 0h36.599V565h-36.599v-36.599zm-528.401 0h36.6V565h-36.6v-36.599zm384.292 0h36.599V565h-36.599v-36.599zm-192.146 0h36.599V565h-36.599v-36.599zm384.292 0h36.599V565h-36.599v-36.599zm-528.401 0h36.599V565h-36.6v-36.599zm384.291 0h36.6V565h-36.6v-36.599zm-192.145 0h36.599V565h-36.599v-36.599zm384.291 0h36.599V565H672.51v-36.599zm-528.401 0h36.599V565h-36.599v-36.599zm384.292 0H565V565h-36.599v-36.599zm-192.146 0h36.599V565h-36.599v-36.599zm384.292 0h36.599V565h-36.599v-36.599z" stroke="#22211F" stroke-width="6" mask="url(#a)"/></svg>