<svg width="239" height="276" viewBox="0 0 239 276" fill="none" xmlns="http://www.w3.org/2000/svg"><g filter="url(#filter0_f_1124_162)"><path d="M161.557 242.83c-27.21-9.025-58.13-33.789-82.457-69.28-24.328-35.491-36.59-73.12-35.324-101.762L42.26 45.243l22.65-15.38c30.91-17.608 85.547 11.985 124.125 67.977 38.578 55.992 46.721 118.204 18.881 140.521l-23.804 16.546-22.556-12.077z" fill="url(#paint0_linear_1124_162)"/><path d="M184.23 251.614c29.657-20.427 22.035-82.799-16.948-139.401C128.299 55.612 72.825 26.317 43.22 46.574c-29.604 20.258-21.922 82.835 17.023 139.4 38.946 56.564 94.496 85.933 123.987 65.64z" fill="url(#paint1_linear_1124_162)"/><path d="M191.367 249.07c24.536-25.562 15.478-84.911-21.324-138.282-18.943-27.572-42.621-49.64-66.55-62.044C79.015 36.032 57.075 34.89 41.721 45.46a38.687 38.687 0 00-5.905 5.006C11.279 76.03 20.336 135.378 57.139 188.75c39.47 57.546 97.079 86.872 128.249 65.403a38.726 38.726 0 005.979-5.082zM39.634 54.132a33.478 33.478 0 015.15-4.373c13.675-9.432 33.616-8.08 56.333 3.6 22.969 12.144 46.091 33.567 64.609 60.475 35.26 51.157 44.618 107.822 21.822 131.571a33.603 33.603 0 01-5.187 4.411c-28.79 19.829-83.13-8.927-121.053-64.035-35.224-51.232-44.58-107.785-21.674-131.649z" fill="url(#paint2_linear_1124_162)"/><path d="M176.088 229.677c19.57-20.389 12.098-68.091-17.414-110.944-31.847-46.267-78.017-69.97-102.93-52.802a30.542 30.542 0 00-4.747 4.027c-19.534 20.351-12.08 68.072 17.43 110.85 31.849 46.342 78.019 70.045 102.896 52.916a30.634 30.634 0 004.765-4.047zM54.852 73.585a25.796 25.796 0 013.937-3.337c22.478-15.47 65.305 7.664 95.603 51.418 27.565 40.066 35.524 85.962 17.951 104.27a25.447 25.447 0 01-3.937 3.337c-22.479 15.47-65.305-7.664-95.604-51.418-27.66-40.121-35.542-85.943-17.95-104.27z" fill="url(#paint3_linear_1124_162)"/><path d="M79.011 141.811l16.24-11.188-2.855-4.171a49.586 49.586 0 01-5.517-8.964 2.884 2.884 0 014.439-3.478 16.881 16.881 0 014.402 4.776 19.497 19.497 0 014.159 9.309 81.307 81.307 0 01-2.44 15.229 89.328 89.328 0 00-2.357 14.646c.06 3.872.803 7.702 2.197 11.315a65.038 65.038 0 008.056 15.069c6.122 8.908 12.347 14.957 18.676 18.146a21.861 21.861 0 0019.031.808l6.501 9.431 7.474-5.151-6.713-9.744a21.165 21.165 0 006.063-15.564c.137-6.716-3.633-15.653-11.31-26.812l-3.357-4.91-16.26 11.169 4.225 6.146a106.55 106.55 0 018.144 12.915c.805 1.874.553 3.246-.739 4.133a3.123 3.123 0 01-3.632-.038 14.93 14.93 0 01-4.284-4.479 80.431 80.431 0 01-7.538-12.591 20.297 20.297 0 01-.164-11.675 147.978 147.978 0 002.84-17.557 37.435 37.435 0 00-1.852-12.782 55.241 55.241 0 00-7.63-15.209c-5.151-7.512-10.585-12.435-16.267-14.807a21.462 21.462 0 00-17.802.739l-5.535-7.99-7.475 5.112 5.517 8.009a19.453 19.453 0 00-5.896 15.543 41.121 41.121 0 008.233 19.969c.714 1.052 1.868 2.6 3.426 4.646z" fill="url(#paint4_linear_1124_162)"/><path d="M72.937 146.001l16.295-11.245-2.873-4.152a49.027 49.027 0 01-5.408-9.079 2.883 2.883 0 01.991-3.707 2.914 2.914 0 013.448.229 17.473 17.473 0 014.403 4.776 19.765 19.765 0 014.158 9.31 83.26 83.26 0 01-2.44 15.228 89.328 89.328 0 00-2.357 14.646 32.55 32.55 0 002.105 11.374 64.559 64.559 0 008.076 15.087c6.109 8.921 12.328 14.976 18.657 18.165a21.964 21.964 0 0019.05.789l6.482 9.449 7.474-5.15-6.694-9.763a20.99 20.99 0 006.044-15.545c.162-6.741-3.596-15.667-11.311-26.85l-3.375-4.89-16.241 11.187 4.243 6.127a110.62 110.62 0 018.144 12.915c.786 1.855.553 3.245-.739 4.133a3.123 3.123 0 01-3.632-.038 14.48 14.48 0 01-4.284-4.479 80.955 80.955 0 01-7.557-12.609 20.09 20.09 0 01-.217-11.506 155.117 155.117 0 002.823-17.538 36.42 36.42 0 00-1.853-12.782 55.58 55.58 0 00-7.63-15.246c-5.142-7.381-10.558-12.311-16.249-14.79a21.442 21.442 0 00-17.785.646l-5.517-8.01-7.474 5.15 5.517 8.01a19.609 19.609 0 00-5.914 15.524 41.62 41.62 0 008.198 20.119c.749.939 1.884 2.469 3.442 4.515z" fill="url(#paint5_linear_1124_162)"/><path d="M43.085 183.213c39.476 63.419 104.291 94.404 144.767 69.209 40.477-25.196 41.287-97.031 1.811-160.45C150.187 28.554 85.373-2.432 44.896 22.763 4.419 47.96 3.609 119.795 43.085 183.213z" fill="#444445" fill-opacity=".3"/></g><defs><linearGradient id="paint0_linear_1124_162" x1="80.458" y1="12.504" x2="114.077" y2="275.6" gradientUnits="userSpaceOnUse"><stop stop-color="#AA560A"/><stop offset=".02" stop-color="#AA560A"/><stop offset=".03" stop-color="#C2660D"/><stop offset=".04" stop-color="#CC6E0D"/><stop offset=".05" stop-color="#BA610B"/><stop offset=".06" stop-color="#BA610B"/><stop offset=".07" stop-color="#CF700E"/><stop offset=".08" stop-color="#AC570A"/><stop offset=".1" stop-color="#BE640C"/><stop offset=".11" stop-color="#C0640C"/><stop offset=".12" stop-color="#AE560A"/><stop offset=".14" stop-color="#BE620C"/><stop offset=".15" stop-color="#C5670D"/><stop offset=".16" stop-color="#AC550A"/><stop offset=".19" stop-color="#AC550A"/><stop offset=".21" stop-color="#C1640C"/><stop offset=".22" stop-color="#AC550A"/><stop offset=".25" stop-color="#AC550A"/><stop offset=".27" stop-color="#C6620D"/><stop offset=".28" stop-color="#B4530B"/><stop offset=".29" stop-color="#B2510B"/><stop offset=".32" stop-color="#C25E0D"/><stop offset=".33" stop-color="#C6620D"/><stop offset=".34" stop-color="#B4530B"/><stop offset=".35" stop-color="#B2510B"/><stop offset=".37" stop-color="#B2510B"/><stop offset=".38" stop-color="#C25E0D"/><stop offset=".39" stop-color="#C6620D"/><stop offset=".4" stop-color="#B4530B"/><stop offset=".41" stop-color="#B2510B"/><stop offset=".44" stop-color="#C25E0D"/><stop offset=".45" stop-color="#ED8211"/><stop offset=".46" stop-color="#B4530B"/><stop offset=".47" stop-color="#B2510B"/><stop offset=".5" stop-color="#C25E0D"/><stop offset=".51" stop-color="#FF9113"/><stop offset=".52" stop-color="#C6620D"/><stop offset=".53" stop-color="#BB580C"/><stop offset=".54" stop-color="#B4530B"/><stop offset=".55" stop-color="#B2510B"/><stop offset=".57" stop-color="#F98C12"/><stop offset=".58" stop-color="#A84E06"/><stop offset=".59" stop-color="#8C3801"/><stop offset=".6" stop-color="#853200"/><stop offset=".61" stop-color="#833100"/><stop offset=".62" stop-color="#C2610A"/><stop offset=".63" stop-color="#C6690F"/><stop offset=".64" stop-color="#612308"/><stop offset=".65" stop-color="#581D07"/><stop offset=".67" stop-color="#5A1F07"/><stop offset=".68" stop-color="#93470B"/><stop offset=".69" stop-color="#CD6E0F"/><stop offset=".7" stop-color="#7B360A"/><stop offset=".71" stop-color="#5F2208"/><stop offset=".72" stop-color="#581D07"/><stop offset=".74" stop-color="#783409"/><stop offset=".75" stop-color="#E07C11"/><stop offset=".76" stop-color="#CB6D0F"/><stop offset=".77" stop-color="#893F0B"/><stop offset=".78" stop-color="#622508"/><stop offset=".79" stop-color="#591E07"/><stop offset=".8" stop-color="#652708"/><stop offset=".81" stop-color="#B65F0E"/><stop offset=".82" stop-color="#8F3B04"/><stop offset=".83" stop-color="#742700"/><stop offset=".84" stop-color="#7D3C00"/><stop offset=".86" stop-color="#FF9113"/><stop offset=".87" stop-color="#924208"/><stop offset=".88" stop-color="#8F4008"/><stop offset=".89" stop-color="#984609"/><stop offset=".9" stop-color="#F28812"/><stop offset=".91" stop-color="#914208"/><stop offset=".92" stop-color="#8F4008"/><stop offset=".93" stop-color="#8F4008"/><stop offset=".94" stop-color="#AB540A"/><stop offset=".95" stop-color="#914208"/><stop offset="1" stop-color="#8F4008"/></linearGradient><linearGradient id="paint1_linear_1124_162" x1="163.086" y1="9.386" x2="107.463" y2="378.344" gradientUnits="userSpaceOnUse"><stop stop-color="#E89C02"/><stop offset=".06" stop-color="#EAA104"/><stop offset=".12" stop-color="#EFB00A"/><stop offset=".2" stop-color="#F7C814"/><stop offset=".26" stop-color="#FFE21E"/><stop offset=".27" stop-color="#FDDC1B"/><stop offset=".31" stop-color="#F4C010"/><stop offset=".35" stop-color="#EDAC08"/><stop offset=".4" stop-color="#E9A004"/><stop offset=".44" stop-color="#E89C02"/><stop offset=".6" stop-color="#F39502"/><stop offset=".66" stop-color="#BB6B03"/><stop offset=".74" stop-color="#7E3C04"/><stop offset=".76" stop-color="#823F04"/><stop offset=".78" stop-color="#8D4A04"/><stop offset=".8" stop-color="#A05B03"/><stop offset=".82" stop-color="#C17903"/><stop offset=".92" stop-color="#E89C02"/><stop offset="1" stop-color="#C77901"/></linearGradient><linearGradient id="paint2_linear_1124_162" x1="81.596" y1="13.602" x2="116.303" y2="264.803" gradientUnits="userSpaceOnUse"><stop stop-color="#FB9325"/><stop offset=".08" stop-color="#FFB42B"/><stop offset=".18" stop-color="#F18F27"/><stop offset=".2" stop-color="#D67624"/><stop offset=".22" stop-color="#C36422"/><stop offset=".24" stop-color="#B85921"/><stop offset=".26" stop-color="#B45621"/><stop offset=".36" stop-color="#EA932A"/><stop offset=".4" stop-color="#FFAC2D"/><stop offset=".56" stop-color="#FFB42B"/><stop offset=".6" stop-color="#FFB82C"/><stop offset=".64" stop-color="#FFC430"/><stop offset=".69" stop-color="#FFD836"/><stop offset=".73" stop-color="#FFF43F"/><stop offset=".74" stop-color="#FFFD42"/><stop offset=".81" stop-color="#FFE039"/><stop offset=".88" stop-color="#FFC831"/><stop offset=".95" stop-color="#FFB92D"/><stop offset="1" stop-color="#FFB42B"/></linearGradient><linearGradient id="paint3_linear_1124_162" x1="81.085" y1="13.319" x2="115.548" y2="264.582" gradientUnits="userSpaceOnUse"><stop stop-color="#AA560A"/><stop offset=".05" stop-color="#AF5A0B"/><stop offset=".11" stop-color="#BE640C"/><stop offset=".18" stop-color="#D6750F"/><stop offset=".25" stop-color="#F88C12"/><stop offset=".26" stop-color="#FF9113"/><stop offset=".28" stop-color="#EA8211"/><stop offset=".32" stop-color="#CE6F0E"/><stop offset=".36" stop-color="#BA610C"/><stop offset=".4" stop-color="#AE590A"/><stop offset=".44" stop-color="#AA560A"/><stop offset=".6" stop-color="#B2510B"/><stop offset=".64" stop-color="#933F0A"/><stop offset=".74" stop-color="#561C07"/><stop offset=".76" stop-color="#5A1F07"/><stop offset=".78" stop-color="#652608"/><stop offset=".81" stop-color="#783308"/><stop offset=".82" stop-color="#8B4009"/><stop offset=".92" stop-color="#AA560A"/><stop offset="1" stop-color="#8F4008"/></linearGradient><linearGradient id="paint4_linear_1124_162" x1="71.043" y1="13.6" x2="97.425" y2="265.076" gradientUnits="userSpaceOnUse"><stop stop-color="#AA560A"/><stop offset=".05" stop-color="#AF5A0B"/><stop offset=".11" stop-color="#BE640C"/><stop offset=".18" stop-color="#D6750F"/><stop offset=".25" stop-color="#F88C12"/><stop offset=".26" stop-color="#FF9113"/><stop offset=".28" stop-color="#EA8211"/><stop offset=".32" stop-color="#CE6F0E"/><stop offset=".36" stop-color="#BA610C"/><stop offset=".4" stop-color="#AE590A"/><stop offset=".44" stop-color="#AA560A"/><stop offset=".6" stop-color="#B2510B"/><stop offset=".64" stop-color="#933F0A"/><stop offset=".74" stop-color="#561C07"/><stop offset=".76" stop-color="#5A1F07"/><stop offset=".78" stop-color="#652608"/><stop offset=".81" stop-color="#783308"/><stop offset=".82" stop-color="#8B4009"/><stop offset=".92" stop-color="#AA560A"/><stop offset="1" stop-color="#8F4008"/></linearGradient><linearGradient id="paint5_linear_1124_162" x1="142.458" y1="101.348" x2="10.677" y2="257.419" gradientUnits="userSpaceOnUse"><stop stop-color="#FFC601"/><stop offset=".06" stop-color="#FFCB03"/><stop offset=".14" stop-color="#FFDA09"/><stop offset=".22" stop-color="#FFF212"/><stop offset=".26" stop-color="#FFFF17"/><stop offset=".3" stop-color="#FFEA0F"/><stop offset=".34" stop-color="#FFD607"/><stop offset=".39" stop-color="#FFCA03"/><stop offset=".44" stop-color="#FFC601"/><stop offset=".6" stop-color="#FFBA01"/><stop offset=".67" stop-color="#C87602"/><stop offset=".74" stop-color="#963802"/><stop offset=".75" stop-color="#9A3B02"/><stop offset=".77" stop-color="#A54402"/><stop offset=".79" stop-color="#B85402"/><stop offset=".8" stop-color="#D36A01"/><stop offset=".82" stop-color="#FF8E01"/><stop offset=".92" stop-color="#FFC601"/><stop offset="1" stop-color="#FF8E00"/></linearGradient><filter id="filter0_f_1124_162" x="0" y="0" width="238.408" height="275.187" filterUnits="userSpaceOnUse" color-interpolation-filters="sRGB"><feFlood flood-opacity="0" result="BackgroundImageFix"/><feBlend in="SourceGraphic" in2="BackgroundImageFix" result="shape"/><feGaussianBlur stdDeviation="7" result="effect1_foregroundBlur_1124_162"/></filter></defs></svg>