<svg width="32" height="32" viewBox="0 0 32 32" fill="none" xmlns="http://www.w3.org/2000/svg">
<path fill-rule="evenodd" clip-rule="evenodd" d="M28.8872 23.9593C31.8567 23.431 33.0346 19.8039 30.9392 17.6345L30.0347 16.6964C28.8894 15.5104 28.6486 13.7205 29.4382 12.2757L30.0607 11.1371C31.5162 8.47175 29.3817 5.27159 26.3602 5.58428L25.2236 5.70286C23.5598 5.87538 21.9808 4.93302 21.3452 3.38685L20.9114 2.3345C19.7531 -0.48181 15.8986 -0.831138 14.2479 1.73072L13.595 2.74855C12.697 4.14377 10.9877 4.78854 9.38903 4.33569L8.2199 4.00359C5.31112 3.17767 2.66046 5.93576 3.6062 8.80599L4.02482 10.0783C4.53673 11.6374 3.98147 13.3475 2.65181 14.3092L1.56291 15.0942C-0.88819 16.8646 -0.361102 20.6513 2.47827 21.6886L3.62139 22.1048C5.18099 22.6741 6.18526 24.1965 6.09416 25.8527L6.02473 27.0603C5.85554 30.1009 9.18297 32.0761 11.7772 30.4739L12.7447 29.8766C14.1676 28.9968 16.0005 29.1585 17.2478 30.2734L18.0981 31.0346C20.3604 33.0595 23.9698 31.716 24.3559 28.7056L24.5229 27.4182C24.7312 25.7858 25.9785 24.4769 27.6031 24.1879L28.8872 23.9593ZM9.72091 14.2596C8.53658 17.9062 10.5018 21.8094 14.109 22.9781C17.7163 24.1448 21.6011 22.135 22.7855 18.4884C23.9676 14.8419 22.0046 10.9409 18.3952 9.77207C14.788 8.60328 10.9031 10.6131 9.72091 14.2596Z" fill="#FED524"/>
</svg>
