<svg width="168" height="17" viewBox="0 0 168 17" fill="none" xmlns="http://www.w3.org/2000/svg">
<path d="M10.8334 3.17878V14.4169H8.09974V9.80927H2.73366V14.4169H0V3.17878H2.73366V7.60981H8.09974V3.17878H10.8334ZM21.791 12.0087H16.3068L15.2606 14.4169H12.4595L17.7243 3.17878H20.4242L25.7058 14.4169H22.8372L21.791 12.0087ZM20.9304 10.034L19.0574 5.73144L17.1843 10.034H20.9304ZM32.6934 14.6095C31.4892 14.6095 30.3985 14.3634 29.4198 13.871C28.4518 13.368 27.6878 12.6777 27.1248 11.8C26.5741 10.9117 26.298 9.91095 26.298 8.79784C26.298 7.68472 26.5741 6.68935 27.1248 5.81171C27.6878 4.92336 28.4518 4.23302 29.4198 3.74069C30.3985 3.23764 31.4953 2.98613 32.7103 2.98613C33.7335 2.98613 34.657 3.15737 35.4777 3.49987C36.3107 3.84237 37.0071 4.3347 37.5701 4.97688L35.8152 6.5181C35.0159 5.64047 34.0265 5.20164 32.8452 5.20164C32.1135 5.20164 31.4615 5.35683 30.8878 5.66722C30.3141 5.9669 29.8646 6.38967 29.5379 6.93552C29.2234 7.48137 29.0654 8.10214 29.0654 8.79784C29.0654 9.49353 29.2234 10.1143 29.5379 10.6602C29.8646 11.206 30.3141 11.6341 30.8878 11.9445C31.4615 12.2442 32.1135 12.394 32.8452 12.394C34.0265 12.394 35.0159 11.9499 35.8152 11.0615L37.5701 12.6027C37.0071 13.2556 36.3107 13.7533 35.4777 14.0958C34.6447 14.4383 33.7166 14.6095 32.6934 14.6095ZM48.2639 5.29797H44.484V14.4169H41.7841V5.29797H38.0211V3.17878H48.2639V5.29797ZM55.0934 3.17878C56.1396 3.17878 57.0447 3.34468 57.8102 3.67647C58.5864 4.00826 59.1831 4.47919 59.5989 5.08926C60.0146 5.69933 60.2232 6.42178 60.2232 7.25661C60.2232 8.08074 60.0146 8.80319 59.5989 9.42396C59.1831 10.034 58.5864 10.505 57.8102 10.8368C57.0447 11.1578 56.1396 11.3184 55.0934 11.3184H52.7141V14.4169H49.9804V3.17878H55.0934ZM54.9415 9.1992C55.7622 9.1992 56.3866 9.0333 56.8146 8.70151C57.2426 8.35901 57.4558 7.87738 57.4558 7.25661C57.4558 6.62513 57.2426 6.1435 56.8146 5.81171C56.3866 5.46921 55.7622 5.29797 54.9415 5.29797H52.7141V9.1992H54.9415ZM67.8274 14.6095C66.6017 14.6095 65.4926 14.358 64.5032 13.855C63.5245 13.3519 62.7544 12.6616 62.1914 11.784C61.6407 10.8956 61.3645 9.90024 61.3645 8.79784C61.3645 7.69544 61.6407 6.7054 62.1914 5.82776C62.7544 4.93941 63.5245 4.24373 64.5032 3.74069C65.4926 3.23764 66.6017 2.98613 67.8274 2.98613C69.0531 2.98613 70.1561 3.23764 71.1348 3.74069C72.1135 4.24373 72.8836 4.93941 73.4466 5.82776C74.0096 6.7054 74.2903 7.69544 74.2903 8.79784C74.2903 9.90024 74.0096 10.8956 73.4466 11.784C72.8836 12.6616 72.1135 13.3519 71.1348 13.855C70.1561 14.358 69.0531 14.6095 67.8274 14.6095ZM67.8274 12.394C68.5254 12.394 69.1544 12.2442 69.7174 11.9445C70.2804 11.6341 70.7191 11.206 71.0336 10.6602C71.3603 10.1143 71.5229 9.49353 71.5229 8.79784C71.5229 8.10214 71.3603 7.48137 71.0336 6.93552C70.7191 6.38967 70.2804 5.9669 69.7174 5.66722C69.1544 5.35683 68.5254 5.20164 67.8274 5.20164C67.1294 5.20164 66.5005 5.35683 65.9375 5.66722C65.3745 5.9669 64.9312 6.38967 64.6044 6.93552C64.2899 7.48137 64.1319 8.10214 64.1319 8.79784C64.1319 9.49353 64.2899 10.1143 64.6044 10.6602C64.9312 11.206 65.3745 11.6341 65.9375 11.9445C66.5005 12.2442 67.1294 12.394 67.8274 12.394ZM76.3966 3.17878H79.1133V10.4996L84.7494 3.17878H87.3143V14.4169H84.6144V7.11212L78.9783 14.4169H76.3966V3.17878ZM81.847 2.45633C79.6871 2.45633 78.5948 1.63755 78.5734 0H80.4464C80.4679 0.781311 80.9358 1.17197 81.847 1.17197C82.2965 1.17197 82.6401 1.07565 82.8763 0.882994C83.1126 0.679642 83.2353 0.385307 83.2476 0H85.1206C85.1083 0.802722 84.8338 1.41279 84.2938 1.83021C83.7538 2.24762 82.9377 2.45633 81.847 2.45633ZM95.0336 3.17878H104.568V5.2498H97.7503V7.56164H101.024C102.454 7.56164 103.538 7.84527 104.281 8.41253C105.035 8.97979 105.411 9.79857 105.411 10.8689C105.411 11.9927 104.996 12.865 104.163 13.4857C103.331 14.1065 102.155 14.4169 100.636 14.4169H95.0336V3.17878ZM100.484 12.4904C101.182 12.4904 101.716 12.3619 102.087 12.1051C102.458 11.8375 102.644 11.4522 102.644 10.9491C102.644 9.96445 101.924 9.47212 100.484 9.47212H97.7503V12.4904H100.484ZM107.491 3.17878H110.208V10.4996L115.844 3.17878H118.409V14.4169H115.709V7.11212L110.073 14.4169H107.491V3.17878ZM128.066 8.55702C128.753 8.78178 129.287 9.13498 129.669 9.61661C130.063 10.0875 130.26 10.6387 130.26 11.2702C130.26 11.9552 130.023 12.5492 129.551 13.0523C129.078 13.5553 128.437 13.9406 127.627 14.2082C126.83 14.4758 125.952 14.6095 124.995 14.6095C124.185 14.6095 123.375 14.5132 122.565 14.3206C121.767 14.1279 121.008 13.8336 120.287 13.4376L121.131 11.5753C121.649 11.8749 122.217 12.1051 122.835 12.2656C123.465 12.4154 124.079 12.4904 124.674 12.4904C125.484 12.4904 126.155 12.3512 126.682 12.0729C127.222 11.7947 127.492 11.404 127.492 10.901C127.492 10.4836 127.307 10.1678 126.935 9.95376C126.576 9.73969 126.081 9.63267 125.45 9.63267H122.565V7.67402H125.248C125.8 7.67402 126.227 7.567 126.53 7.35294C126.846 7.13887 127.003 6.84455 127.003 6.46994C127.003 6.03111 126.779 5.68863 126.328 5.44246C125.889 5.19628 125.322 5.0732 124.624 5.0732C124.107 5.0732 123.573 5.14278 123.021 5.28191C122.47 5.41035 121.947 5.60836 121.451 5.87593L120.624 3.85307C121.873 3.243 123.223 2.93796 124.674 2.93796C125.598 2.93796 126.446 3.0664 127.222 3.32327C127.998 3.58014 128.618 3.95475 129.078 4.44708C129.54 4.93941 129.77 5.51203 129.77 6.16491C129.77 6.70006 129.618 7.17634 129.315 7.59375C129.011 8.01117 128.595 8.33226 128.066 8.55702ZM143.258 3.17878V14.4169H140.524V9.80927H135.158V14.4169H132.424V3.17878H135.158V7.60981H140.524V3.17878H143.258ZM155.363 12.3298V14.4169H146.217V3.17878H155.143V5.26586H148.933V7.70613H154.418V9.72899H148.933V12.3298H155.363ZM163.123 14.6095C161.921 14.6095 160.828 14.3634 159.85 13.871C158.883 13.368 158.118 12.6777 157.555 11.8C157.004 10.9117 156.728 9.91095 156.728 8.79784C156.728 7.68472 157.004 6.68935 157.555 5.81171C158.118 4.92336 158.883 4.23302 159.85 3.74069C160.828 3.23764 161.925 2.98613 163.14 2.98613C164.165 2.98613 165.087 3.15737 165.908 3.49987C166.741 3.84237 167.439 4.3347 168 4.97688L166.245 6.5181C165.447 5.64047 164.456 5.20164 163.275 5.20164C162.545 5.20164 161.891 5.35683 161.318 5.66722C160.744 5.9669 160.295 6.38967 159.968 6.93552C159.653 7.48137 159.495 8.10214 159.495 8.79784C159.495 9.49353 159.653 10.1143 159.968 10.6602C160.295 11.206 160.744 11.6341 161.318 11.9445C161.891 12.2442 162.545 12.394 163.275 12.394C164.456 12.394 165.447 11.9499 166.245 11.0615L168 12.6027C167.439 13.2556 166.741 13.7533 165.908 14.0958C165.076 14.4383 164.148 14.6095 163.123 14.6095Z" fill="white"/>
<path fill-rule="evenodd" clip-rule="evenodd" d="M68.5004 1.35537C67.7901 0.298405 66.1257 0.430503 65.6102 1.5847L65.0365 2.86974C64.7558 3.50043 64.0732 3.88217 63.3568 3.81042L61.8979 3.66426C60.5863 3.53298 59.6582 4.85318 60.2856 5.9563L60.9836 7.18446C61.3257 7.78725 61.2137 8.53222 60.709 9.02033L59.6781 10.0148C58.7531 10.9081 59.2593 12.4223 60.5571 12.6436L62.0006 12.8901C62.7094 13.011 63.2524 13.5583 63.3383 14.2387L63.5132 15.625C63.6712 16.8701 65.2298 17.4381 66.2208 16.611L67.3253 15.6902C67.8653 15.2382 68.6538 15.1756 69.2674 15.536L70.5145 16.2702C71.6359 16.9296 73.0749 16.1236 73.0135 14.8709L72.9445 13.4762C72.9107 12.7916 73.351 12.1664 74.029 11.9353L75.4112 11.4645C76.6522 11.0416 76.8869 9.46869 75.8177 8.73366L74.6288 7.9153C74.0459 7.51365 73.8066 6.79651 74.0398 6.14805L74.5138 4.82679C74.9403 3.64008 73.7943 2.4846 72.5242 2.82075L71.1098 3.19499C70.4164 3.37868 69.677 3.1097 69.2904 2.53213L68.5004 1.35537ZM68.0156 12.4212C69.9838 12.265 71.4457 10.6208 71.2816 8.74873C71.1174 6.87667 69.3886 5.48568 67.422 5.64188C65.4538 5.79807 63.9918 7.44231 64.156 9.31436C64.3201 11.1864 66.0474 12.5774 68.0156 12.4212Z" fill="#FED524"/>
</svg>
