<svg width="27" height="24" viewBox="0 0 27 24" fill="none" xmlns="http://www.w3.org/2000/svg">
<path fill-rule="evenodd" clip-rule="evenodd" d="M0.0928436 16.8621C0.148319 16.9542 0.270606 17.0568 0.364682 17.0901C0.488551 17.1341 2.474 17.1508 7.56768 17.1508H14.5997V20.3217C14.5997 23.0981 14.61 23.5147 14.6828 23.6709C14.7877 23.8957 15.0664 24.0397 15.3008 23.9903C15.4356 23.9618 16.6174 22.7886 21.1553 18.1786C24.2823 15.0017 26.8769 12.3331 26.921 12.2484C27.1199 11.8665 27.4209 12.2018 21.2011 5.87506C16.619 1.21411 15.4359 0.0380173 15.3008 0.00963402C15.0663 -0.039566 14.7876 0.104601 14.6828 0.329197C14.61 0.485382 14.5997 0.902002 14.5997 3.67842V6.8493H7.48156H0.363469L0.191243 7.00586L0.0190175 7.16242L0.00557063 11.9286C-0.00745439 16.5398 -0.00465955 16.7002 0.0928436 16.8621Z" fill="var(--hover, #E8E8E8)"/>
</svg>
