<svg width="27" height="24" viewBox="0 0 27 24" fill="none" xmlns="http://www.w3.org/2000/svg">
<path fill-rule="evenodd" clip-rule="evenodd" d="M26.9072 16.8621C26.8517 16.9542 26.7294 17.0568 26.6353 17.0901C26.5114 17.1341 24.526 17.1508 19.4323 17.1508H12.4003V20.3217C12.4003 23.0981 12.39 23.5147 12.3172 23.6709C12.2123 23.8957 11.9336 24.0397 11.6992 23.9903C11.5644 23.9618 10.3826 22.7886 5.84469 18.1786C2.71769 15.0017 0.12307 12.3331 0.0789852 12.2484C-0.119871 11.8665 -0.42087 12.2018 5.79892 5.87506C10.381 1.21411 11.5641 0.0380173 11.6992 0.00963402C11.9337 -0.039566 12.2124 0.104601 12.3172 0.329197C12.39 0.485382 12.4003 0.902002 12.4003 3.67842V6.8493H19.5184H26.6365L26.8088 7.00586L26.981 7.16242L26.9944 11.9286C27.0075 16.5398 27.0047 16.7002 26.9072 16.8621Z" fill="var(--hover, #E8E8E8)"/>
</svg>
