<svg width="149" height="25" viewBox="0 0 149 25" fill="none" xmlns="http://www.w3.org/2000/svg"><path d="M22.086 5.468a.984.984 0 00-.631.043c-.075.036-.57.277-1.099.529-.525.254-.987.472-1.026.48-.04.011-.195-.032-.354-.092-.152-.06-.47-.17-.702-.24-.232-.071-.44-.151-.458-.176a17.86 17.86 0 01-.326-.964c-.159-.505-.33-.961-.375-1.018-.18-.207-.317-.225-1.769-.243-.757-.01-1.446.002-1.53.025-.322.09-.38.202-.7 1.275l-.294.983-.32.095c-.173.05-.442.143-.6.2-.175.067-.31.098-.366.078-.049-.015-.575-.27-1.168-.563-1.092-.54-1.208-.586-1.496-.552-.143.016-.185.045-1.195.858-1.01.812-1.045.846-1.065.961-.04.23.014.325.685 1.204.365.478.68.901.7.94.024.045-.01.152-.097.296a7.227 7.227 0 00-.278.555l-.144.324-1.097.21c-.909.178-1.124.232-1.256.319a.49.49 0 00-.198.213c-.064.18-.01 2.372.064 2.47.158.205.326.263 1.447.498l1.094.227.154.326c.084.18.215.43.293.556.087.142.128.253.104.297-.018.038-.322.456-.674.928-.647.867-.697.962-.652 1.192.023.115.06.15 1.092.98 1.033.831 1.075.861 1.219.88.286.036.404-.004 1.481-.525a31.81 31.81 0 011.153-.543c.055-.019.189.012.372.082.156.062.47.17.702.24l.42.127.3.922c.285.868.31.927.46 1.048.215.173.297.181 1.862.188 1.358.005 1.51-.014 1.674-.21.045-.051.2-.502.348-1.007l.273-.912.442-.133c.242-.076.535-.174.659-.219.13-.05.251-.074.303-.056.049.015.575.27 1.168.563 1.092.54 1.212.583 1.497.551.142-.015.184-.044 1.194-.857s1.046-.847 1.065-.961c.04-.23-.013-.326-.685-1.205a24.47 24.47 0 01-.7-.94c-.024-.044.014-.154.097-.295.071-.127.192-.363.27-.528.07-.166.162-.314.195-.331.036-.014.527-.118 1.088-.227 1.215-.232 1.303-.258 1.44-.413.09-.107.1-.224.09-1.23-.003-.61-.02-1.166-.033-1.235-.02-.088-.075-.162-.182-.253-.15-.121-.221-.139-1.315-.371-.64-.133-1.17-.25-1.185-.263a2.762 2.762 0 01-.169-.319 7.645 7.645 0 00-.277-.528c-.087-.143-.128-.253-.105-.297.018-.039.322-.457.674-.928.647-.867.7-.96.652-1.192-.02-.113-.066-.155-1.05-.956-.807-.66-1.056-.85-1.16-.88zm-2.998 4.876c1.089 1.176 1.24 2.71.392 3.963-1.167 1.73-3.909 2.33-6.107 1.339-2.176-.978-2.981-3.198-1.8-4.946 1.391-2.059 4.931-2.44 7.069-.763.144.111.344.296.446.407z" fill="orange"/><path d="M27.808 18.127c-3.814 3.07-10.066 3.016-13.964-.122-3.898-3.137-3.966-8.169-.151-11.24 3.814-3.07 10.066-3.015 13.964.122 3.898 3.138 3.966 8.17.151 11.24z" fill="#1D1D1E"/><path d="M81.582 16.494V8.989h5.828v.974h-4.418v2.053h2.09c.694 0 1.283.09 1.767.27.487.182.858.437 1.114.767.258.33.388.718.388 1.165 0 .447-.13.842-.388 1.184-.256.342-.627.61-1.114.802-.484.193-1.073.29-1.766.29h-3.501zm1.41-.953h2.09c.402 0 .742-.064 1.018-.19.28-.128.492-.293.635-.495.146-.203.219-.42.219-.653 0-.337-.161-.626-.484-.868-.322-.244-.785-.367-1.387-.367h-2.09v2.573zm7.024-6.552h1.397V14.5h.087l4.755-5.511h1.306v7.505h-1.41V10.99h-.087l-4.747 5.504h-1.3V8.989zm12.728 7.607c-.626 0-1.186-.086-1.679-.26-.49-.173-.878-.414-1.164-.722a1.687 1.687 0 01-.456-1.077h1.433a.89.89 0 00.278.579c.17.161.393.286.666.374.274.088.579.132.913.132.368 0 .694-.052.977-.154a1.59 1.59 0 00.671-.429.95.95 0 00.242-.641.997.997 0 00-.242-.664c-.158-.193-.391-.344-.698-.454-.305-.11-.673-.165-1.105-.165h-.79v-.923h.79c.347 0 .651-.05.913-.15.265-.1.471-.24.621-.418a.966.966 0 00.223-.634.965.965 0 00-.196-.605 1.25 1.25 0 00-.548-.407 2.146 2.146 0 00-.83-.146c-.305 0-.589.045-.854.135a1.592 1.592 0 00-.639.381.877.877 0 00-.265.59h-1.364c.015-.405.164-.762.447-1.07.286-.308.663-.548 1.132-.722a4.47 4.47 0 011.561-.26c.599 0 1.117.094 1.552.282.438.186.776.434 1.013.744.24.31.359.65.356 1.019.003.42-.143.777-.438 1.07-.292.293-.682.49-1.169.59v.059c.621.075 1.102.273 1.443.593.343.32.514.717.511 1.191.003.413-.14.783-.429 1.11-.286.328-.677.586-1.173.774-.496.186-1.064.278-1.703.278zm5.158-.102V8.989h1.41v3.261h4.66V8.99h1.415v7.505h-1.415V13.22h-4.66v3.273h-1.41zm9.539 0V8.989h5.86v.974h-4.45v2.287h4.144v.971h-4.144v2.298h4.505v.975h-5.915zm15.507-5.064h-1.424a1.563 1.563 0 00-.306-.646 2.034 2.034 0 00-.547-.472 2.621 2.621 0 00-.726-.293 3.48 3.48 0 00-.844-.1c-.539 0-1.021.11-1.447.327a2.434 2.434 0 00-1.004.956c-.244.42-.365.933-.365 1.54 0 .61.121 1.125.365 1.546.246.42.582.737 1.008.953.426.215.906.322 1.438.322.295 0 .575-.032.84-.095.268-.066.509-.163.725-.29.217-.127.399-.282.548-.465a1.58 1.58 0 00.315-.638l1.424.004a2.692 2.692 0 01-.443 1.019 3.067 3.067 0 01-.835.798 4.121 4.121 0 01-1.159.517c-.435.122-.91.183-1.424.183-.809 0-1.531-.154-2.163-.461a3.616 3.616 0 01-1.497-1.33c-.363-.577-.544-1.265-.544-2.064 0-.801.183-1.489.548-2.063a3.59 3.59 0 011.497-1.326c.633-.31 1.353-.466 2.159-.466.496 0 .958.058 1.387.172.432.113.82.279 1.164.499.344.217.629.483.854.799.225.312.377.67.456 1.073zm4.913 5.645a.398.398 0 01-.271-.1.318.318 0 010-.483.398.398 0 01.271-.1.39.39 0 01.27.1.31.31 0 01.059.413.376.376 0 01-.329.17zm1.728-.035v-4.856h1.754c.385 0 .707.067.965.2.26.13.456.31.587.535.132.226.199.48.199.763 0 .284-.066.539-.197.766a1.38 1.38 0 01-.583.539c-.259.13-.58.196-.963.196h-1.38v-.398h1.366c.285 0 .521-.047.709-.142a.973.973 0 00.419-.394 1.13 1.13 0 00.141-.567c0-.211-.047-.4-.141-.566a.955.955 0 00-.422-.391c-.187-.095-.425-.143-.714-.143h-1.244v4.458h-.496zm6.453-4.258h.74c.395 0 .744.08 1.048.24.306.159.546.382.719.668.174.286.26.618.26.995a1.91 1.91 0 01-.262.999c-.172.286-.41.51-.714.67a2.21 2.21 0 01-1.046.24h-.743a2.24 2.24 0 01-1.053-.24 1.793 1.793 0 01-.716-.668 1.882 1.882 0 01-.26-.998c0-.376.086-.708.26-.994a1.81 1.81 0 01.716-.67 2.22 2.22 0 011.051-.242zm.002.398c-.33 0-.611.065-.841.194a1.278 1.278 0 00-.52.536c-.117.228-.174.49-.172.787 0 .293.058.552.175.778.118.224.291.4.517.529.228.128.509.192.841.192h.741c.33 0 .609-.064.836-.192.228-.128.4-.305.517-.531a1.7 1.7 0 00.175-.788 1.65 1.65 0 00-.178-.78 1.256 1.256 0 00-.517-.533c-.228-.128-.509-.192-.841-.192h-.733zm.621-1.081v5.14h-.496v-5.14h.496zM15.107 16.492V8.89h1.42v3.304h4.688V8.89h1.423v7.603h-1.423v-3.315h-4.689v3.315h-1.419zm10.393 0h-1.507l3.384-7.603h1.64l3.384 7.603h-1.506l-2.66-6.222h-.072l-2.664 6.222zm.252-2.977h4.886v.965h-4.886v-.965zm15.376-2.153h-1.433a1.585 1.585 0 00-.307-.654 2.056 2.056 0 00-.551-.479 2.628 2.628 0 00-.73-.297 3.48 3.48 0 00-.85-.1c-.542 0-1.027.11-1.456.33-.425.22-.762.544-1.01.97-.245.425-.367.945-.367 1.559 0 .618.122 1.14.367 1.566.248.426.586.748 1.015.966.428.217.91.326 1.446.326.297 0 .579-.032.845-.096a2.7 2.7 0 00.73-.293c.218-.13.401-.286.551-.472a1.6 1.6 0 00.317-.646l1.433.004a2.735 2.735 0 01-.446 1.032 3.097 3.097 0 01-.84.81c-.34.225-.728.399-1.166.523a5.253 5.253 0 01-1.433.185c-.814 0-1.54-.155-2.177-.467a3.648 3.648 0 01-1.506-1.348c-.364-.584-.546-1.28-.546-2.09 0-.812.184-1.509.55-2.09a3.623 3.623 0 011.507-1.344c.637-.315 1.36-.472 2.172-.472.5 0 .965.058 1.396.175.435.113.825.282 1.171.504.346.22.632.49.859.81.226.317.38.68.459 1.088zm1.234-1.485v-.988h7.278v.988h-2.934v6.615h-1.414V9.877h-2.93zm8.887 6.615V8.89H54.6c.732 0 1.338.108 1.818.323.48.215.84.51 1.08.884.238.37.358.79.358 1.255 0 .467-.121.888-.363 1.262-.239.371-.6.666-1.084.883-.48.216-1.085.323-1.814.323H52.29v-.972h2.177c.462 0 .837-.065 1.125-.193.287-.132.499-.31.633-.535.135-.225.203-.481.203-.768 0-.288-.068-.543-.203-.765-.134-.223-.347-.398-.638-.524-.288-.126-.667-.19-1.139-.19h-1.781v6.62h-1.42zM67.69 12.69c0 .813-.184 1.51-.552 2.095a3.65 3.65 0 01-1.51 1.344c-.637.311-1.361.467-2.173.467-.814 0-1.541-.155-2.18-.467a3.648 3.648 0 01-1.507-1.348c-.367-.584-.551-1.28-.551-2.09 0-.812.184-1.509.551-2.09a3.622 3.622 0 011.506-1.344c.64-.315 1.367-.472 2.181-.472.812 0 1.536.157 2.172.472.64.311 1.144.76 1.511 1.344.367.581.551 1.278.551 2.09zm-1.406 0c0-.618-.124-1.139-.372-1.562a2.4 2.4 0 00-1.01-.966 3.1 3.1 0 00-1.447-.33 3.11 3.11 0 00-1.45.33c-.426.218-.763.54-1.01.966-.246.423-.368.944-.368 1.563 0 .618.122 1.14.367 1.566a2.47 2.47 0 001.01.966c.426.217.91.326 1.451.326a3.13 3.13 0 001.447-.326 2.43 2.43 0 001.01-.966c.248-.425.372-.947.372-1.566zm3.174-3.801h1.405v5.584h.088l4.785-5.584h1.313v7.603h-1.42v-5.576h-.086l-4.776 5.576h-1.309V8.89zm4.698-1.93h1.13c0 .418-.184.758-.552 1.02-.364.26-.857.39-1.478.39-.618 0-1.11-.13-1.474-.39-.364-.262-.547-.602-.547-1.02h1.125a.7.7 0 00.203.493c.134.141.365.212.693.212.321 0 .55-.07.689-.212a.677.677 0 00.21-.494z" fill="#fff"/></svg>