<svg width="205" height="63" viewBox="0 0 205 63" fill="none" xmlns="http://www.w3.org/2000/svg"><g clip-path="url(#clip0_1177_155)"><path fill-rule="evenodd" clip-rule="evenodd" d="M9.063 31.5c0-.899.737-1.626 1.646-1.626.908 0 1.644.727 1.644 1.626 0 .899-.736 1.627-1.644 1.627-.91 0-1.646-.728-1.646-1.627zm7.587 1.708a3.393 3.393 0 011.265-4.664c1.652-.943 3.764-.384 4.718 1.25a3.394 3.394 0 01-1.265 4.663c-1.651.944-3.764.384-4.717-1.249zm-6.097 10.454a3.394 3.394 0 011.264-4.664c1.653-.943 3.764-.383 4.718 1.25a3.394 3.394 0 01-1.264 4.664c-1.652.943-3.764.383-4.718-1.25zm15.197 1.715c-1.907 0-3.453-1.528-3.453-3.415 0-1.886 1.546-3.414 3.454-3.414 1.908 0 3.455 1.529 3.455 3.414 0 1.887-1.547 3.415-3.455 3.415zm-5.287 5.642a1.616 1.616 0 01-.602-2.222 1.656 1.656 0 012.248-.594 1.617 1.617 0 01.601 2.221 1.655 1.655 0 01-2.247.595zm11.397 3.02a1.635 1.635 0 01-1.645-1.626c0-.898.736-1.626 1.645-1.626.91 0 1.646.728 1.646 1.626 0 .898-.737 1.626-1.646 1.626zM12.117 20.23a1.655 1.655 0 012.247-.594 1.617 1.617 0 01.602 2.222 1.656 1.656 0 01-2.247.595 1.616 1.616 0 01-.602-2.222zm-7.848-4.477a1.103 1.103 0 011.497-.398c.525.298.705.961.4 1.481a1.103 1.103 0 01-1.495.397 1.075 1.075 0 01-.402-1.48zM0 31.502c0-.6.491-1.086 1.098-1.086a1.09 1.09 0 011.096 1.085c0 .6-.49 1.085-1.096 1.085A1.091 1.091 0 010 31.502zM4.268 47.25a1.078 1.078 0 01.402-1.481 1.103 1.103 0 011.497.398c.303.518.124 1.18-.402 1.479-.525.3-1.194.122-1.497-.396zM15.93 58.78a1.079 1.079 0 01-.4-1.482 1.102 1.102 0 011.497-.396c.525.299.705.962.403 1.481a1.104 1.104 0 01-1.5.396zM31.862 63a1.09 1.09 0 01-1.096-1.085c0-.599.49-1.086 1.096-1.086.606 0 1.097.487 1.097 1.086 0 .6-.49 1.085-1.097 1.085z" fill="#F08143"/><path fill-rule="evenodd" clip-rule="evenodd" d="M54.66 31.5c0 .897-.737 1.627-1.645 1.627-.91 0-1.646-.73-1.646-1.627 0-.9.736-1.628 1.646-1.628.908 0 1.645.729 1.645 1.628zm-3.054-11.269a1.617 1.617 0 01-.603 2.22 1.654 1.654 0 01-2.248-.594 1.616 1.616 0 01.603-2.222 1.655 1.655 0 012.248.596zM43.26 11.98a1.616 1.616 0 01.603 2.222 1.655 1.655 0 01-2.248.595 1.617 1.617 0 01-.602-2.221 1.655 1.655 0 012.247-.595zm-5.29 5.643c1.91 0 3.455 1.53 3.455 3.416s-1.545 3.414-3.454 3.414c-1.908 0-3.455-1.528-3.455-3.414 0-1.886 1.547-3.416 3.455-3.416zm9.102 12.171a3.392 3.392 0 01-1.265 4.664c-1.651.942-3.763.383-4.717-1.25a3.393 3.393 0 011.265-4.664c1.651-.943 3.763-.384 4.717 1.25zm6.1 13.869c-.955 1.634-3.067 2.192-4.718 1.25a3.393 3.393 0 01-1.264-4.665c.953-1.632 3.065-2.192 4.717-1.25a3.394 3.394 0 011.265 4.665zM31.861 7.172c1.908 0 3.454 1.53 3.454 3.415 0 1.887-1.546 3.415-3.454 3.415-1.909 0-3.455-1.528-3.455-3.415 0-1.885 1.547-3.415 3.455-3.415zM31.86 0c.606 0 1.098.487 1.098 1.085 0 .6-.492 1.085-1.098 1.085a1.09 1.09 0 01-1.096-1.085c0-.598.49-1.085 1.096-1.085zm27.592 47.25a1.105 1.105 0 01-1.498.397 1.077 1.077 0 01-.4-1.482c.302-.52.973-.697 1.497-.398.525.3.705.964.4 1.483zm4.271-15.75c0 .6-.491 1.085-1.097 1.085a1.09 1.09 0 01-1.097-1.085 1.09 1.09 0 011.097-1.084 1.09 1.09 0 011.097 1.084zm-4.27-15.749c.302.518.123 1.18-.403 1.48-.523.3-1.193.122-1.497-.398a1.078 1.078 0 01.402-1.48 1.103 1.103 0 011.498.398zM47.793 4.22c.523.3.703.964.4 1.483a1.104 1.104 0 01-1.497.396 1.078 1.078 0 01-.403-1.48 1.106 1.106 0 011.5-.399z" fill="#C80B3B"/><path fill-rule="evenodd" clip-rule="evenodd" d="M31.861 28.085c1.908 0 3.454 1.53 3.454 3.415 0 1.886-1.546 3.415-3.454 3.415-1.908 0-3.455-1.529-3.455-3.415 0-1.886 1.547-3.415 3.455-3.415zm9.102 15.584c-.955 1.633-3.067 2.193-4.718 1.25a3.393 3.393 0 01-1.264-4.664c.953-1.634 3.065-2.193 4.717-1.25a3.393 3.393 0 011.265 4.664zm2.297 7.351a1.654 1.654 0 01-2.246-.597 1.614 1.614 0 01.602-2.22 1.656 1.656 0 012.248.595 1.617 1.617 0 01-.604 2.221zM20.464 11.98a1.655 1.655 0 012.246.596 1.616 1.616 0 01-.601 2.222 1.655 1.655 0 01-2.248-.596 1.616 1.616 0 01.603-2.222zm-4.532-7.758a1.103 1.103 0 011.498.398 1.08 1.08 0 01-.401 1.48 1.104 1.104 0 01-1.498-.397 1.076 1.076 0 01.4-1.481zM47.793 58.78a1.103 1.103 0 01-1.497-.398 1.077 1.077 0 01.402-1.481 1.104 1.104 0 011.497.398 1.078 1.078 0 01-.402 1.48zM22.76 19.33c.954-1.632 3.066-2.192 4.718-1.249a3.393 3.393 0 011.264 4.664c-.954 1.634-3.066 2.193-4.718 1.25a3.395 3.395 0 01-1.264-4.665z" fill="#EA5E20"/><path d="M89.04 24.791v1.837h-8.204v9.321h-2.082V24.791h10.285zm13.051 0v1.837h-8.02v2.702h7.224v1.837H94.07v2.906h8.327v1.876h-10.41V24.791h10.104zm5.663 0v4.46h7.244v-4.46h2.082v11.158h-2.082v-4.862h-7.244v4.862h-2.082V24.791h2.082zm22.866 0v1.837h-8.019v2.702h7.224v1.837h-7.224v2.906h8.326v1.876h-10.409V24.791h10.102zm10.229 0c.653 0 1.259.105 1.819.313a4.345 4.345 0 011.449.878c.413.376.736.83.973 1.362.238.53.358 1.12.358 1.765 0 .645-.12 1.23-.358 1.756a4.023 4.023 0 01-.973 1.341c-.407.37-.891.656-1.451.858a5.318 5.318 0 01-1.82.302h-4.562v2.583h-2.081V24.791h6.646zm-4.565 6.699h4.47c.775 0 1.405-.208 1.888-.625.483-.417.724-1.003.724-1.755 0-.768-.241-1.366-.724-1.796-.483-.431-1.113-.646-1.888-.646h-4.47v4.822zm14.765.867h6.082l-2.367-5.73h-1.286l-2.429 5.73zm5.082-7.566l4.796 11.158h-2.183l-.776-1.755h-7.693l-.776 1.755h-2.225l4.938-11.158h3.919zm9.909 0v9.322h6.815V24.79h2.083v9.322h1.244v4.096h-1.754l-.184-2.26h-10.286V24.791h2.082zm15.112 0v8.434l7.511-8.434h2.08v11.158h-2.08l.016-8.393-7.524 8.393h-2.085V24.791h2.082zm23.847 11.158h-2.081v-2.623H198l-1.45 2.623h-2.286l1.776-3.107c-.735-.364-1.296-.861-1.683-1.494-.388-.632-.583-1.378-.583-2.238 0-.646.117-1.235.348-1.766.23-.532.55-.986.959-1.363a4.36 4.36 0 011.449-.877 5.158 5.158 0 011.816-.313h6.653v11.158zm-6.551-9.281c-.775 0-1.402.218-1.878.656-.475.436-.714 1.032-.714 1.785 0 .767.239 1.349.714 1.745.476.397 1.103.596 1.878.596h4.47v-4.782h-4.47z" fill="#C80B3B"/></g><defs><clipPath id="clip0_1177_155"><path fill="#fff" d="M0 0h205v63H0z"/></clipPath></defs></svg>