<svg width="112" height="134" viewBox="0 0 112 134" fill="none" xmlns="http://www.w3.org/2000/svg"><path d="M55.817 128.64c30.827 0 55.817-24.99 55.817-55.817s-24.99-55.817-55.817-55.817S0 41.996 0 72.823s24.99 55.817 55.817 55.817z" fill="#fff"/><path d="M55.817 131.313c30.827 0 55.817-24.99 55.817-55.817s-24.99-55.817-55.817-55.817S0 44.669 0 75.496s24.99 55.817 55.817 55.817z" fill="#FDB913"/><path d="M107.783 99.166a23.89 23.89 0 00-.354-10.25c-3.367-13.898-10.395-18.865-17.962-22.02-4.737-1.976-11.59-3.368-15.57-4.03 0-1.594-29.015-1.684-29.048-1.684-1.589.634-14.718 1.897-23.806 5.692-7.55 3.154-14.549 8.116-17.962 22.02-.466 1.914-1.257 5.338-.241 10.912a17.793 17.793 0 001.122 5.944c2.807 8.105 5.518 9.015 7.05 9.542 1.123 2.055 5.563 3.795 9.397 3.441l.05.045c5.086 4.917 13.365 8.611 22.795 10.424a60.485 60.485 0 0013.697 1.577 56.26 56.26 0 0022.907-4.709 46.846 46.846 0 004.62-2.246c5.354-2.963 10.3-4.855 14.032-7.74.477-.146 4.131-1.869 7.056-8.016a11.96 11.96 0 001.56-4.047c.496-1.569.718-3.211.657-4.855zM71.404 3.58c-.712 1.757-.763 3.985-.982 5.955a23.225 23.225 0 01-.763 4.34C68.087 11.218 65.47 3.32 71.404 3.58z" fill="#fff"/><path d="M74.492 60.02c-.152 0-.253.258-.32.112-.068-.146-.77.404-1.067.242-.163-.09.101-1.263-.073-1.41a.398.398 0 11.5-.617c.13.099.27.185.415.258.394.17.716.472.91.854.09.2.003.436-.197.527a.387.387 0 01-.168.034z" fill="#551215"/><path d="M99.75 77.415c-4.355-5.052-7.886-6.135-13.516-8.846-3.418-1.65-11.04-.562-12.046-3.963-.847-2.863-2.419-4.199-5.989-3.295l-15.509-.483c-1.05-.112-3.21 4.463-10.772 4.766-6.056.241-14.37 2.133-20.993 4.49-7.746 2.768-11.36 6.646-15.43 15.66-2.98 6.613-3.278 8.943-2.622 12.176 1.392 6.82.775 8.257 2.072 11.31.303.719 2.026 3.48 2.363 4.283 3.2 7.6 9.093 1.948 15.077 7.729 12.276 11.861 40.274 16.621 61.183 5.052 2.408-1.33 4.99-3.828 7.157-4.911 4.333-2.167 8.7-2.627 11.226-6.057 1.611-2.183 6.646-5.91 5.085-13.64 1.757-7.611-1.021-16.996-7.285-24.271z" fill="#fff"/><path d="M73.043 64.466l.242-14.538-21.414.926c-2.105 0-5.445 9.419-5.54 10.721-.41 5.613 4.552 7.538 9.716 8.162 2.874.348 6.011.64 8.756-.197 1.437-.42 3.879-.954 8.24-5.074z" fill="#E8B898"/><path d="M60.656 70.46c-1.75.071-3.502.017-5.243-.163-6.562-1.123-9.47-3.267-9.082-8.549.067-.92 2.986-11.226 5.54-11.226l21.403-.943a.365.365 0 01.376.37l-.241 14.376c0 .129 0 .365-.169.466-4.12 3.878-6.584 4.608-8.054 5.052l-.276.084a14.5 14.5 0 01-4.254.533zm12.259-20.168l-21.044.926c-1.65 0-3.29 8.083-4.08 9.475-.394.69-.86 2.391-.59 3.3.898 3.048 4.58 4.687 8.886 5.378 2.666.432 12.511-2.245 15.155-6.994 1.78-3.25 1.64-9.913 1.673-12.085z" fill="#551215"/><path d="M78.421 38.303a10.452 10.452 0 00-3.957-5.495c-2.779-1.925-6.966-2.924-10.357-1.751-1.077.37-4.636-1.123-5.124-.034-1.909 4.3-5.002 8.42-6.854 9.688-3.778 2.566-8.51 9.02-6.927 13.511 1.235 3.52 2.319 7.673 5.165 9.75 3.845 2.807 9.907 2.762 14.594 1.123 9.53-3.385 16.44-17.44 13.46-26.792z" fill="#E8B898"/><path d="M49.951 64.325c-6.466-6.803-5.287-14.223-4.322-16.52 1.358-3.322 4.025-5.736 5.68-7.055a23.055 23.055 0 002.51-2.127c2.88-2.964 3.9-7.028 4.681-7.814.37-.309.85-.456 1.33-.41.643.025 1.283.098 1.914.22.525.101 1.056.165 1.589.19a1.37 1.37 0 00.427-.05 9.98 9.98 0 013.272-.522c2.642.03 5.217.836 7.404 2.318a10.84 10.84 0 014.097 5.686c3.076 9.587-4.12 23.704-13.662 27.224-7.814 2.88-13.146.701-14.92-1.14zm9.885-33.179c-.517 0-.73.107-.82.197-.443.448-.982 4.524-5.658 9.009-1.46 1.397-5.753 3.974-7.24 8.633-.68 2.116-.876 8.42 4.265 14.538 1.555 1.852 4.626 2.396 7.713 2.396a19.858 19.858 0 006.545-1.122c9.29-3.278 15.79-17.755 13.219-26.343a9.857 9.857 0 00-3.817-5.31 12.73 12.73 0 00-6.994-2.189 9.261 9.261 0 00-3.037.483 5.99 5.99 0 01-2.369-.107 12.34 12.34 0 00-1.813-.207l.006.022z" fill="#551215"/><path opacity=".9" d="M36.115 103.757a1.902 1.902 0 01-.561-.079.978.978 0 01-.416-.264 1.207 1.207 0 01-.269-.561 3.71 3.71 0 01-.09-.893 4.33 4.33 0 01.146-1.246 1.04 1.04 0 01.399-.606 1.32 1.32 0 01.696-.163h.679a.33.33 0 00.365-.286c0-.034 0-.05.056-.05a.174.174 0 01.14.09c.046.063.07.14.068.218a.404.404 0 01-.14.331.563.563 0 01-.371.118h-.881a.68.68 0 00-.562.236 1.431 1.431 0 00-.213.814.993.993 0 011.022-.561c.35-.029.695.094.948.336a2.112 2.112 0 010 2.246 1.292 1.292 0 01-.977.342l-.039-.022zm0-.349a.727.727 0 00.646-.258 2.116 2.116 0 000-1.684.732.732 0 00-.651-.258.74.74 0 00-.651.253 1.458 1.458 0 00-.18.83c-.022.289.04.578.18.831a.74.74 0 00.656.264v.022zm1.958.315c-.213 0-.325-.096-.325-.276a.274.274 0 01.056-.196.177.177 0 01.112-.062h.297c.174 0 .276-.151.298-.443l.107-1.308a.185.185 0 00-.068-.174.305.305 0 00-.168-.051.385.385 0 01-.18-.039.151.151 0 01-.084-.151c0-.118 0-.174.067-.174h2.189a.084.084 0 01.085.039.35.35 0 010 .163v2.054a.208.208 0 00.067.163c.04.037.091.061.146.067h.152c.044 0 .067.034.067.068 0 .168 0 .252-.079.252h-1.179c-.05 0-.078-.084-.078-.252 0-.034 0-.057.073-.068h.151a.286.286 0 00.158-.067c.049-.04.076-.1.073-.163v-1.684c0-.101 0-.163-.085-.191a1.246 1.246 0 00-.42-.045 1.27 1.27 0 00-.416.04.184.184 0 00-.095.168l-.107 1.229a1.39 1.39 0 01-.264.781.695.695 0 01-.561.269l.011.051zm6.034.05a1.28 1.28 0 01-.931-.314 1.49 1.49 0 01-.348-1.039h-.663v.73a.214.214 0 00.068.163.26.26 0 00.151.067h.152c.045 0 .067.034.067.068 0 .168 0 .252-.078.252h-1.207c-.056 0-.085-.084-.085-.252 0-.034 0-.057.073-.068h.163a.304.304 0 00.157-.067c.05-.04.077-.1.073-.163v-1.684a.191.191 0 00-.084-.174.324.324 0 00-.168-.05.365.365 0 01-.169-.04.151.151 0 01-.084-.151c0-.118 0-.169.073-.169h.786c.073 0 .112.068.112.202v1.011h.668a1.353 1.353 0 01.365-.949c.254-.211.58-.318.91-.297.351-.024.697.1.954.342.248.319.365.721.325 1.123.038.401-.076.802-.32 1.122a1.266 1.266 0 01-.96.343v-.006zm0-.354a.696.696 0 00.629-.263c.137-.257.199-.547.18-.837a1.615 1.615 0 00-.169-.842.695.695 0 00-.634-.252.708.708 0 00-.64.252c-.13.261-.185.552-.163.842-.02.288.04.576.174.831.15.192.388.292.629.264l-.006.005zm1.69 1.101a.17.17 0 01-.118 0 .123.123 0 010-.101l.033-.836a.192.192 0 01.068-.152.18.18 0 01.129-.033.17.17 0 00.129-.051.298.298 0 00.084-.196l.197-1.656a.168.168 0 00-.056-.174.288.288 0 00-.163-.051.388.388 0 01-.174-.039.152.152 0 01-.084-.152c0-.118 0-.174.067-.174h2.234c.073 0 .112.068.112.208v2.038a.282.282 0 00.062.202.158.158 0 00.135.05.205.205 0 01.14.034.185.185 0 01.073.157l.034.836a.123.123 0 010 .101.16.16 0 01-.118 0 .206.206 0 01-.163-.05.481.481 0 01-.067-.208 1.38 1.38 0 00-.152-.499.405.405 0 00-.314-.096h-1.353a.398.398 0 00-.314.09c-.08.154-.13.321-.146.494a.447.447 0 01-.068.202.21.21 0 01-.162.051l-.045.005zm1.476-3.295a1.492 1.492 0 00-.466.04c-.056 0-.09.095-.101.196l-.18 1.594c0 .118 0 .191.05.23a.65.65 0 00.343.056h.45a.66.66 0 00.347-.056.285.285 0 00.079-.23v-1.594c0-.101 0-.163-.084-.191a1.198 1.198 0 00-.421-.045h-.017zm2.557 2.554c-.562 0-.837-.236-.837-.707a.673.673 0 01.197-.511 1 1 0 01.482-.253c.187-.045.375-.084.562-.118.168-.027.33-.086.477-.174.125-.07.2-.204.196-.348a.393.393 0 00-.129-.348.916.916 0 00-.488-.095 1.121 1.121 0 00-.528.084.427.427 0 00-.146.331c0 .064-.02.127-.056.18a.208.208 0 01-.146.045.24.24 0 01-.107 0s-.033-.04-.039-.079a3.328 3.328 0 01-.045-.499.235.235 0 01.101-.208 1.88 1.88 0 01.994-.202 1.5 1.5 0 01.803.163.706.706 0 01.246.634v1.515c0 .073 0 .118.04.135a.251.251 0 00.151.034h.247c.05 0 .073.05.073.146a.236.236 0 01-.034.146.304.304 0 01-.117.084.902.902 0 01-.348.067.41.41 0 01-.466-.482v-.124a.986.986 0 01-.432.443c-.2.109-.424.166-.652.163v-.022zm.095-.393a.906.906 0 00.735-.27c.157-.19.239-.432.23-.679v-.258a1.21 1.21 0 01-.432.23 4.39 4.39 0 01-.477.135.889.889 0 00-.365.157.371.371 0 00-.157.32c0 .253.163.382.471.382l-.005-.017zm5.318-2.313c0-.118 0-.168.073-.168h1.224c.045 0 .068.056.068.168a.161.161 0 01-.068.151.28.28 0 01-.151.04.218.218 0 00-.146.056.23.23 0 00-.068.18v1.683a.207.207 0 00.068.163c.04.037.091.06.146.068h.151c.045 0 .068.033.068.067 0 .168-.029.253-.08.253h-.717a.09.09 0 01-.085-.045.377.377 0 010-.163v-1.078h-1.302v.713a.208.208 0 00.067.163.26.26 0 00.152.067h.151c.045 0 .068.034.068.068 0 .168 0 .252-.079.252h-1.229c-.056 0-.084-.084-.084-.252 0-.034 0-.057.073-.068l.157-.028a.314.314 0 00.163-.067c.049-.04.076-.1.073-.163v-1.684a.19.19 0 00-.084-.174.335.335 0 00-.169-.051.352.352 0 01-.168-.039.15.15 0 01-.084-.151c0-.118 0-.169.072-.169h.786c.073 0 .112.068.112.202v1.022h1.303v-.634a.214.214 0 00-.073-.18.24.24 0 00-.152-.056.311.311 0 01-.157-.045.152.152 0 01-.073-.152l-.006.051zm2.584 2.706c-.561 0-.836-.236-.836-.707a.673.673 0 01.202-.511.997.997 0 01.477-.253c.187-.045.374-.084.561-.118.17-.027.331-.086.477-.174a.387.387 0 00.203-.348.393.393 0 00-.135-.348.916.916 0 00-.489-.095 1.121 1.121 0 00-.527.084.433.433 0 00-.152.331.314.314 0 01-.056.18.212.212 0 01-.151.045.24.24 0 01-.107 0s-.034-.04-.04-.079a3.119 3.119 0 01-.044-.499.235.235 0 01.1-.208 1.88 1.88 0 01.994-.202 1.5 1.5 0 01.809.163.706.706 0 01.247.634v1.515c0 .073 0 .118.039.135a.251.251 0 00.151.034h.247c.051 0 .073.05.073.146a.252.252 0 01-.033.146.323.323 0 01-.124.084.902.902 0 01-.348.067.403.403 0 01-.46-.482v-.124a.992.992 0 01-.432.443c-.2.109-.424.166-.651.163l.005-.022zm.096-.393a.906.906 0 00.735-.27c.157-.19.239-.432.23-.679v-.258a1.227 1.227 0 01-.432.23 4.377 4.377 0 01-.477.135.89.89 0 00-.365.157.371.371 0 00-.152.32c0 .253.157.382.472.382l-.011-.017zm3.345-2.336c0-.117 0-.168.072-.168h1.207c.05 0 .073.056.073.168a.14.14 0 01-.073.135.391.391 0 01-.162.051.205.205 0 00-.135.056.146.146 0 000 .163l.69 1.824.696-1.824c.028-.073.028-.129 0-.163a.205.205 0 00-.134-.056.391.391 0 01-.163-.051.14.14 0 01-.073-.135c0-.117 0-.168.073-.168h1.111c.045 0 .068.056.068.168a.192.192 0 01-.05.152.174.174 0 01-.119.039.277.277 0 00-.151.056.402.402 0 00-.13.18l-1.088 2.745c-.11.32-.304.605-.562.825-.22.184-.498.285-.786.286-.224 0-.336-.09-.336-.269 0-.18.056-.247.162-.247h.174c.103.007.206.007.31 0 .28 0 .493-.185.628-.561l.163-.421-.966-2.42a.47.47 0 00-.14-.191.28.28 0 00-.152-.061.17.17 0 01-.118-.04.167.167 0 01-.05-.134l-.04.061zm3.502 2.409c0-.034 0-.056.074-.068h.163a.305.305 0 00.162-.067.196.196 0 00.073-.163v-1.684a.191.191 0 00-.084-.174.323.323 0 00-.168-.05.364.364 0 01-.169-.039.153.153 0 01-.084-.152c0-.118 0-.168.073-.168h2.139c.118 0 .174.05.18.151v.797a.13.13 0 010 .101.17.17 0 01-.119 0 .208.208 0 01-.157-.045.355.355 0 01-.067-.179.842.842 0 00-.152-.427.771.771 0 00-.454-.084 1.064 1.064 0 00-.416.05.204.204 0 00-.09.197v1.684c.001.07.043.134.107.163a.571.571 0 00.236.067h.236c.073 0 .106.034.106.067 0 .169 0 .253-.078.253h-1.449c-.056 0-.084-.084-.084-.253l.023.023zm2.942.264c-.213 0-.326-.096-.326-.276a.275.275 0 01.056-.196.175.175 0 01.118-.062h.303c.174 0 .275-.151.298-.443l.106-1.308a.185.185 0 00-.067-.174.306.306 0 00-.168-.051.385.385 0 01-.18-.039.15.15 0 01-.084-.151c0-.118 0-.174.067-.174h2.189a.084.084 0 01.085.039.35.35 0 010 .163v2.054a.214.214 0 00.067.163.26.26 0 00.151.067h.146c.045 0 .068.034.068.068 0 .168 0 .252-.079.252h-1.19c-.05 0-.078-.084-.078-.252 0-.034 0-.057.073-.068h.157a.286.286 0 00.157-.067c.049-.04.076-.1.073-.163v-1.684c0-.101 0-.163-.084-.191a1.222 1.222 0 00-.421-.045 1.27 1.27 0 00-.416.04.184.184 0 00-.095.168l-.107 1.229a1.39 1.39 0 01-.264.781.695.695 0 01-.56.269l.005.051zm3.412.062a.568.568 0 01-.23-.045c-.073-.039-.107-.118-.107-.247a.079.079 0 01.079-.084c.072-.011.144-.028.213-.051a.453.453 0 00.23-.19l.444-.674a.797.797 0 01-.73-.842.655.655 0 01.264-.589c.236-.131.505-.192.774-.174h1.494c.05 0 .073.056.073.168a.153.153 0 01-.073.152.298.298 0 01-.158.039.276.276 0 00-.157.05.197.197 0 00-.073.174v1.684a.202.202 0 00.068.163.26.26 0 00.146.068h.151c.045 0 .068.033.068.067 0 .168 0 .252-.08.252h-1.178c-.05 0-.078-.084-.078-.252 0-.039.039-.062.112-.073a.837.837 0 00.213-.067.192.192 0 00.112-.186v-.561h-.218a.484.484 0 00-.23.051.524.524 0 00-.18.207l-.331.562a.813.813 0 01-.281.303.694.694 0 01-.337.084v.011zm.387-2.071a.488.488 0 00.186.449c.172.092.366.133.561.118h.472v-.719c0-.123 0-.207-.09-.247a1.04 1.04 0 00-.45-.061 1.072 1.072 0 00-.499.089.383.383 0 00-.163.365l-.017.006zm2.346 1.773c0-.039 0-.062.084-.073.077-.017.153-.042.225-.073a.553.553 0 00.241-.208l.612-.886-.561-.753a.765.765 0 00-.202-.179.47.47 0 00-.152-.068.163.163 0 01-.095-.044.186.186 0 01-.034-.124c0-.118 0-.174.073-.174h1.123c.05 0 .073.056.073.174a.107.107 0 01-.068.101l-.129.051a.122.122 0 00-.09.078c0 .039 0 .096.068.163l.454.595.382-.595c.062-.118.073-.185.034-.208a1.05 1.05 0 00-.169-.078c-.078 0-.117-.068-.117-.118 0-.051 0-.169.072-.169h.983c.045 0 .067.057.067.169a.193.193 0 01-.04.135.136.136 0 01-.106.039.324.324 0 00-.163.067.805.805 0 00-.185.185l-.561.842.612.792a.603.603 0 00.241.196c.068.032.14.056.213.073.056 0 .084.034.084.073 0 .169 0 .253-.078.253h-1.179c-.05 0-.078-.079-.078-.236 0-.028 0-.05.073-.067l.146-.04a.128.128 0 00.095-.073c0-.039 0-.089-.067-.157l-.5-.645-.421.64c-.056.106-.062.168 0 .191a.67.67 0 00.174.061c.079 0 .118.045.118.079 0 .163 0 .236-.079.236h-1.1c-.05 0-.078-.085-.078-.253l.005.028z" fill="#551215"/><path d="M29.383 88.164a.342.342 0 00.259-.135.56.56 0 00.112-.387v-3.93a.315.315 0 00-.079-.23.298.298 0 00-.18-.083 1.469 1.469 0 01-.207-.045.298.298 0 01-.168-.169.877.877 0 01-.079-.387.893.893 0 01.056-.376.196.196 0 01.191-.112h2.543a.202.202 0 01.196.112.893.893 0 01.056.382.787.787 0 01-.106.443.28.28 0 01-.22.14.376.376 0 00-.218.079.298.298 0 00-.107.258v4.002a.36.36 0 00.163.354c.22.075.453.104.685.084h.348c.228.018.457-.01.673-.084a.376.376 0 00.163-.36v-4a.292.292 0 00-.095-.259.354.354 0 00-.208-.073.264.264 0 01-.208-.14.791.791 0 01-.095-.443.903.903 0 01.056-.382.202.202 0 01.202-.112h1.672l.456-.028h.196a.202.202 0 01.197.112c.045.12.064.248.056.376a.797.797 0 01-.096.443.264.264 0 01-.208.14.348.348 0 00-.207.074.292.292 0 00-.096.258v4.002a.36.36 0 00.163.348c.218.074.45.103.68.084h.353c.228.018.457-.01.674-.084a.376.376 0 00.162-.36v-4.001a.297.297 0 00-.106-.259.377.377 0 00-.22-.073.28.28 0 01-.218-.145.78.78 0 01-.107-.444.903.903 0 01.056-.382.202.202 0 01.197-.112h1.807l.494-.028h.23a.18.18 0 01.191.112c.036.124.052.253.045.382a.846.846 0 01-.073.382.297.297 0 01-.168.168c-.068.02-.138.036-.208.045a.303.303 0 00-.18.084.315.315 0 00-.078.23v3.93c-.01.136.03.272.112.381.06.08.153.13.253.135a.561.561 0 01.258.056c.073.035.118.11.112.19 0 .562-.095.81-.275.81h-.292l-1.005-.029h-7.088l-1.005.028h-.292c-.18 0-.275-.264-.275-.808-.05-.022.006-.163.101-.163zm10.582-.028a.78.78 0 01.225-.084.561.561 0 00.264-.152.78.78 0 00.219-.37l1.448-4.682a.899.899 0 01.331-.533c.27-.097.557-.135.842-.112.25-.008.5.011.747.056.128.02.248.079.342.168.09.123.157.262.197.41l1.476 4.681c.037.142.113.27.219.37a.611.611 0 00.275.152.86.86 0 01.23.085.197.197 0 01.106.18c0 .56-.095.808-.275.808h-.207l-.466-.028h-1.252l-.483.028h-.23c-.18 0-.275-.264-.275-.809a.191.191 0 01.135-.18.857.857 0 01.264-.078.298.298 0 00.23-.14.443.443 0 000-.37l-.14-.455h-2.251l-.135.454a.46.46 0 000 .382c.05.079.132.13.224.14.095.01.188.035.276.073a.19.19 0 01.134.18c0 .561-.095.808-.275.808l-.353-.028c-.23 0-.444-.028-.646-.028s-.41 0-.623.028l-.342.028c-.18 0-.275-.264-.275-.808-.012-.006-.023-.14.044-.174zm2.178-1.953h1.752l-.837-2.835h-.084l-.83 2.835zm5.323 1.981a.343.343 0 00.258-.135.562.562 0 00.113-.387v-3.93a.315.315 0 00-.073-.23.298.298 0 00-.214-.073c-.07-.01-.14-.025-.207-.045a.297.297 0 01-.169-.168.87.87 0 01-.078-.387.891.891 0 01.056-.376.196.196 0 01.19-.113h2.551a.202.202 0 01.201.113.91.91 0 01.056.381.792.792 0 01-.106.444.28.28 0 01-.22.14.376.376 0 00-.218.079.298.298 0 00-.107.258v4.002a.36.36 0 00.163.354c.218.074.45.103.68.084h.353c.228.018.457-.01.673-.084a.376.376 0 00.163-.36V83.73a.292.292 0 00-.095-.258.354.354 0 00-.208-.073.264.264 0 01-.208-.14.797.797 0 01-.095-.444.903.903 0 01.056-.381.202.202 0 01.197-.113h1.677l.456-.028h.201a.202.202 0 01.197.113c.045.12.065.248.056.376a.797.797 0 01-.095.443.264.264 0 01-.208.14.35.35 0 00-.208.073.292.292 0 00-.095.259v4.002a.36.36 0 00.163.348c.22.075.453.103.684.084h.354c.228.018.457-.01.674-.084a.376.376 0 00.163-.36v-4.002a.298.298 0 00-.102-.258.382.382 0 00-.218-.073.28.28 0 01-.22-.146.78.78 0 01-.106-.443.903.903 0 01.056-.382.202.202 0 01.202-.112h1.808l.494-.028h.224a.18.18 0 01.19.112c.04.123.057.253.051.382a.831.831 0 01-.078.382.298.298 0 01-.169.168c-.067.02-.137.035-.207.045a.298.298 0 00-.18.084.309.309 0 00-.078.23v3.93a.56.56 0 00.112.381c.062.081.156.13.258.135a.563.563 0 01.258.056c.073.034.118.11.112.19 0 .562-.095.809-.275.809h-.291l-1.067-.067h-7.089l-1.005.028h-.292c-.18 0-.275-.264-.275-.809.006.006.062-.134.157-.134zm11.421 1.118a1.122 1.122 0 01-.718-.23.808.808 0 01-.264-.663.859.859 0 01.163-.561.455.455 0 01.342-.19 1.7 1.7 0 01.275.038c.103.024.209.037.314.04a.253.253 0 00.264-.208c.155-.793.219-1.6.191-2.408v-1.448a.314.314 0 00-.073-.23.297.297 0 00-.18-.084 2.118 2.118 0 01-.224-.045.292.292 0 01-.18-.169.892.892 0 01-.078-.387.916.916 0 01.056-.382.208.208 0 01.202-.112l.965.028c.595 0 1.123.028 1.65.028h1.241l1.061-.028h.427a.202.202 0 01.196.112.898.898 0 01.056.382.841.841 0 01-.073.382.292.292 0 01-.18.168c-.075.02-.152.034-.23.045a.292.292 0 00-.18.084.314.314 0 00-.072.23v3.93c-.01.136.03.272.112.381a.35.35 0 00.258.135.561.561 0 01.259.056c.072.036.116.11.112.19.004.19-.02.38-.067.562-.045.163-.113.236-.208.236h-.18l-.438-.028h-1.263l-.415.028h-.168c-.18 0-.275-.264-.275-.808a.196.196 0 01.112-.191.505.505 0 01.236-.056.32.32 0 00.235-.135.561.561 0 00.118-.387v-3.829a.449.449 0 00-.118-.37 1.122 1.122 0 00-.561-.084h-.331a.994.994 0 00-.522.084.399.399 0 00-.113.331v1.24a13.198 13.198 0 01-.246 3.032 1.798 1.798 0 01-.534.92 1.431 1.431 0 01-.954.37zm6.471-1.118a.561.561 0 01.258-.056.337.337 0 00.252-.135.561.561 0 00.113-.387v-3.93a.314.314 0 00-.073-.23.298.298 0 00-.18-.084 1.48 1.48 0 01-.208-.044.309.309 0 01-.168-.169.893.893 0 01-.073-.387 1.125 1.125 0 01.045-.382.185.185 0 01.19-.112h1.943l.562-.028h.258a.185.185 0 01.191.112c.037.124.052.253.045.382a.64.64 0 01-.095.382.382.382 0 01-.225.168 2.33 2.33 0 01-.258.045.494.494 0 00-.224.084.258.258 0 00-.096.23v1.504h.91c.381 0 .673-.028.892-.028a2.02 2.02 0 011.448.438c.343.412.507.943.455 1.476a1.953 1.953 0 01-.635 1.583 2.7 2.7 0 01-1.79.562c-.23 0-.561 0-1.061-.028l-1.022-.028c-.314 0-.598.009-.853.028l-.398.028c-.18 0-.275-.264-.275-.809a.213.213 0 01.073-.185zm2.211-2.116v1.774a.236.236 0 00.135.236 1.6 1.6 0 00.533.056h.264a.943.943 0 001.123-1.123.797.797 0 00-.977-.977l-1.078.034zm4.221 2.19a.563.563 0 01.258-.057.342.342 0 00.259-.135.562.562 0 00.112-.387v-3.93a.31.31 0 00-.079-.23.298.298 0 00-.18-.084 1.314 1.314 0 01-.207-.044.297.297 0 01-.168-.169.893.893 0 01-.073-.387 1.123 1.123 0 01.045-.382.185.185 0 01.19-.112h2.588a.197.197 0 01.191.112c.046.12.065.248.056.376a.831.831 0 01-.078.382.292.292 0 01-.169.168c-.068.02-.137.036-.208.045a.298.298 0 00-.18.084.309.309 0 00-.078.23v3.93a.561.561 0 00.112.376.35.35 0 00.259.135.56.56 0 01.252.056c.073.034.118.11.113.19 0 .562-.096.809-.276.809h-.18l-.437-.028h-1.269l-.437.028h-.18c-.18 0-.275-.264-.275-.808-.023-.029-.067-.13.034-.169h.005zm3.96-.158a.359.359 0 00.259-.135.561.561 0 00.112-.387v-3.93a.314.314 0 00-.073-.23.303.303 0 00-.18-.084 1.314 1.314 0 01-.207-.044.298.298 0 01-.168-.169.897.897 0 01-.073-.387 1.122 1.122 0 01.045-.382.18.18 0 01.19-.112h1.853l.533-.028h.247a.195.195 0 01.19.112.893.893 0 01.057.382.719.719 0 01-.084.376.337.337 0 01-.197.168l-.224.05a.387.387 0 00-.202.085.28.28 0 00-.085.23v1.735h.292a.752.752 0 00.73-.37l.966-1.365c.078-.084.095-.163.056-.219a.286.286 0 00-.169-.112.444.444 0 01-.224-.168.612.612 0 01-.118-.388c-.01-.13.01-.26.056-.381a.196.196 0 01.19-.113h.4c.258 0 .482.028.69.028h.483l.398-.028h.19a.199.199 0 01.192.113.876.876 0 01.056.381.898.898 0 01-.084.444.292.292 0 01-.202.162 1.065 1.065 0 00-.275.085.6.6 0 00-.259.23l-1.24 1.757 1.38 2.301a.887.887 0 00.298.314.767.767 0 00.292.113c.076.006.15.025.219.056.059.035.092.1.084.168 0 .438-.084.69-.258.775a1.465 1.465 0 01-.69.123 2.245 2.245 0 01-.921-.162 1.331 1.331 0 01-.561-.618l-.96-1.78a1.005 1.005 0 00-.298-.359.797.797 0 00-.404-.084h-.219v1.325c-.01.137.03.272.113.382a.32.32 0 00.235.134c.082 0 .163.02.236.057a.2.2 0 01.112.19c0 .562-.095.809-.275.809h-.168l-.415-.028h-1.263l-.438.028h-.18c-.18 0-.275-.264-.275-.809a.253.253 0 01.236-.241zm-50.565 8.746a.668.668 0 01.276-.056.393.393 0 00.274-.135.56.56 0 00.135-.387v-3.93a.314.314 0 00-.073-.23.298.298 0 00-.18-.084 1.212 1.212 0 01-.207-.045.297.297 0 01-.168-.168.881.881 0 01-.073-.387.91.91 0 01.056-.382.202.202 0 01.19-.112l.41.028h1.443l.561-.028a.786.786 0 01.561.14c.146.228.252.478.315.741l1.044 3.368 1.055-3.402c.063-.257.17-.502.315-.724a.73.73 0 01.533-.14h.522c.264 0 .483.028.645.028.163 0 .455 0 .713-.028h.399a.202.202 0 01.196.112.898.898 0 01.056.382.842.842 0 01-.073.376.286.286 0 01-.18.168c-.075.02-.152.035-.23.045a.298.298 0 00-.18.084.31.31 0 00-.072.23v3.93c-.01.135.03.268.112.376a.35.35 0 00.258.135.56.56 0 01.259.056.2.2 0 01.112.19c.004.19-.019.379-.067.562-.045.163-.113.236-.208.236h-.174l-.416-.029h-1.818c-.18 0-.275-.263-.275-.808a.202.202 0 01.095-.19.443.443 0 01.22-.057.297.297 0 00.218-.135.646.646 0 00.096-.387V92.24h-.068l-1.515 4.642a.948.948 0 01-.264.466c-.19.084-.4.117-.607.095a1.236 1.236 0 01-.628-.106.881.881 0 01-.253-.455l-1.454-4.58h-.084v3.929a.56.56 0 00.113.382c.062.08.156.13.258.134a.561.561 0 01.258.056.203.203 0 01.112.191c0 .562-.095.803-.275.803H27.1c-.224 0-.443-.028-.645-.028s-.427 0-.69.028h-.405c-.095 0-.162-.084-.207-.247a2.033 2.033 0 01-.068-.561.202.202 0 01.101-.163zm9.425-.04a.815.815 0 01.23-.085.6.6 0 00.264-.151.792.792 0 00.219-.37l1.448-4.682a.893.893 0 01.331-.528c.27-.1.556-.14.842-.117.25-.008.5.01.747.056.128.02.248.078.342.168.092.12.16.258.202.404l1.477 4.681c.037.142.112.27.218.371a.622.622 0 00.276.151c.08.017.157.046.23.085a.19.19 0 01.106.18c0 .56-.095.808-.275.808h-.207l-.466-.028h-1.252l-.483.028h-.23c-.18 0-.275-.264-.275-.809a.191.191 0 01.135-.18.87.87 0 01.264-.072.298.298 0 00.23-.14.443.443 0 000-.371l-.14-.455h-2.296l-.135.455a.46.46 0 000 .382c.05.08.136.132.23.14.095.01.188.035.275.073a.19.19 0 01.135.18c0 .56-.096.808-.275.808l-.348-.028c-.225 0-.444-.028-.646-.028s-.41 0-.628.028l-.343.028c-.18 0-.275-.264-.275-.808.011 0 .006-.135.073-.174zm2.178-1.954h1.78l-.826-2.834h-.084l-.87 2.834zm5.215 2.05a.563.563 0 01.258-.057.342.342 0 00.258-.134.561.561 0 00.113-.388v-3.929a.314.314 0 00-.073-.23.297.297 0 00-.18-.084 1.44 1.44 0 01-.208-.05.297.297 0 01-.168-.17.88.88 0 01-.073-.386c-.01-.13.01-.26.056-.382a.202.202 0 01.19-.112h1.791l.506-.028h.236a.18.18 0 01.19.112c.037.124.052.253.045.382a.718.718 0 01-.112.443.309.309 0 01-.236.14.438.438 0 00-.235.073.275.275 0 00-.113.259v1.594h2.077V92.34c.013-.1-.03-.2-.112-.259a.439.439 0 00-.236-.073.308.308 0 01-.236-.14.718.718 0 01-.112-.443 1.122 1.122 0 01.045-.382.18.18 0 01.19-.112h1.763l.522-.028h.247c.08-.004.155.04.191.112a.91.91 0 01.056.381.842.842 0 01-.073.377.292.292 0 01-.18.168l-.207.045a.304.304 0 00-.168.084.315.315 0 00-.073.23v3.93a.561.561 0 00.112.376c.062.08.156.13.258.134a.561.561 0 01.258.056c.072.036.116.11.113.191 0 .561-.096.808-.276.808h-.168l-.415-.028h-1.881c-.18 0-.275-.263-.275-.808a.196.196 0 01.113-.19.515.515 0 01.235-.057.326.326 0 00.236-.135.56.56 0 00.112-.387v-1.43h-2.076v1.431a.557.557 0 00.112.382.326.326 0 00.236.135c.081 0 .162.02.235.056a.2.2 0 01.112.19c0 .562-.095.803-.274.803h-.18l-.438-.028h-1.263l-.41.028h-.168c-.18 0-.275-.264-.275-.808a.079.079 0 01.028-.067zm7.444-.096a.56.56 0 01.258-.056.348.348 0 00.258-.135.56.56 0 00.112-.387v-3.93a.314.314 0 00-.078-.23.291.291 0 00-.18-.084c-.07-.01-.14-.025-.208-.044a.303.303 0 01-.168-.169c-.09-.248-.09-.52 0-.769a.197.197 0 01.191-.112l.5.028h3.003l1.212-.028a.45.45 0 01.286.073c.07.074.108.173.107.275l.045 1.403a.47.47 0 01-.056.32c-.045.056-.169.084-.37.084a.74.74 0 01-.467-.095.847.847 0 01-.196-.399 1.028 1.028 0 00-.23-.494.876.876 0 00-.562-.112h-.606a1.173 1.173 0 00-.51.067.309.309 0 00-.113.287v3.929a.46.46 0 00.163.382.56.56 0 00.342.134c.117 0 .233.019.343.056.09.02.157.098.162.191.004.19-.018.379-.067.562-.045.162-.112.235-.208.235h-.23l-.533-.028h-1.335l-.472.028h-.202c-.18 0-.275-.264-.275-.808-.006 0 .005-.135.084-.174zm5.619 0a.808.808 0 01.23-.085.6.6 0 00.264-.151.78.78 0 00.22-.37l1.447-4.682a.893.893 0 01.332-.528c.269-.1.556-.14.842-.117.25-.008.5.01.746.056a.64.64 0 01.343.168c.091.121.16.258.202.404l1.476 4.681a.78.78 0 00.219.371.616.616 0 00.275.151.874.874 0 01.224.085.197.197 0 01.107.18c0 .56-.095.808-.275.808h-.208l-.466-.028h-1.251l-.483.028h-.23c-.18 0-.275-.264-.275-.809a.19.19 0 01.134-.18.872.872 0 01.264-.072.298.298 0 00.225-.14.438.438 0 000-.371l-.14-.455h-2.296l-.135.455a.46.46 0 000 .382c.049.079.132.13.224.14.095.01.188.035.275.073a.19.19 0 01.135.18c0 .56-.095.808-.275.808l-.348-.028c-.224 0-.443-.028-.645-.028s-.41 0-.629.028l-.342.028c-.18 0-.275-.264-.275-.808.033 0 .022-.135.09-.174zm2.178-1.954h1.752l-.826-2.834h-.084l-.842 2.834zm5.803 3.105c-.258.01-.512-.07-.718-.225a.808.808 0 01-.264-.662.865.865 0 01.163-.561.455.455 0 01.342-.191c.093.005.185.018.275.039.104.023.209.036.315.04.128.01.243-.08.263-.209.155-.792.22-1.6.191-2.408v-1.448a.314.314 0 00-.073-.23.297.297 0 00-.18-.084 2.117 2.117 0 01-.23-.045.287.287 0 01-.18-.168.878.878 0 01-.078-.388.909.909 0 01.056-.381.202.202 0 01.202-.113h.966c.599.02 1.149.028 1.65.028h1.24l1.062-.028h.426a.208.208 0 01.202.113.909.909 0 01.056.381.826.826 0 01-.078.376.286.286 0 01-.18.169 2.225 2.225 0 01-.23.045.298.298 0 00-.18.084.314.314 0 00-.073.23v3.93a.561.561 0 00.113.375c.061.081.156.13.258.135a.561.561 0 01.258.056c.072.036.116.11.112.191a2.04 2.04 0 01-.067.561c-.045.163-.112.236-.208.236h-.18l-.437-.028H66c-.18 0-.275-.264-.275-.808a.202.202 0 01.112-.191.526.526 0 01.236-.056.326.326 0 00.236-.135.561.561 0 00.112-.387v-3.79a.45.45 0 00-.113-.37 1.122 1.122 0 00-.56-.084h-.332a1.005 1.005 0 00-.522.084.404.404 0 00-.112.332v1.24a13.282 13.282 0 01-.247 3.031 1.807 1.807 0 01-.534.92 1.415 1.415 0 01-.954.394zm6.477-1.122a.561.561 0 01.258-.057.342.342 0 00.258-.134.561.561 0 00.113-.388v-3.929a.314.314 0 00-.073-.23.298.298 0 00-.18-.084c-.07-.01-.14-.025-.208-.045a.303.303 0 01-.168-.168.893.893 0 01-.073-.388 1.122 1.122 0 01.045-.381.185.185 0 01.19-.113h1.944l.561-.028h.258a.185.185 0 01.191.112c.035.124.05.253.045.382a.651.651 0 01-.095.382.393.393 0 01-.23.168 2.3 2.3 0 01-.259.045.466.466 0 00-.23.084.264.264 0 00-.095.23v1.51c.224 0 .533 0 .91-.028.375-.028.673-.028.892-.028a2.02 2.02 0 011.448.438c.344.41.508.943.454 1.476a1.959 1.959 0 01-.634 1.583 2.695 2.695 0 01-1.79.562c-.23 0-.562 0-1.061-.028l-1.022-.028c-.314 0-.595 0-.853.028l-.399.028c-.18 0-.275-.264-.275-.809a.219.219 0 01.079-.162zm2.212-2.117v1.774a.23.23 0 00.134.236c.173.05.354.068.533.056h.264a.943.943 0 001.123-1.123.803.803 0 00-.977-.976l-1.078.033zm4.49 2.133c.1-.01.192-.059.258-.134a.561.561 0 00.113-.393v-3.93a.31.31 0 00-.08-.224.287.287 0 00-.179-.084c-.07-.01-.14-.025-.207-.045a.297.297 0 01-.169-.168.897.897 0 01-.073-.388 1.122 1.122 0 01.045-.382.185.185 0 01.191-.112h1.852l.511-.028h.225a.202.202 0 01.19.118c.045.12.064.248.057.376a.86.86 0 01-.073.382.304.304 0 01-.174.168c-.068.02-.138.036-.208.045a.286.286 0 00-.18.084.314.314 0 00-.073.23v3.93c-.01.136.03.272.113.381a.34.34 0 00.258.135.563.563 0 01.258.056c.073.035.118.11.112.191 0 .561-.095.808-.275.808h-.18l-.437-.028h-1.269l-.438.028h-.18c-.179 0-.274-.263-.274-.808-.045-.005-.068-.157.264-.202l.022-.006zm6.748-.023a.522.522 0 00.342-.135.477.477 0 00.163-.387v-.881c-.073 0-.32 0-.73.039-.41.04-.724.04-.937.04a1.79 1.79 0 01-1.392-.45 2.42 2.42 0 01-.382-1.566v-1.123a.314.314 0 00-.073-.23.287.287 0 00-.18-.084 1.878 1.878 0 01-.23-.045.286.286 0 01-.18-.168.87.87 0 01-.078-.388.909.909 0 01.056-.381.202.202 0 01.197-.112h2.469a.185.185 0 01.191.112c.036.124.051.253.045.381.005.128-.014.256-.056.377a.27.27 0 01-.14.168c-.055.02-.112.034-.169.045a.225.225 0 00-.14.084.366.366 0 00-.056.225v1.122c-.035.299.035.6.196.854.21.164.477.239.741.207h.938v-2.189a.359.359 0 00-.056-.23.224.224 0 00-.14-.084 1.12 1.12 0 01-.17-.045.264.264 0 01-.14-.169 1.124 1.124 0 01-.056-.387.916.916 0 01.056-.382.202.202 0 01.203-.112h2.474c.08-.005.156.04.19.112a.914.914 0 01.057.382.848.848 0 01-.073.382.286.286 0 01-.169.168 1.219 1.219 0 01-.207.045.298.298 0 00-.18.084.314.314 0 00-.073.225v3.929c-.01.137.03.272.112.382.063.08.157.13.259.134a.561.561 0 01.258.057.197.197 0 01.118.19c0 .562-.096.809-.275.809h-2.01l-.533.028h-.225c-.095 0-.162-.084-.207-.247a2.033 2.033 0 01-.068-.561s-.09-.23.259-.225zm-63.906 11.239a.455.455 0 01-.253-.079c-.814-.561-1.156-.904-1.223-1.257a.454.454 0 01.887-.186c.235.281.52.515.841.691a.448.448 0 01-.252.825v.006zM58.982 32.33c-1.639-.426-4.199-1.773-4.844-3.367-.646-1.595.297-4.755 3.098-3.604-.982.174-1.06 1.942 1.426 1.768 2.958-.208 4.586-1.734 7.797-1.01.87.196 3.654 1.79 3.407 2.863-.275.488.432 1.588 0 1.959.011 0-6.472 2.559-10.884 1.392z" fill="#551215"/><path opacity=".8" d="M63.396 63.708a7.662 7.662 0 100-15.324 7.662 7.662 0 000 15.324zm-7.54-16.411a7.617 7.617 0 00-1.336-4.322c-3.009.252-5.788 1.566-7.51 4.148-1.825 2.43-1.623 5.052-.674 7.605a7.662 7.662 0 009.542-7.431h-.022z" fill="#F47D6F"/><path d="M62.805 44.067a.398.398 0 01-.107-.707 3.155 3.155 0 011.892-.28h.056a.405.405 0 01.056-.09 3.666 3.666 0 013.436-1.494c2.15.382 2.851 2.043 3.255 3.093.27.707-.275.741-.65.881-2.37.893-6.843-2.284-7.938-1.403zm4.216-.595h.078c.522.169 1.196.421 1.847.657.561.208.707.14 1.196.309a2.998 2.998 0 00-2.386-1.864c-.713-.09-1.47-.185-2.167.561.487.067.966.18 1.432.337z" fill="#551215"/><path d="M65.084 43.511a3.452 3.452 0 012.51-1.235c2.244 0 3.109 2.42 2.85 2.459-1.75.258-5.36-1.224-5.36-1.224z" fill="#fff"/><path d="M55.514 52.577c-.364.05-.73-.087-.97-.365a.966.966 0 01-.113-.219.78.78 0 00-.045-.107.94.94 0 00-.247.057 1.269 1.269 0 01-.354.073 3.98 3.98 0 01-1.683-.208l.196-.444c.47.156.967.213 1.46.169.074-.009.147-.026.218-.05a.938.938 0 01.562-.057c.178.063.313.21.359.393a.635.635 0 00.045.107c.129.163.28.174.595.174v.241l-.023.236zm26.012-7.954a.399.399 0 00-.528-.056l-4.098 2.98a.398.398 0 00-.162.32v.876c.062.939.007 1.881-.163 2.807-.079.33-1.426 3.514-1.527 3.766a.399.399 0 00.073.421 22.317 22.317 0 003.497-1.965c3.98-3.115 4.48-7.409 2.908-9.149z" fill="#551215"/><path d="M55.67 39.913c.079.5 1.74 1.05 1.74 1.05l.438-1.622-1.201-1.96a2.913 2.913 0 00-.977 2.532z" fill="#fff"/><path d="M57.407 41.817c-.196.09-.426-.118-.483-.264a2.245 2.245 0 00-1.655-1.168.399.399 0 11.084-.786 3.93 3.93 0 012.054 1.123s.803-1.577-.196-2.464a4.277 4.277 0 00-2.156-1.01h-.028a.399.399 0 010-.792 4.383 4.383 0 012.807 1.325 2.806 2.806 0 01-.427 4.036z" fill="#551215"/><path d="M57.49 38.426c-.56-.247-.864.893-.645 1.314.365.718 1.375.426 1.24-.562a.814.814 0 00-.595-.752zM45.208 80.11a.455.455 0 01-.258-.078.91.91 0 01-.388-.724c.495-3.256 3.368-8.544 4.856-8.499.651 0 5.798 2.044 7.589 1.617 4.76-1.123 10.48-.803 14.47-3.104 2.117-1.218 3.301-2.498 3.368-3.604.029-.724-.449-1.431-1.42-2.105a.455.455 0 01.511-.746c1.246.858 1.807 1.83 1.813 2.885a6.342 6.342 0 01-.561 2.964c-.421.887-1.32 3.368-8.01 4.715-8.925 1.785-17.08-1.847-17.4-1.858-.938 0-3.655 6.011-4.183 8.335-.045.135-.241.202-.387.202z" fill="#551215"/><path d="M76.025 48.435c-1.308 0-3.194 3.71-2.026 4.12 2.245.791 3.418-2.37 4.86-3.593" fill="#E8B898"/><path d="M74.71 53.05a2.511 2.511 0 01-.83-.152c-.23-.079-.74-.382-.561-1.404.224-1.341 1.527-3.413 2.717-3.424a.365.365 0 010 .724c-.652 0-1.814 1.64-2.01 2.807 0 .09-.078.561.101.595 1.23.432 2.06-.516 3.188-2.01.379-.64.813-1.247 1.297-1.813a.367.367 0 11.472.562 12.913 12.913 0 00-1.185 1.684c-.87 1.162-1.83 2.43-3.188 2.43z" fill="#551215"/><path d="M82.35 37.685a10.252 10.252 0 00-1.386-2.48c-.208-.304-.427-.618-.63-.932-.106-.174-.235-.36-.37-.562a5.376 5.376 0 01-.96-1.83.561.561 0 10-1.06.113c.381.561.42 1.684.443 2.39a4.277 4.277 0 01-.376 1.786l-.084.23a4.76 4.76 0 01-.455.876 10.362 10.362 0 00-1.858-2.959 9.7 9.7 0 00-4.193-3.508c-.825-.308-1.88-.561-2.313.05-1.886 2.678-.235 5.962 1.578 7.697 1.992 1.902 4.277 2.133 4.49 2.363a.802.802 0 00-.258 1.178c.292.421 1.123.376 1.735.315a2.908 2.908 0 01-1.915 1.077.399.399 0 00-.359.433c.073.858.702.836 1.544.976-.932.663-3.458 2.773-2.049 4.44 1.123 1.353 4.771-.64 5.383-.993 1.252-.73 2.026-2.554 2.301-3.306 1.174-3.082 1.432-5.552.792-7.354zm-21.481-1.129c.219-2.116-4.238-1.684-5.563-3.968a2.762 2.762 0 001.56 3.076c.562.275 3.088.561 3.223 2.391l.78-1.499z" fill="#551215"/><path d="M64.272 38.775c.56-3.11 5.652-2.06 7.74-2.515 1.257 4.451-5.754.74-7.74 2.756v-.241zm-5.374 7.526c-.074-.05-.489-.348-.775 0-.286.348.342.562.37.595 1.51 2.246-4.092.135-3.817-.847.135-.489 1.151-1.353 1.482-1.605.653-.498 1.27-1.04 1.847-1.623 1.179-1.212 2.307-2.475 2.807-4.137a4.139 4.139 0 00.095-2.531c-.067-.208-.443-.489-.657-.421a.387.387 0 00-.264.494c.702 1.79-.505 3.929-2.06 5.568-1.83 1.92-4.125 3.222-4.125 4.025 0 2.245 4.002 3.255 4.799 3.149 1.504-.191 1.19-2.044.297-2.667z" fill="#551215"/><path d="M63.124 67.755a24.961 24.961 0 01-4.782.73c-.736-.135-1.095 1.958-1.303 2.71a4.813 4.813 0 00-.05 1.73c3.053-.382 8.156.398 11.08-.596 2.807-.96 2.924-1.532 5.462-3.02 1.173-.684 1.684-2.351 1.684-3.687.033-1.173-.348-2.032-.5-3.155-.073-.561.354-2.47-.264-2.806-.617-.337-3.862 4.434-4.445 4.844-.006-.023-4.564 2.453-6.882 3.25z" fill="#fff"/><path d="M56.023 73.188l1.617-5.204s5.748 0 9.98-2.52c4.233-2.52 4.39-5.147 4.334-4.895-.057.253 2.632-1.375 2.733-1.319.685.399 1.252 6.444 1.044 7.208-2.447 8.734-19.708 6.73-19.708 6.73zM73.89 60.575c-4.777 8.757-15.453 8.016-15.717 8.29-.612 2.414-.97 3.34-1.032 3.666.993.303 16.205 1.347 17.327-6.579.084-.679-.494-4.995-.578-5.377z" fill="#551215"/><path d="M46.556 62.383c-.5-.561-.264-2.503-.926-2.004-1.123.859-2.38 2.42-2.583 3.637-.269 1.645.562 4.12 1.539 5.361 1.206 1.56.46.264 1.835 1.645.455-1.218 1.123-2.307 1.622-3.503.562-1.364.416-.657.724-2.082.045-.225-2.279-1.73-2.211-3.054z" fill="#fff"/><path d="M50.754 75.489a1.33 1.33 0 100-2.66 1.33 1.33 0 000 2.66zm24.569-24.141a.517.517 0 01-.163 0 .365.365 0 01.095-.708c.282-.205.527-.458.724-.746.149-.212.284-.433.404-.663l.135-.247.067-.112a.99.99 0 00.152-.309.364.364 0 01.342-.381.37.37 0 01.382.342c-.01.264-.1.518-.258.73l-.056.09-.13.236a6.681 6.681 0 01-.454.74 3.878 3.878 0 01-.92.932h-.029a.505.505 0 01-.291.096z" fill="#551215"/><path d="M20.74 100.3c.237.039.197.836.135 1.021-.13.374-.448.651-.836.73" fill="#E8B898"/><path d="M20.044 102.411a.365.365 0 010-.724c.152 0 .438-.275.505-.478a1.816 1.816 0 000-.611.366.366 0 01.264-.657.5.5 0 01.348.247c.155.397.18.833.073 1.246a1.483 1.483 0 01-1.19.977zm34.662-50.485l-.304-.376a.444.444 0 00.09-.118l.04-.062c.095-.14.198-.274.308-.404.084-.1.169-.202.247-.308l.14-.197c.288-.381.55-.78.786-1.195.157-.292.32-.562.483-.837l.112-.19a1.3 1.3 0 00.146-.4l.472.102a1.744 1.744 0 01-.202.561l-.118.191c-.169.275-.326.561-.472.814-.245.435-.52.853-.82 1.252l-.14.196c-.084.118-.174.225-.263.337-.09.112-.197.241-.281.365l-.034.05a.87.87 0 01-.19.22zM3.844 103.392c-.13 0-.77.135-.797 0-1.275-6.107-.421-9.79.072-11.788 3.368-13.898 10.396-18.865 17.962-22.02 10.104-4.216 21.33-4.49 21.516-4.945.337-.898.151.847.28 1.066.13.22-.415-.263-.482 0-.242.792-10.89.663-20.864 4.962-7.253 3.127-13.927 7.859-17.306 21.094-.471 1.853-.92 6.327-.398 8.824.1.472-.399 0-.146.315.163.191-.685 1.858 0 1.813.084-.051.27.679.163.679z" fill="#551215"/><path d="M61.022 27.491c1.908-4.49 5.64-8.02 8.487-12.012.712-.999 1.004-2.947 1.184-4.148 1.044-6.96-.561-6.882 2.56-9.245C78.865-2.157 85.13 3.9 85.13 10.478c0-.517 3.02-2.004 3.48-1.953a8.004 8.004 0 015.293 2.716c2.498 3.177 1.926 5.866-.337 8.87 1.01-1.343 5.193.616 6.175 1.335 2.526 1.807 2.689 3.996 1.74 6.837-1.263 3.789-3.48 4.72-6.556 6.736-1.903 1.251-3.638 2.245-5.147 3.996-2.69 3.076-8.662 7.65-8.785 7.297-3.677-10.485-3.53-11.827-13.32-16.974-2.515-1.347-4.872-1.095-6.651-1.847z" fill="#fff"/><path d="M91.965 36.849h2.576l3.525-.376 2.386-1.145 1.605-1.258.489-1.908-1.381-3.593-1.667 2.734-3.626 2.767-3.907 2.779z" fill="#fff"/><path d="M81.026 47.07a.354.354 0 01-.337-.24C77.468 37.381 76.794 35.44 68 30.69a9.586 9.586 0 00-2.97-.74c-1.79-.265-5.613-1.264-5.523-1.387 4.047-6.175 9.087-12.484 9.446-13.079.988-1.622 1.235-3.822 1.471-5.955.337-3.037.27-6.697 2.857-8.285a7.353 7.353 0 017.387-.466c3.57 1.802 5.248 6.882 4.861 8.807 4.833-5.215 14.168 3.789 8.981 10.103a7.774 7.774 0 014.49.708c2.605 1.347 4.979 4.58 2.56 8.98a13.098 13.098 0 01-5.428 5.31c-.713.405-1.448.82-2.127 1.275-1.684 1.123-12.209 11.097-12.96 11.097l-.018.011zm-19.5-19.23c13.78 1.319 19.326 11.675 19.612 17.782 1.18-.735 10.104-9.261 11.94-10.272 12.635-7.022 8.767-15.34.19-14.398l-.976.113s.398-.455.454-.517c5.827-5.944-1.515-12.04-4.956-11.12-1.566.422-3.368 2.667-3.329 2.392.37-6.876-4.153-10.216-8.105-10.216a4.49 4.49 0 00-2.728.932c-2.217 1.633-1.774 4.552-2.11 7.578a14.53 14.53 0 01-1.987 5.938c-.37.634-6.327 8.796-8.005 11.788z" fill="#551215"/><path d="M91.44 37.466c-3.83-17.485-20.983-21.195-22.066-21.7-.18-.084.112-.764.19-.949a.382.382 0 01.472-.18c19.523 5.22 22.683 22.105 22.492 22.156-.028.028-.982 1.15-1.089.673z" fill="#551215"/><path d="M70.108 15.306c-.062 0-.51-.202-.561-.202-.971 0-8.15-14.269 3.188-12.551.18 0 .073.359-.073.466-.146.106-.455.628-.634.606-7.74-.954-2.908 10.272-1.724 11.063.153.105.195.31.096.466a.325.325 0 01-.292.152z" fill="#551215"/><path d="M27.992 114.074l60.976.696-1.898 2.234-57.562.758-1.516-3.688z" fill="#D68C3C"/><path d="M29.508 118.251a.489.489 0 01-.45-.303l-1.51-3.666a.481.481 0 01.051-.454.499.499 0 01.404-.214l60.97.668a.484.484 0 01.365.797l-1.897 2.246a.478.478 0 01-.365.168l-57.563.758h-.005zm-.786-3.677l1.122 2.706 56.996-.753 1.09-1.285-59.208-.668z" fill="#551215"/><path d="M28.218 111.93a5.726 5.726 0 10-8.9 7.208 5.726 5.726 0 008.9-7.208zm-6.371 5.159a2.481 2.481 0 113.852-3.129 2.481 2.481 0 01-3.852 3.129z" fill="#D68C3C"/><path d="M23.776 121.742a6.208 6.208 0 11.037-12.416 6.208 6.208 0 01-.037 12.416zm0-11.445a5.24 5.24 0 100 10.48 5.24 5.24 0 000-10.48zm0 8.201a2.958 2.958 0 11.029-5.915 2.958 2.958 0 01-.029 5.915zm0-4.957a1.994 1.994 0 101.544.741 1.976 1.976 0 00-1.55-.741h.006z" fill="#551215"/><path d="M66.768 116.365c.04-1.684 1.92-1.908 3.789-2.189a4.765 4.765 0 10-8.218 4.547 4.76 4.76 0 006.736.701 4.747 4.747 0 001.386-1.841c-1.97.494-3.598.589-3.693-1.218z" fill="#7A491A"/><path d="M66.072 120.973a5.259 5.259 0 114.968-6.955.49.49 0 01-.388.635l-.196.028c-1.948.291-3.138.561-3.177 1.684.045.757.393 1.049 1.235 1.049a7.769 7.769 0 001.83-.292.484.484 0 01.56.657 5.256 5.256 0 01-4.832 3.2v-.006zm0-9.542a4.232 4.232 0 00-2.695.954 4.289 4.289 0 00-.673 6.028 4.267 4.267 0 003.334 1.589 4.294 4.294 0 003.43-1.718 6.06 6.06 0 01-.988.09c-1.735 0-2.156-1.078-2.206-1.987v-.039c.04-1.886 1.847-2.296 3.587-2.566a4.265 4.265 0 00-3.828-2.357l.039.006z" fill="#551215"/><path d="M48.11 115.966a9.575 9.575 0 00-2.178-4.642c-1.437-1.471-2.728-1.729-4.732-1.572l.83-.185c-2.026-3.424-7.779-.943-7.802 2.492.003.636.06 1.271.169 1.897 1.487.36 3.132.349 3.334 1.741.191 1.807-.876 1.975-2.245 1.88 1.005 2.217 2.588 4.098 4.71 4.311 3.227.342 8.206-2.077 7.914-5.922z" fill="#AD2223"/><path d="M40.813 122.415c-.224 0-.438 0-.645-.028-2.043-.208-3.856-1.841-5.103-4.597-.067-.157.612-.46.758-.46.374.052.752-.049 1.05-.281.373-.313.526-.818.387-1.285-.151-.68-.713-.876-2.077-1.123-.292-.056-.59-.112-.892-.185a.483.483 0 01-.365-.393 11.523 11.523 0 01-.174-1.982c0-2.638 2.806-4.614 5.321-4.614a3.773 3.773 0 013.323 1.785 5.218 5.218 0 013.885 1.757 9.944 9.944 0 012.318 4.945 4.929 4.929 0 01-1.415 3.767 9.182 9.182 0 01-6.37 2.694zm-4.524-4.328c.741 1.387 2.043 3.138 3.974 3.329.187.01.375.01.562 0a8.277 8.277 0 005.663-2.397 3.93 3.93 0 001.162-3.037 9.226 9.226 0 00-2.043-4.338 4.276 4.276 0 00-3.435-1.465c-.275 0-.562 0-.91.039a.486.486 0 01-.146-.96h.101a2.882 2.882 0 00-2.127-.842c-1.959 0-4.339 1.628-4.356 3.649.002.499.039.998.112 1.493l.528.106c1.24.236 2.644.5 2.857 1.965a2.279 2.279 0 01-.42 1.852 2.103 2.103 0 01-1.528.606h.006z" fill="#551215"/><path d="M42.088 109.045c.14-.354-.668-2.144-1.325-2.178-.656-.034-1.852 1.308-2.497 1.644.258.41 1.19.988 1.28 1.393.145.662-.843 1.161-.22 1.88.511.561 1.045-.079 1.645.213 1.123.562.606.859 1.723 1.005-.56-.073 2.055-.561 1.522-.241.943-.517 1.173-.517.886-1.847-.454-2.077-1.897-2.565-3.603-1.387" fill="#64BA46"/><path d="M42.693 113.485h-.062a1.577 1.577 0 01-1.201-.561 1.79 1.79 0 00-.674-.489.684.684 0 00-.438 0 1.239 1.239 0 01-1.358-.348 1.32 1.32 0 01-.05-1.684.849.849 0 00.157-.426 3.408 3.408 0 00-.562-.561 3.613 3.613 0 01-.673-.696.483.483 0 01.185-.685 5.76 5.76 0 00.78-.601c.657-.561 1.33-1.122 1.97-1.122.41 0 .809.336 1.19.931.238.371.427.771.562 1.19a2.308 2.308 0 011.448.062c.561.219 1.28.786 1.6 2.245.32 1.46 0 1.763-.926 2.246l-.203.106a.488.488 0 01-.505 0 7.97 7.97 0 00-.88.152.47.47 0 01-.36.241zm-2.071-2.049c.194-.001.386.044.56.129.374.165.706.41.972.719a.48.48 0 00.331.196c.225-.084.458-.144.696-.179a4.247 4.247 0 011.084-.113c.56-.297.56-.331.364-1.167-.129-.561-.404-1.319-1.01-1.555a2.076 2.076 0 00-1.847.466.488.488 0 01-.561-.797c.135-.095.27-.174.398-.253-.05-.409-.606-1.442-.892-1.526-.241 0-.91.561-1.269.87l-.449.37.169.146c.382.262.679.631.853 1.061.062.393-.028.794-.253 1.123-.202.376-.196.421-.067.561.13.14.096.112.415.039.165-.05.334-.082.506-.095v.005z" fill="#551215"/><path d="M40.376 113.945c-.365-.437-.685-1.122-1.398-.404-.562.562.157 1.336.561 1.768 1.65 1.864 4.771 1.988 6.455.348-.432-1.145-3.446.871-5.618-1.712z" fill="#DC8782"/><path d="M63.911 113.193c-.241 0-.168.314-.393.409-.33.146-.943.971-.797 1.37.36.977 1.578.612 2.246.337 2.48-1.067.56-3.396-.22-2.246l-.836.13z" fill="#AC6E3D"/><path d="M62.02 120.709l4.12 1.936 1.453-2.425-5.012-1.257-.562 1.746z" fill="#7A491A"/><path d="M66.138 123.134a.496.496 0 01-.208-.045l-4.12-1.942a.482.482 0 01-.258-.561l.561-1.746a.482.482 0 01.562-.32l5.006 1.263a.483.483 0 01.298.718l-1.454 2.425a.481.481 0 01-.387.208zm-3.53-2.677l3.339 1.571.892-1.487-3.929-.994-.303.91z" fill="#551215"/><path d="M79.545 117.218a6.325 6.325 0 00-.86-.056 4.128 4.128 0 01-1.122-.135.97.97 0 01-.471-.64 1.897 1.897 0 01.168-1.364 1.189 1.189 0 011.09 0h.027c.21.001.42-.014.629-.045a.99.99 0 01.471 0 .088.088 0 00.068-.024.09.09 0 00.028-.066.086.086 0 000-.044v-.107a5.683 5.683 0 01-.163-1.01 4.806 4.806 0 01.045-.708c.04-.271.055-.545.045-.819-.04-.3-.132-.59-.27-.859-.044-.107-.09-.213-.129-.314a.808.808 0 01-.118-.113c-.325-1.195-4.007-1.195-4.007-1.195s-.113 0-.612 1.122l-.09.202a11.73 11.73 0 01-1.415 2.139 6.338 6.338 0 01-.32.359 2.486 2.486 0 00-.73 1.168c-.173.836.248 1.65.658 2.43.2.36.372.735.51 1.123.163.609.257 1.234.281 1.864 0 .19.028.381.045.561l.09.92.033.343a.09.09 0 00.068.078l2.722.724h.056l1.151-.415c.915-.427 1.892-4.535 2.155-4.996a.09.09 0 000-.084.087.087 0 00-.033-.039z" fill="#461B10"/><path d="M75.317 111.195c-.41.397-.767.846-1.06 1.336a5.052 5.052 0 00-.562 1.572 6.93 6.93 0 00-.146 1.235c.005.16.045.317.118.46.08.213.111.441.09.668a6.53 6.53 0 00.207 1.605c.079.298.135.595.22.882.083.286.094.561.156.864.115.444.281.874.494 1.28.112.241.489.808.837.673.348-.134.056-1.122-.056-1.358a2.357 2.357 0 01-.247-.842v-.511c0-.162-.135-.353-.152-.561a5.992 5.992 0 00-.062-.825 10.28 10.28 0 01-.308-1.039 6.536 6.536 0 00-.029-.701c-.056-.247-.168-.489-.207-.741-.146-.825.482-1.718.926-2.363.128-.257.219-.531.27-.814a.529.529 0 00-.287-.73.242.242 0 00-.14-.045" fill="#7A491A"/><path d="M59.488 117.722a.116.116 0 00-.101-.05h-.05a16.324 16.324 0 01-2.398-.225l-.404-.056a1.327 1.327 0 01-.73-.774 3.167 3.167 0 01-.123-2.156 1.4 1.4 0 01.893-.314c.16.002.32.017.477.045.24.07.49.102.74.095h.45c.134-.009.27-.009.404 0a.118.118 0 00.118-.118.118.118 0 000-.073l-.056-.14a7.706 7.706 0 01-.416-1.297 6.468 6.468 0 01-.084-.937 5.938 5.938 0 00-.112-1.095 3.55 3.55 0 00-.528-1.077 7.115 7.115 0 01-.235-.388l-.029-.05c-.56-1.684-5.007-.926-5.007-.926-2.453 2.054-2.627 6.399-2.666 7.213-.078 1.599.416 2.969 1.179 4.535.34.77.592 1.576.752 2.402.056.253.118.5.18.747l.309 1.201.112.438a.124.124 0 00.106.09l3.739.404h.056s1.903-.662 1.942-.662c.6 0 1.224-6.04 1.482-6.736a.119.119 0 000-.096z" fill="#461B10"/><path d="M53.163 109.163a9.073 9.073 0 00-1.415 1.864 7.284 7.284 0 00-.735 2.194 9.926 9.926 0 00-.197 1.718c.006.222.057.44.152.64.11.297.152.616.123.932.002.756.094 1.51.276 2.245.1.41.18.831.291 1.229.113.399.124.792.208 1.201.154.618.376 1.217.662 1.785.152.337.651 1.123 1.123.938.561-.225.073-1.589-.073-1.892a3.397 3.397 0 01-.331-1.173v-.713c0-.23-.174-.499-.202-.769a8.78 8.78 0 00-.079-1.151c-.106-.471-.359-.976-.41-1.448a9.208 9.208 0 00-.039-.971c-.073-.348-.224-.679-.28-1.033-.197-1.15.64-2.391 1.234-3.295.17-.356.29-.734.36-1.122a.748.748 0 00-.382-1.022.305.305 0 00-.19-.061" fill="#7A491A"/><path d="M11.3 118.054a.447.447 0 01-.146 0c-1.51-.522-4.311-1.263-7.174-9.581-4.766-13.86 7.202-15.425 10.884-11.788.937.92 1.92 1.577 2.531 4.524.489 2.352 2.122 3.026 2.055 3.177a.454.454 0 01-.37.264c-2.246.208-4.89 2.565-5.737 4.535-.848 1.971-1.448 3.61-1.476 5.664 0 .915 0 1.864-.118 2.807a.454.454 0 01-.45.409v-.011zm-6.141-9.823c.685 1.881 1.431 3.031 2.105 4.53a9.924 9.924 0 003.637 4.159c.045-.713.05-1.425.062-2.116.028-2.049.056-4.17.977-6.309.825-1.92 3.075-3.654 6.297-4.159a9.677 9.677 0 01-1.51-1.331 4.029 4.029 0 01-.56-2.048c-.377-6.966-16.391-7.444-11.014 7.274h.006z" fill="#551215"/><path d="M19.254 111.958c1.431.365 6.786.241 8.24 0z" fill="#E8B898"/><path d="M22.852 112.553a19.236 19.236 0 01-3.683-.241.365.365 0 01.18-.702c1.336.343 6.59.242 8.089 0a.366.366 0 11.118.719 38.295 38.295 0 01-4.704.224z" fill="#551215"/><path d="M11.255 117.291c1.246 2.318 4.558 3.402 7.46 3.368 2.75 0 5.08.264 6.54-2.475a26.311 26.311 0 002.486-7.454c.118-.775.163-1.814-.51-2.358-.82-.662-1.994-.561-2.976-.477-.982.084-2.498.932-3.396.269-.898-.662.977-1.212 1.353-1.521 2.026-1.633 1.998-4.799.685-6.595-.64-.876-2.694-.427-2.93 1.285-.191 1.398.045 3.334-1.392 3.329a9.423 9.423 0 00-3.582.673c-1.43.679-2.56 2.403-3.238 3.778a10.543 10.543 0 00-1.207 4.49 6.47 6.47 0 00.185 1.813c.1.644.275 1.273.522 1.875z" fill="#E8B898"/><path d="M10.828 117.521c-.152-.517-.562-1.841-.562-1.987a6.965 6.965 0 01-.196-1.937 11.66 11.66 0 01.82-4.434c2.009-5.265 7.375-4.957 7.712-4.957.561 0 .724-.516.825-1.97 0-.314.045-.64.084-.943a2.47 2.47 0 012.42-2.139 1.684 1.684 0 011.38.635c1.443 1.976 1.482 5.445-.769 7.263a3.29 3.29 0 01-.561.326 4.95 4.95 0 00-.77.443c.17.101.365.15.562.141a5.47 5.47 0 001.387-.276 6.809 6.809 0 011.083-.246 10.53 10.53 0 011.123-.073 3.365 3.365 0 012.194.651c.994.802.758 2.312.685 2.806a25.501 25.501 0 01-2.588 7.612c-3.025 5.484-13.813 2.537-14.83-.915zm13.999.46a25.733 25.733 0 002.436-7.297c.151-.982.04-1.605-.337-1.909a2.426 2.426 0 00-1.583-.437 9.992 9.992 0 00-1.038.067c-.312.047-.62.118-.92.213a6.31 6.31 0 01-1.651.309 1.931 1.931 0 01-1.168-.348.892.892 0 01-.432-.814c.05-.606.752-.954 1.37-1.257.137-.063.27-.135.398-.214 1.78-1.431 1.78-4.316.595-5.933a.723.723 0 00-.595-.235 1.481 1.481 0 00-1.46 1.302c-.038.269-.055.561-.078.875-.084 1.213-.196 2.869-1.79 2.874a7.084 7.084 0 00-6.55 4.053 9.936 9.936 0 00-1.006 4.356c.012.736.106 1.468.281 2.183 1.156 3.194 5.316 4.367 7.954 4.367 0 .028 4.474-.095 5.574-2.155z" fill="#551215"/><path d="M25.146 117.532c-2.622.87-6.046-.399-6.848-.393-.27 0-.735.033-.735.297s.488.477.488.477a10.662 10.662 0 006.23.859c.332-.028.315-.286.63-.342a.562.562 0 00.364-.646c-.05-.292.123-.337-.13-.252zm1.074-2.879c-.483.685-5.77.449-7.466-.219a.485.485 0 10-.354.904c1.274.499 7.045 1.178 7.612.381.157-.219.904-.095.904-.365 0-.269-.697-.701-.697-.701z" fill="#551215"/><path d="M19.254 111.958c1.431.365 6.786.241 8.24 0z" fill="#E8B898"/><path d="M23.133 112.761a19.6 19.6 0 01-3.996-.443.485.485 0 01.241-.938c1.325.337 7.297.679 7.825-.432.118-.241.73.561.769.82.04.258-.764.561-1.027.628a19.582 19.582 0 01-3.812.365zm-15.337 2.576a.446.446 0 01-.196-.045c-.937-.449-1.201-3.508-1.196-3.541 1.218-9.077 9.84-9.459 10.227-9.649a.45.45 0 01.648.44.45.45 0 01-.255.373c-.522.253-7.981.562-9.21 8.92-.096.645 0 2.346.224 2.666a.449.449 0 01-.242.831v.005z" fill="#551215"/><path d="M9.043 113.575a.454.454 0 01-.45-.449v-.724a.452.452 0 11.904 0v.724a.451.451 0 01-.454.449zm12.501-4.654c-.045 0-1.505.241-2.807-1.588a.366.366 0 11.561-.438c.274.336.65.572 1.073.673.151.056.308.113.471.18a.365.365 0 01.196.477c-.056.135.646.696.506.696zm85.156-5.529c.129 0 .769.135.797 0 1.274-6.107.421-9.789-.068-11.787-3.367-13.898-10.395-18.866-17.962-22.02a64.997 64.997 0 00-14.65-3.93s-.348 1.09.124 1.173c3.929.663 9.093 1.645 14.083 3.8 7.258 3.127 13.926 7.859 17.305 21.095.477 1.852.921 6.326.399 8.824-.101.471.398 0 .146.314-.163.191.684 1.858 0 1.813-.101-.011-.275.718-.174.718z" fill="#551215"/><path d="M98.471 118.772c-.118-.073 0-.887 0-1.027-.09-.96.213-2.032.202-2.947 0-2.054-.628-3.693-1.476-5.663-.848-1.971-3.486-4.328-5.737-4.536a.454.454 0 01-.37-.264c-.067-.151 1.566-.819 2.054-3.177.612-2.947 1.594-3.603 2.532-4.524 3.682-3.626 16.031-1.925 10.884 11.788-3.183 8.526-8.016 10.418-8.089 10.35zm-4.109-17.833c0 .721-.194 1.429-.56 2.049a9.687 9.687 0 01-1.517 1.33c3.222.506 5.473 2.246 6.299 4.16.92 2.138.948 4.26.976 6.309 0 .69 0 1.403.062 2.116a9.916 9.916 0 003.637-4.159c.674-1.499 1.415-2.65 2.105-4.53 5.411-14.7-10.609-14.224-11.002-7.258v-.017z" fill="#551215"/><path d="M102.479 115.242c.067 0 .449-.814.516-.842.938-.449 1.156-2.621 1.123-2.649-1.218-9.077-9.84-9.458-10.227-9.649a.451.451 0 10-.393.814c.527.252 7.982.561 9.211 8.919.095.645 0 2.346-.225 2.666a.454.454 0 00-.162.561c.101.18-.012.18.157.18z" fill="#551215"/><path d="M101.502 113.575a.449.449 0 00.449-.449v-.724a.452.452 0 00-.904 0v.724a.45.45 0 00.455.449zM91.724 97.69a.566.566 0 01-.157 0 .561.561 0 01-.561-.562c.118-4.833 2.666-7.78 7.589-8.762a.562.562 0 01.662.443.561.561 0 01-.443.662c-4.39.882-6.584 3.368-6.685 7.69a.561.561 0 01-.405.528zM64.36 43.557a.207.207 0 01-.118-.096c-.068-.106-.764-.314-.652-.381 1.078-.657 1.42-1.645 2.936-2.437 2.492-1.29 5.181.904 5.5 3.436 0 .129-.055.241-.23.174-.173-.068-.925-3.991-4.748-3.026-1.173.298-2.077 1.763-2.245 2.038a.87.87 0 01-.208.224.213.213 0 01-.236.068zm-13.505 8.891a.399.399 0 01.393-.404c.218 0 .396.175.399.393a3.991 3.991 0 002.728 2.992c1.87.561 3.458.51 4.844-.303.19-.113.275-.337.488-.281a.4.4 0 01.276.488c-.18.663-2.964 2.245-5.838 1.168-3.054-1.157-3.278-3.29-3.29-4.053z" fill="#551215"/><path d="M51.898 50.007a.331.331 0 11.663-.011 3.368 3.368 0 002.29 2.509c1.572.488 2.902.426 4.064-.259.157-.095.23-.28.41-.23a.33.33 0 01.235.41c-.151.561-2.486 1.908-4.9.982-2.565-.988-2.75-2.756-2.761-3.401z" fill="#551215"/><path d="M55.408 52.089c-.876-4.682-5.815-4.985-6.831-5.052-4.305-.382-2.958-2.711-2.302-2.745.287 0 .225.427.562.32.19-.062.449-.561.353-.747-.96-1.684-2.621-.494-3.154.13-2.936 3.457-1.01 6.853 2.1 8.42a14.508 14.508 0 004.849 1.251c1.47-.006 4.608-.567 4.423-1.577z" fill="#551215"/><path d="M52.471 51.016c-1.05-3.974-7.129-2.593-7.207-3.75-.113.674-.208 2.476 4.49 2.616a5.26 5.26 0 012.717 1.134z" fill="#8F5142"/><path d="M58 56.68a8.027 8.027 0 004.02 2.066c4.193.966 8.33-.46 9.143-5.248.494-2.936-2.273-3.166-2.761-2.515a.803.803 0 00-.107.747c.213.331.483-.101.724.123.562.511.096 1.404-.359 1.752-1.302.999-2.616-.376-3.682-1.005a9.632 9.632 0 00-9.745-.517c-1.032.523 2.2 3.991 2.768 4.598z" fill="#551215"/><path d="M57.434 53.027c1.684-.377 2.862-.326 4.339.65 1.122.753 3.227 1.74 4.625 1.157a4.182 4.182 0 01-4.76 1.027 9.542 9.542 0 01-4.204-2.834z" fill="#8F5142"/><path d="M69.383 44.22c.186-.589-.154-1.221-.76-1.413-.606-.192-1.248.13-1.434.718-.187.588.154 1.22.76 1.412.606.192 1.248-.13 1.434-.718z" fill="#551215"/><path d="M68.685 43.276a.561.561 0 10-1.07-.34.561.561 0 001.07.34zm-11.909-3.698a.561.561 0 100-1.123.561.561 0 000 1.123z" fill="#fff"/><path d="M49.827 63.433c-.23-2.178 1.364-2.599 1.5-2.599.56 0-1.904 1.959.123 3.604.825.668-1.606-.809-1.623-1.005zm42.138-26.584c.028.056.421.353.455.415.471.87 16.104.326 9.104-8.98-.112-.147-.342.111-.359.297a2.457 2.457 0 000 .92c4.384 6.983-7.5 7.572-8.745 6.899a.32.32 0 00-.444.14.342.342 0 00-.011.309zM49.559 65.066a7.684 7.684 0 01-2.964-2.498s1.218-2.807.5-2.807c-3.464-.129-4.452 3.211-4.873 4.906-.46 1.875.174 5.019 3.896 6.674a.775.775 0 00.303.124h.09c.14-.03.257-.13.308-.264.23-.651 3.06-5.967 2.74-6.135zM46.28 70.24c-3.194-2.105-3.368-4.344-2.891-5.888a23.33 23.33 0 011.482-3.149c.118 0-.388 2.318 3.514 4.255 0-.011-1.915 4.344-2.111 4.788l.006-.006zm10.694 63.239c-12.838 0-25.871-4.109-36.026-12.315a.511.511 0 010-.808.78.78 0 01.966 0c19.68 15.902 50.479 16.003 68.66.219a.78.78 0 01.965 0 .51.51 0 010 .808c-9.312 8.055-21.84 12.096-34.565 12.096z" fill="#551215"/><path d="M99.014 117.291c-1.246 2.318-4.558 3.401-7.46 3.367-2.75 0-5.08.264-6.545-2.475a26.293 26.293 0 01-2.486-7.454c-.118-.775-.163-1.813.51-2.358.82-.662 1.993-.561 2.976-.477.982.084 2.497.932 3.401.27.904-.663-.393-1.123-.876-1.157-1.33-.157-5.669-1.044-4.35-2.846.635-.875-.303-.482 2.246-.735 1.403-.14 3.816 1.235 5.253 1.235a9.425 9.425 0 013.604.64c1.431.679 2.56 2.402 3.239 3.777a10.552 10.552 0 011.207 4.491 6.49 6.49 0 01-.186 1.813 8.214 8.214 0 01-.533 1.909z" fill="#E8B898"/><path d="M84.594 118.435a25.493 25.493 0 01-2.537-7.606c-.079-.499-.309-2.009.679-2.806a3.371 3.371 0 012.195-.652c.375.005.75.029 1.122.073.368.053.73.136 1.084.247.448.151.914.244 1.386.275.236 0 .561.028.561-.14s-.561-.348-.769-.443c-.207-.096-4.877-.629-4.625-2.852.343-2.986 7.584-.561 8.167-.561.337 0 5.692.758 7.533 5.175a10.67 10.67 0 01.82 4.435 6.974 6.974 0 01-.197 1.936c-.04.152-.393 1.488-.561 1.987-1.224 3.183-11.816 6.416-14.858.932zm6.433 1.729c2.638 0 6.797-1.173 7.953-4.367a9.432 9.432 0 00-.735-6.568 7.696 7.696 0 00-6.438-4.378c-1.797-.325-5.787-1.841-6.994-.685-2.038 1.954 5.72 2.116 5.327 3.795-.05.207-.056.314-.45.6a1.931 1.931 0 01-1.167.348 6.308 6.308 0 01-1.65-.308 6.056 6.056 0 00-.92-.214c-.346-.04-.692-.062-1.04-.067a2.42 2.42 0 00-1.582.438c-.376.303-.489.932-.337 1.908a25.7 25.7 0 002.436 7.297c1.112 2.077 5.585 2.201 5.585 2.201h.011z" fill="#551215"/><path d="M85.124 117.532c2.62.87 6.045-.399 6.848-.393.27 0 .735.033.735.297s-.488.477-.488.477a10.663 10.663 0 01-6.231.825c-.331-.028-.314-.286-.629-.342a.561.561 0 01-.364-.645c.05-.259-.124-.304.129-.219zm-1.09-2.879c.488.685 5.77.449 7.465-.219a.485.485 0 11.354.904c-1.274.499-7.044 1.178-7.611.381-.158-.219-.904-.095-.904-.365 0-.269.696-.701.696-.701z" fill="#551215"/><path d="M91.017 111.958c-1.43.365-6.786.241-8.24 0z" fill="#E8B898"/><path d="M87.14 112.761a19.601 19.601 0 003.996-.443.485.485 0 00-.242-.938c-1.324.337-7.297.679-7.824-.432-.118-.241-.724.561-.77.82-.044.258.764.561 1.028.628 1.255.246 2.532.368 3.811.365zm1.586-3.839c.044 0 1.504.242 2.806-1.588a.365.365 0 00-.067-.511.364.364 0 00-.51.073 1.992 1.992 0 01-1.073.674c-.152.056-.309.112-.477.179a.36.36 0 00-.191.477c.073.135-.629.696-.488.696zM18.72 97.69a.566.566 0 00.157 0c.31 0 .562-.252.562-.562-.118-4.833-2.667-7.78-7.59-8.762a.562.562 0 00-.662.443.561.561 0 00.438.662c4.39.882 6.584 3.368 6.685 7.69a.561.561 0 00.41.528z" fill="#551215"/></svg>