<svg width="204" height="229" viewBox="0 0 204 229" fill="none" xmlns="http://www.w3.org/2000/svg"><path d="M152.402 43.234c-4.907-7.044-3.179-16.735 3.861-21.645 7.039-4.91 16.724-3.18 21.631 3.863 4.907 7.044 3.179 16.735-3.861 21.645-7.039 4.91-16.724 3.181-21.631-3.863z" fill="#F8C69D"/><path d="M167.449 54.696a12.832 12.832 0 003.052 6.802 12.815 12.815 0 0013.764 3.725 12.82 12.82 0 008.688-11.314 12.824 12.824 0 00-14.495-13.549 12.829 12.829 0 00-11.009 14.336zm14.129-22.502a7.426 7.426 0 005.445 6.187 7.416 7.416 0 007.798-2.66 7.43 7.43 0 00.538-8.226 7.418 7.418 0 00-7.386-3.652 7.437 7.437 0 00-6.395 8.351z" fill="#F8C69D"/><path d="M185.82 74.639a7.47 7.47 0 01-1.295-10.481 7.458 7.458 0 0110.473-1.296 7.471 7.471 0 011.296 10.48 7.46 7.46 0 01-10.474 1.297zm-42.305-61.713a6.402 6.402 0 011.095-8.982 6.39 6.39 0 018.976 1.094 6.401 6.401 0 01-1.094 8.983 6.392 6.392 0 01-8.977-1.095zm22.754 10.647c-4.829 0-8.744-3.918-8.744-8.75s3.915-8.75 8.744-8.75c4.83 0 8.745 3.918 8.745 8.75s-3.915 8.75-8.745 8.75zM142.1 42.184c-6.976 0-12.632-5.659-12.632-12.64 0-6.98 5.656-12.64 12.632-12.64 6.977 0 12.632 5.66 12.632 12.64 0 6.981-5.655 12.64-12.632 12.64zm53.049 13.354a4.448 4.448 0 003.245 3.726 4.44 4.44 0 004.682-1.577 4.446 4.446 0 00-4.096-7.123 4.46 4.46 0 00-3.831 4.974zm-12.746-40.13a4.449 4.449 0 003.258 3.715 4.44 4.44 0 004.676-1.592 4.45 4.45 0 00-1.57-6.694 4.442 4.442 0 00-2.547-.416 4.427 4.427 0 00-3.708 3.256 4.431 4.431 0 00-.109 1.731z" fill="#F8C69D"/><path d="M0 116.331a101.925 101.925 0 0019.02 59.211 101.818 101.818 0 0049.877 37.112 101.745 101.745 0 0062.143 1.183 101.814 101.814 0 0051.25-35.188 101.914 101.914 0 0019.614-43.758 101.94 101.94 0 00-2.567-47.89 101.88 101.88 0 00-24.178-41.409 101.807 101.807 0 00-40.432-25.75 101.751 101.751 0 00-92.171 13.561 101.859 101.859 0 00-31.313 36.308A101.93 101.93 0 000 116.33z" fill="#F3F3F3"/><g opacity=".8" fill="#F9BB87"><path opacity=".8" d="M164.708 165.039c-4.521-4.525-4.521-11.861 0-16.385 4.522-4.525 11.853-4.525 16.374 0 4.522 4.524 4.522 11.86 0 16.385-4.521 4.524-11.852 4.524-16.374 0zM106.3 162.53a7.194 7.194 0 01-7.192-7.197 7.194 7.194 0 017.192-7.196 7.194 7.194 0 017.192 7.196 7.194 7.194 0 01-7.192 7.197zm46.429-1.624a3.736 3.736 0 01-2.304 3.449 3.732 3.732 0 112.304-3.449zm.569-15.648a3.732 3.732 0 01-3.731-3.733 3.732 3.732 0 013.731-3.734 3.732 3.732 0 013.731 3.734 3.732 3.732 0 01-3.731 3.733zM19.49 127.633c-.25-6.48 4.8-11.936 11.275-12.185 6.477-.249 11.928 4.803 12.177 11.283.249 6.481-4.8 11.936-11.276 12.185-6.476.249-11.928-4.803-12.176-11.283zm3.967 25.52a5.39 5.39 0 01-3.323 4.977 5.385 5.385 0 01-5.867-1.168 5.386 5.386 0 01-1.167-5.87 5.387 5.387 0 018.78-1.748 5.39 5.39 0 011.577 3.809z"/><path d="M10.127 160.663a101.876 101.876 0 0033.156 39.035 101.764 101.764 0 0098.57 10.293 101.83 101.83 0 0040.495-31.344 23.795 23.795 0 00-19.016-10.99 23.776 23.776 0 00-19.906 9.28 18.824 18.824 0 00-6.606-10.415 18.805 18.805 0 00-29.98 10.273 25.626 25.626 0 00-10.81-4.361v-1.211a18.064 18.064 0 00-10.702-16.503 18.042 18.042 0 00-19.418 3.079 20.322 20.322 0 00-7.436-12.867 20.299 20.299 0 00-27.569 2.12 20.33 20.33 0 00-5.383 13.853v1.041a21.355 21.355 0 00-9.385-2.181c-2.036.008-4.06.311-6.01.898z"/></g><path d="M198.41 73.18l-54.473 32.519-2.749 65.525-30.22-38.477-46.241 33.418L5.197 17.731 198.41 73.18z" fill="#FFAF34"/><path d="M143.938 105.7l-1.325 31.223-1.424 34.301-30.22-38.477 8.288-6.384-61.522-70.726 86.203 50.063z" fill="#FF9135"/><path opacity=".3" d="M142.611 145.216l-.74 9.762-.684 16.246-30.22-38.477 8.289-6.384-61.523-70.726 84.878 89.579z" fill="#735414"/><path d="M143.937 105.699l39.79-29.783L5.197 17.73 198.41 73.18l-54.473 32.519zM57.735 55.637l61.523 70.726-8.289 6.384-53.234-77.11z" fill="#fff" opacity=".4"/><path d="M119.256 126.363l21.932 44.861-28.184-35.883-7.591 1.425 13.843-10.403z" fill="#ED9621"/><path d="M145.532 176.325c.741.926 1.425 1.853 2.265 2.751" stroke="#264C51" stroke-width="2" stroke-linecap="round" stroke-linejoin="round"/><path d="M152.456 184.634a60.442 60.442 0 017.263 10.616 29.272 29.272 0 013.475 17.557c-2.72 17.585-22.045 16.616-34.179 9.334a74.808 74.808 0 01-13.6-11.001 133.779 133.779 0 00-13.174-10.831 174.586 174.586 0 00-30.334-18.711c-10.41-4.888-24.21-8.279-35.603-5.942-8.986 1.838-13.686 8.65-13.63 17.685a25.286 25.286 0 001.696 8.75" stroke="#264C51" stroke-width="2" stroke-linecap="round" stroke-linejoin="round" stroke-dasharray="5.09 5.09"/><path d="M25.777 205.412a37.093 37.093 0 001.766 3.107" stroke="#264C51" stroke-width="2" stroke-linecap="round" stroke-linejoin="round"/><path d="M23.454 214.061a6.303 6.303 0 003.876 5.829 6.294 6.294 0 008.235-8.222 6.298 6.298 0 00-5.817-3.892 6.294 6.294 0 00-6.294 6.285z" fill="#264C51"/></svg>