<svg width="51" height="51" viewBox="0 0 51 51" fill="none" xmlns="http://www.w3.org/2000/svg"><path d="M51 25.5C51 39.583 39.583 51 25.5 51S0 39.583 0 25.5 11.417 0 25.5 0 51 11.417 51 25.5z" fill="#333"/><path fill-rule="evenodd" clip-rule="evenodd" d="M24.489 7.104c-8.091.994-14.45 7.444-15.288 15.507-.124 1.195-.049 3.457.153 4.6a17.6 17.6 0 001.67 5.024l.412.817-1.23 4.465C9.53 39.973 8.987 41.99 9 42c.013.01 2.074-.52 4.58-1.178 3.646-.958 4.59-1.183 4.738-1.127.1.038.58.249 1.065.467a17.78 17.78 0 004.969 1.414c1.209.163 3.331.162 4.508-.002 3.861-.537 7.311-2.234 10.03-4.934 1.422-1.411 2.368-2.703 3.268-4.462a18.103 18.103 0 001.702-5.14c.187-1.07.187-4.21 0-5.331-.316-1.893-.804-3.405-1.637-5.075-2.371-4.753-6.75-8.14-11.986-9.273-1.632-.354-4.066-.461-5.748-.255zm4.591 3.022c2.108.388 3.855 1.088 5.584 2.236 2.95 1.96 5.123 5.006 5.981 8.385.63 2.481.581 5.3-.135 7.685a14.547 14.547 0 01-7.529 8.86c-2.1 1.02-4.043 1.464-6.399 1.464-2.7 0-5.094-.65-7.537-2.05l-.411-.236-2.704.706c-1.487.388-2.715.695-2.729.681-.014-.014.291-1.17.678-2.57.387-1.4.706-2.596.71-2.66.003-.062-.187-.426-.423-.807-3.465-5.605-2.557-12.996 2.17-17.67 2.353-2.326 5.33-3.755 8.667-4.16.901-.11 3.149-.034 4.077.136zm-9.356 6.371c-.425.21-1.2 1.12-1.526 1.791-.637 1.318-.624 2.979.036 4.516.81 1.89 2.932 4.573 5.027 6.357 1.468 1.25 2.695 1.983 4.497 2.686 1.84.718 2.194.801 3.416.8.961 0 1.114-.018 1.56-.185a4.938 4.938 0 001.83-1.157c.424-.414.51-.544.648-.985.173-.55.272-1.435.195-1.742-.04-.16-.248-.29-1.292-.81-1.912-.951-2.683-1.279-3.01-1.279-.269 0-.315.033-.64.457-.741.968-1.422 1.718-1.599 1.762-.212.053-.63-.098-1.594-.58a11.288 11.288 0 01-3.928-3.214c-.596-.758-1.133-1.623-1.133-1.824 0-.086.277-.515.614-.952.662-.858.856-1.178.856-1.414 0-.083-.144-.487-.32-.898-.175-.411-.528-1.257-.785-1.88-.319-.771-.542-1.207-.703-1.369l-.235-.237h-.797c-.668 0-.849.026-1.117.157z" fill="url(#paint0_linear_1054_37)"/><defs><linearGradient id="paint0_linear_1054_37" x1="26.5" y1="7" x2="26.5" y2="42" gradientUnits="userSpaceOnUse"><stop stop-color="#FBDD51"/><stop offset="1" stop-color="#E8BC00"/></linearGradient></defs></svg>