<svg width="58" height="48" viewBox="0 0 58 48" fill="none" xmlns="http://www.w3.org/2000/svg"><path fill-rule="evenodd" clip-rule="evenodd" d="M56.845 1.111C56.526.64 55.619.163 54.86.071c-1.613-.196-.954-.567-14.126 7.945l-12.17 7.863-12.17-7.863C3.185-.52 3.888-.126 2.227.076 1.35.182.283.872.118 1.44c-.312 1.077-1.025.551 13.435 9.922 7.325 4.746 13.534 8.704 13.8 8.795.617.212 1.807.212 2.424 0 .752-.258 26.921-17.268 27.132-17.635.25-.434.224-.982-.064-1.41zm0 13.842c-.319-.472-1.226-.949-1.984-1.04-1.613-.196-.954-.567-14.126 7.945l-12.17 7.863-12.17-7.863c-13.21-8.536-12.507-8.142-14.168-7.94-.877.106-1.944.796-2.109 1.364-.312 1.077-1.025.55 13.435 9.922 7.325 4.746 13.534 8.704 13.8 8.795.617.212 1.807.212 2.424 0 .752-.259 26.921-17.268 27.132-17.635.25-.434.224-.982-.064-1.411zm0 13.842c-.319-.473-1.226-.949-1.984-1.04-1.613-.196-.954-.567-14.126 7.944l-12.17 7.864-12.17-7.864c-13.21-8.535-12.507-8.141-14.168-7.94-.877.107-1.944.797-2.109 1.364-.312 1.078-1.025.552 13.435 9.923 7.325 4.746 13.534 8.704 13.8 8.795.617.212 1.807.212 2.424 0 .752-.259 26.921-17.268 27.132-17.635.25-.434.224-.982-.064-1.411z" fill="#FDD837"/></svg>