<svg width="28" height="28" viewBox="0 0 28 28" fill="none" xmlns="http://www.w3.org/2000/svg"><path d="M0 14C0 6.268 6.268 0 14 0s14 6.268 14 14-6.268 14-14 14S0 21.732 0 14z" fill="#333"/><path d="M14.688 18.9c-5.261 0-8.262-3.679-8.387-9.8h2.635c.087 4.493 2.03 6.396 3.569 6.788V9.1h2.482v3.875c1.52-.167 3.116-1.933 3.655-3.875h2.482a7.551 7.551 0 01-1.189 2.802 7.39 7.39 0 01-2.188 2.083 7.625 7.625 0 012.494 2.025 7.805 7.805 0 011.46 2.89h-2.732a4.858 4.858 0 00-1.473-2.364 4.708 4.708 0 00-2.51-1.138V18.9h-.298z" fill="url(#paint0_linear_1042_32)"/><defs><linearGradient id="paint0_linear_1042_32" x1="14.001" y1="9.1" x2="14.001" y2="18.9" gradientUnits="userSpaceOnUse"><stop stop-color="#FBDD51"/><stop offset="1" stop-color="#E8BC00"/></linearGradient></defs></svg>